<?xml version="1.0" encoding="UTF-8"?>
<svg id="Layer_1" xmlns="http://www.w3.org/2000/svg" viewBox="0 0 248 250">
  <path d="M66.5,160.17c-.86-7.18.95-13.64,5.21-19.45.99.12,2,.14,2.96.38,5.78,1.45,12.69-.51,17.43,2.96,8.24,6.05,17.37,5.31,26.14,4.69,8.41-.6,16.93-1.22,25.26-1.24,19.11-.04,38.08-2.52,57.16-2.31,1.55.02,2.94-.3,4.1-1.44,2.3-2.26,5.17-2.58,8.28-2.67,9.61-.27,19.25.64,28.82-.92-1.7,8.17-2.76,16.41-8.15,23.5-1.58,2.08-1.43,5.83-3.29,8.51-3.81,5.49-8.72,9.35-15.42,9.89-16.72,1.33-33.48.98-50.23.25.69-2.56-1.87-3.69-2.51-5.69-.63-1.99-2.08-2.78-4.26-2.46-2.84.42-2.11,2.98-2.97,4.57-1.24,2.3.61,2.8,2.12,3.48-8.77,1.05-17.57.39-26.36.58-1.99.04-3.98,0-5.92,0-1.3,2.23-.9,4.37-.79,7.29h57.16c-1.52,11.46,2.37,22.77-3.11,33.16-4.94,9.37-13.27,14.27-23.61,16.17-2.83.52-5.41,2.79-8.21,3.03-11.23.96-22.16,3.57-33.85,1.74-11.37-1.78-22.28-3.85-32.14-9.79-3.54-2.13-7.76-4.04-8.46-9.02,2.7-2.1,5.4-4.21,8.15-6.35-2.46-2.21-6.26-1.91-7.55-5.42,2.31-.82,4.34,2.18,6.46-.42-2.72-4.75-8.37-3.59-12.24-5.91-.84-11.45-.51-22.91-.44-34.37,6.77-.71,12.41-5.76,19.65-4.87,5.24.65,9.77-2.58,14.93-3.29,10.2-1.4,20.46-1.79,30.67-2.57,6.5-.5,13.04-2.13,19.77-.56,2.98.69,7.16,1.67,9.52-4.57-6.85,4.94-11.87-.19-17.61-1.1.29,1.23,1.89.93,1.16,2.87-25.84-2.93-51.8.49-77.82,1.33ZM156.25,226.19c6.23-.09,11.2-5.06,10.71-11.32-.56-7.15-3.98-9.99-11.93-10.57-4.6-.34-9.91,5.71-9.92,10.81-.02,6.04,5.14,11.18,11.15,11.09Z" style="fill: #ad8a6c;"/>
  <path d="M241.84,140.16c-9.56,1.56-19.21.65-28.82.92-3.11.09-5.97.4-8.28,2.67-1.16,1.14-2.55,1.46-4.1,1.44-19.08-.2-38.05,2.27-57.16,2.31-8.32.02-16.85.64-25.26,1.24-8.77.62-17.9,1.36-26.14-4.69-4.73-3.47-11.64-1.51-17.43-2.96-.96-.24-1.97-.26-2.96-.38,5.76-8.48,13.83-12.64,24.01-12.67,18.99-.05,37.98.02,56.96-.04,18.82-.06,35.43-16.69,35.49-35.42.03-8.63,0-17.26,0-26.73,10.35.54,20.48-1.53,30.36,1.35,7.02,2.05,11.81,7.21,15.07,13.63,4.34,8.55,6.27,17.78,7.69,27.21.99,6.56,2.09,13.06,1.83,19.73-.16,4.16-.21,8.31-1.29,12.37Z" style="fill: #8cace9;"/>
  <path d="M125.99,5.05c1.33-.59,2.06.54,3,1.06-1.37,5.48,2.07,8.34,5.97,10.95-.31.64-.62,1.28-.93,1.92-1.64-.09-3.34-.51-4.8.51.29,1.93,1.7,1.45,2.61,1.81.23,1.24-.11,2.04-1.25,2.89-3.63,2.7-2.67,5.59.16,8.24,1.18,1.11,2.68,1.78,3.59,3.3,1.09,1.81,2.72.42,4.01.08,1.23-.33,3.05-1.2,2.38-2.61-1.13-2.42,1.21-3.56,1.33-5.41,1.82,1.14,3.95,3.18,5.85,2.04,4.33-2.62,7.07-.59,9.88,2.24-.57.78-1.09,1.6-1.72,2.32-3.88,4.48-2.83,8.3,2.94,10.55-.83,1.47-1.95,3.29-.65,4.62,4.83,4.96-.4,6.12-2.92,8.34-.46-1.84,2.14-2.48,1.68-4.39-.89-1.05-1.8-2.2-3.33-2.55-4.65,1.31-8.5,4.58-13.39,5.39-.64.11-1.06,1.53-1.58,2.35-2.57-.25-4.36-3.02-7.04-2.54-1.35,1.89,1.61,2.63.62,4.2-.91,1.02-3.07-1.44-3.17.8-.17,3.94,4.4,3.22,5.68,5.7,2.46-1.55,2.72-4.06,4.05-5.88l.98.25c.56.73,1.34.78,2.16.67l2.91,2.11c3.58,3.46,2.62,8.05,3.04,12.29-2.16,0-5.27-2.3-5.8,1.9-.51,4.06,1.87,5.9,6,4.94,1.18-.27,1.78.71,2.73.84,0,1.02,0,2.05,0,3.07-1.02.92-1.36-.31-1.98-.63-2.6-1.35-5.06-1.02-6.89,1.18-2.39,2.88.09,5.14,1.84,6.72,2.45,2.21,3.95-.2,5.39-2.04.68-.87,1.68-1.49,2.74-2.39,1.05.67,2.42,1.54,3.8,2.42,2.49,1.55,4.95,3.17,7.86,3.84-.01.3-.1.57-.26.82-1.11.47-2.22.94-3.34,1.4-3.35,5.68-3.22,5.9,4.51,7.41.78-1.29,1.61-2.64,2.44-4-.02-.78-.03-1.56-.05-2.34,2.07-.42,4.2.39,6.58-.9-.15,2.81-.04,5.04,1.95,6.54-2.61,1.93-4.03-1.46-6.15-.86-1.18,5.6-.57,6.23,5.32,5.61-5.72,7.18-13.24,10.88-22.36,10.98-12.64.14-25.31.39-37.93-.07-9.86-.36-19.65.27-29.47.55-.35-.44-.7-.89-1.06-1.33-.05-.28-.06-.57-.03-.86-.21-5.27,5.83-1.03,6.95-5.03-2.98-1.96-6.17-3.05-9.95-1.84-.22,1.49.64,3.14-.96,4.2-3.87-3.66-9.31-4.03-13.72-6.55.54-2.24,1.8-4.52-.27-6.65.01-.62-.24-1.05-.87-1.2l-.05-.06c-.29-2,2.04-4.01-.03-5.99,1.72-2.48.95-5.29,1.05-7.98l-.02.02c2.49.67,5.06.6,7.47.33.74,1.93-.06,2.33-1.42,2.71-4.7,1.3-6.11,5.83-3.16,9.74,2.2,2.92,4.84,5.51,6.2,9.37,1.87-2.19,3.38-3.7,4.15-6.09.95-2.91,2.67-4.27,5.88-1.39,2.72,2.44,6.23,3.97,6.46,8.03,2.37.71,4.62-1.47,6.49,1.63,2.21,3.66,6.6,3.24,9.33-.33.96-1.26,1.31-3.2,3.6-2.77,1.49.87.18,4.08,3.03,3.79,1.77-.18,3.14-1.85,2.67-2.98-1.56-3.71,2.07-3.27,2.93-4.26-2.06-6.2-5.14-11.56-10.04-15.67,2.05-1.6,3.05-.56,4.13-.47,1.8.16,4.37,1.47,5.08-1.29.66-2.57-1.41-3.7-3.66-4.46-4.75-1.62-6.34-5.36-4.41-10.11-1.66-1.51-3.32-3.02-4.49-4.08-2.75-.17-1.52,2.77-3.7,2.93-1.96-3.32-5.65-4.49-8.81-6.4h29.76c.63-2.78.63-4.88-.01-7.44-17.42,0-34.88,0-52.33,0,.13-3.36-2.1-4.86-4.75-6.02-.02-7.81-.48-15.63.43-23.43.94-8.1,4.89-13.95,12.36-17.41,11.12-5.15,22.98-6.27,35-6.65-.33,1.65.44,3.8-1.94,4.47-2.13.22-2.48-3.87-4.95-2.06-1.89,1.38-1.32,3.72-2.01,6.6,3.11-1.97,7.4-1.41,8.08-2.27,3.41-4.31,6.47-1.46,10.33-.19-.61-2.95,2.69-4.02,2.34-6.78ZM120.99,26.99c-.33-.85-.29-1.97-1.58-2.2-.68,1.64.39,1.96,1.61,2.18.71,1.79-1.67,3.58.14,6.04.92-2.46,1.11-4.24-.17-6.01ZM102.13,33.26c-.02-6.01-4.8-10.89-10.71-10.93-5.81-.03-10.54,4.89-10.59,11.01-.05,6.1,4.61,10.79,10.69,10.77,6.05-.02,10.63-4.71,10.61-10.86ZM150.7,96.91c-2.92.04-4.7.56-4.68,3.28.01,2.3,4.02,5.96,6.44,5.68,2.09-.24,3.97-1,3.59-3.68-.49-3.47-2.77-4.99-5.35-5.29ZM134.69,82.91c-.75-2.31,1.28-4.39-.21-6.48h-5.16c2.61,2.47-3.03,5.63,1.66,7.22,2.46.83,5.13,4.08,8.19.05,1.81-2.38.58-3.53-.05-5.25-2.43.84-1.35,4.1-4.43,4.46ZM111.8,35.74q.15-4.33-3.6-6.23c-2.1,3.77.57,4.8,3.6,6.23ZM135.8,105.56c.03-2.91,1.46-5.79-2.41-7.35-.75,3.02-.84,5.48,2.41,7.35ZM139.07,40.32c4.85,2.78,5.98,2.42,7.65-2.6-2.69.91-5.03,1.71-7.65,2.6ZM112.06,27.16c1.94-.93,3.35-.85,3.61-2.79-1.77-.41-2.8.06-3.61,2.79Z" style="fill: #5b2917;"/>
  <path d="M62.98,138.41c.44,3.31-1.8,5.79-2.67,8.7-3.78,1.98-4.2,3.99-1.23,5.97v29.3c-8.98.06-17.49,1.08-25.87-.47-9.79-1.81-16.4-8.13-20.22-16.97-7.07-16.36-9.4-33.6-7.51-51.3.69-6.42,2.15-12.79,3.6-19.1,1.45-6.29,4.26-11.99,8.85-16.68,4.29,3.51,7.87-.63,12.3-.76,1.45,2.13,5.26,2.22,6.6,5.72,1.56-1.61,3.27-2.01,5.14-1.84,0,0-.01-.01-.01-.01.74,1.46,1.48,2.91,2.2,4.33,4.68-1.5,9.2.32,13.7-.12,2.34,1.99,5.69,1.05,8.1,2.81,0,0,.02-.02.02-.02-4.61.2-10.12,4.63-10.97,8.81-1.79,0-3.58,0-5.37-.02-2.06-.02-2.98.98-2.72,3.04-5.84,2.34-1.7,5.16-.38,7.85-.64.96-1.5,1.83-1.87,2.88-.95,2.69.24,5.2,1.33,7.52.81,1.74,3,1.74,4.39,1.02,3.91-2.05,5.6.9,6.99,3.24.88,1.47,1.96,2.51,3.07,3.66-6.02,3.43-6.81,4.85-5.04,9.04,2.75,5.31,4.08,5.91,7.55,3.39ZM35.98,135c-.5.07-1.22-.32-1.34.61.79.49,1.1.02,1.34-.61.08-.14.15-.28.23-.42-.08.14-.15.28-.23.42ZM24.9,116.04c.06,1.41.97,1.77,2.2,2.13,4.5,1.33,6.87-1.93,9.68-4.28,2.72-6.09.5-9.96-5.6-8.89-4.02.71-8,.88-13.36.67,4.26,3.16,3.19,8.2,7.08,10.36ZM19.09,126.21c-1.49,3.89-.1,6.11,4.72,7.53,1.11.63,1.55,2.25,3.16,2.16,2.43,4.34,2.89,4.36,6.07.04-1.08-.63-2.14-1.25-3.2-1.87.73-1.52,1.77-2.7,3.77-3.26.58,2.26,3.02,3.27,4.06,1.94,2.01-2.59,5.22-1.9,7.3-3.73,1.03,3.93-4.88,3.97-4.62,7.61,2.32.52,3.61-2.08,5.79-1.12,1.62.72,3.04-.12,3.57-1.6.6-1.66,1.03-3.69-.25-5.18-1.35-1.57-2.99-.56-4.44.23-.4-1.93,2.39-1.59,2.4-3.56-3.56-.26-6.79-4.01-10.5-1.16-3.57,2.74-6.53,3.06-9.07-1.07-1.97,2.3.06,4.42-.55,6.64-5.01-.34-2.89-5.62-5.31-7.53-2.3.43-3.15,1.78-2.89,3.92ZM46.84,89.28c-5.1,2.26-5.65-2.09-7.66-4.11q-2.57,1.98-1.21,7.92c2.65-1.61,7.31,4.7,8.87-3.81ZM35.69,103.61c3.06-.35,3.96,4.79,8.14,2.79-2.52-2.04-4.52-4.26-8.14-2.79ZM47.46,94.3l-.16.23.26.03-.1-.26Z" style="fill: #5b2917;"/>
  <path d="M65.98,88c-2.42-1.76-5.77-.82-8.1-2.81,4.77-1.12,6.21-3.87,4.06-8.35,2.1-1.19,4.19-2.39,6.29-3.58,1.87,2.1,5.33,2.71,5.38,5.98,5.8-.76,9.82-2.93,8.84-9.65-3.29,1.13-7.1,3-6.5-3.33,3.33.52,6.72-1.42,10.17,1.39,1.5,1.22,4.6-2.69,7.58-1.4,3.16,1.91,6.84,3.08,8.81,6.4,2.18-.16.96-3.1,3.7-2.93,1.17,1.06,2.83,2.57,4.49,4.08-1.92,4.75-.34,8.49,4.41,10.11,2.25.77,4.31,1.89,3.66,4.46-.71,2.76-3.28,1.44-5.08,1.29-1.08-.09-2.08-1.13-4.13.47,4.9,4.11,7.98,9.47,10.04,15.67-.86.99-4.49.54-2.93,4.26.47,1.13-.9,2.8-2.67,2.98-2.85.28-1.53-2.92-3.03-3.79-2.29-.43-2.64,1.51-3.6,2.77-2.73,3.56-7.12,3.99-9.33.33-1.87-3.1-4.12-.93-6.49-1.63-.23-4.05-3.74-5.59-6.46-8.03-3.21-2.88-4.93-1.52-5.88,1.39-.78,2.39-2.28,3.9-4.15,6.09-1.36-3.86-4-6.45-6.2-9.37-2.95-3.91-1.54-8.45,3.16-9.74,1.36-.38,2.17-.77,1.42-2.71-2.41.27-4.98.34-7.47-.33ZM83.61,92.41c-2.67-2.43-4.84-4.4-7.64-6.94.95,3.17,1.71,5.71,2.44,8.15,2.05.67,3.31-.64,5.2-1.21ZM102.59,94.04c-2.17.48-4.05.89-5.93,1.31.16,2.31,1.36,2.99,3.33,2.62,1.9-.36,3.57-.92,2.6-3.93Z" style="fill: #a81a5c;"/>
  <path d="M66.5,160.17c26.02-.84,51.98-4.26,77.82-1.33.72-1.94-.87-1.64-1.16-2.87,5.75.92,10.77,6.04,17.61,1.1-2.36,6.23-6.54,5.26-9.52,4.57-6.73-1.57-13.27.06-19.77.56-10.21.78-20.47,1.17-30.67,2.57-5.16.71-9.69,3.93-14.93,3.29-7.24-.89-12.88,4.16-19.65,4.87-.29-1.6-.34-3.19.21-4.75,2.3-1,2.53-2.13.2-3.4-.05-1.53-.09-3.07-.14-4.6Z" style="fill: #5b2917;"/>
  <path d="M61.94,76.84c2.14,4.49.71,7.23-4.06,8.35-4.51.44-9.02-1.38-13.7.12-.72-1.42-1.46-2.87-2.2-4.33,1.87-.41,3.62,2.18,6-.18-1.69-1.39-.15-3.69-1.35-5.94-3.23,1.08-3.55,3.91-4.64,6.14-1.87-.17-3.58.23-5.14,1.84-1.34-3.5-5.15-3.59-6.6-5.72-4.43.13-8.01,4.27-12.3.76,3.17-3.84,7.45-5.69,11.77-8.04,6.76-3.66,13.38-3.63,20.36-3.66,1.09,2.09,2.66,4.1.37,6.74,4.71.12,8.22,1.7,11.49,3.92Z" style="fill: #be4f27;"/>
  <path d="M157.79,32.06c-2.81-2.82-5.56-4.86-9.88-2.24-1.89,1.15-4.02-.89-5.85-2.04-.77-.85-2.15-1.22-2.13-2.7.37-1.72.74-3.43,1.1-5.14l-.05.04c2.75-2.12,6.28-.86,7.91.41,4.54,3.53,5.71-.75,6.15-2.75.39-1.78,1.74-3.4,1.57-5.66-2.26-.31-4.35-1.19-6.54.03.04-1.37-.66-2.01-1.99-2.03-.52.15-1.04.3-1.56.45.56-1.33,1.44-2.22,1.33-3.54,1.27-.75.52,1.89,2.47,1.17,5.29-1.96,9.77.45,13.79,3.84,3.41,4.92-.32,5.95-3.87,7.07-.31-1.04-.1-2.52-1.73-2.56-.99-.02-1.29.84-1.4,1.71-.25,2,.98,2.58,2.64,2.76,2.27,1.49,2.08,4.24,3.23,6.3-2.4.91-2.93,3.81-5.19,4.87Z" style="fill: #be4f27;"/>
  <path d="M179.75,31.97c2,2,1.43,4.56,1.44,6.95.03,5.4-.07,10.81-.12,16.21-4.76-.73-8.85-4.51-14.08-3.09,0,0-.01-.06-.01-.06-.31-.36-.63-.72-.94-1.08-.02-.65-.03-1.29-.04-1.94,3.66-1.29,7.5,1.37,11.16-.6-.07-1.93-.21-3.65-3.08-2.48-1.91.78-3.54-.29-3.66-2.15-.3-4.74-3.36-4.98-6.9-4.75-.72-.97-2.15-1.66-1.31-3.26,2.26-1.76,8.24.06,5.86-6.12.03-2.82,1.56-5.43,3.78-2.6,2.28,2.91,4.9,3.92,7.91,4.97Z" style="fill: #5b2917;"/>
  <path d="M174.71,109.81c-5.89.62-6.49,0-5.32-5.61,2.12-.6,3.54,2.79,6.15.86-1.98-1.49-2.1-3.73-1.95-6.54-2.38,1.29-4.51.47-6.58.9-.52-1.78-1.94-2.28-3.56-2.47.17-.25.26-.52.27-.82,1.05-.36,2.49.16,3.04-1.34-.6-2.91-2.21-1.55-3.66-.87-3.71-2.36-3.76-3.83-.24-6.7.63.35,1.27.7,1.9,1.06.8,2.02,1.74,3.66,4.15,1.66,2.24-.55,3.29,1.38,4.5,2.39,2.55-.97,2.05-2.76,1.82-4.48.58-.29,1.17-.58,1.75-.88.64,1.21,1.61,1.92,2.99,2.04,1.65,3.17.7,5.78-.49,9.11-1.42,3.98-2.49,8.05-4.78,11.68Z" style="fill: #dda709;"/>
  <path d="M179.75,31.97c-3.01-1.05-5.63-2.06-7.91-4.97-2.22-2.83-3.75-.22-3.78,2.59-1.97-.22-2.8-2.84-5.08-2.4-1.15-2.06-.96-4.82-3.23-6.3.16-.64.32-1.27.49-1.91,3.55-1.12,7.27-2.15,3.87-7.07,7.06,1.98,15.32,12.58,15.64,20.07Z" style="fill: #ad8a6c;"/>
  <path d="M147.85,6.89c.11,1.33-.77,2.21-1.33,3.54.52-.15,1.04-.3,1.56-.45-.2,1.52.53,2.14,1.99,2.03,2.19-1.22,4.28-.33,6.54-.03.18,2.26-1.17,3.88-1.57,5.66-.44,2-1.61,6.29-6.15,2.75-1.63-1.27-5.16-2.54-7.91-.42.16-3.51-3.33-6.19-2.25-9.91.82-1.28,1.68-2.55,1.22-4.2,2.67-.01,5.38-.26,7.89,1.01Z" style="fill: #5b2917;"/>
  <path d="M66.18,109.86c4.41,2.52,9.85,2.89,13.72,6.55.46,2.17,2.13,2.54,3.96,2.67-.03.29-.02.57.03.86-1.27.2-2.34.66-2.67,2.08-4.18,2.48-6.9,7.16-12.1,8.12,0,0-.3-.29-.3-.29.4-1.93,2.95-3.76.3-5.84,2.83-1.27,7.76.22,7.42-5.33-2.04-1.51-3.7.24-5.45.11-1.91-4.16-6.24-4.74-10.16-1.27-1.15-.87-1.23-2.67-2.76-2.93,2.41-2.38,4.53-4.78,7.99-4.73Z" style="fill: #be4f27;"/>
  <path d="M66.67,207.29c3.87,2.31,9.52,1.16,12.24,5.91-2.12,2.6-4.15-.41-6.46.42,1.29,3.51,5.08,3.22,7.55,5.42-2.75,2.15-5.45,4.25-8.15,6.35-5.62-4.92-5.5-11.48-5.17-18.1Z" style="fill: #5b2917;"/>
  <path d="M61.94,76.84c-3.27-2.22-6.78-3.79-11.49-3.92,2.29-2.64.72-4.65-.37-6.74,5.87.41,11.84-.99,17.64.89-2.71,2.3,1.42,4.03.51,6.18-2.1,1.19-4.19,2.39-6.29,3.58Z" style="fill: #dda709;"/>
  <path d="M181,57.95c-.02,8-.04,15.99-.05,23.99-.47-.38-.95-.77-1.42-1.15-.42-2.84-1.07-5.52-4.48-6.2.86-4.14,2.12-8.39-3.89-9.91-1.87-.47-2.02-2.42-2.51-3.97,1.27.15,2.54.31,4.08.5.91-5.77,5.19-2.9,8.29-3.26Z" style="fill: #5b2917;"/>
  <path d="M68.23,73.25c.91-2.15-3.22-3.88-.51-6.18,2.74-.27,5.49-.54,8.23-.82-.6,6.33,3.21,4.46,6.5,3.33.98,6.72-3.04,8.9-8.84,9.65-.05-3.27-3.51-3.88-5.38-5.98Z" style="fill: #be4f27;"/>
  <path d="M125.99,5.05c.35,2.76-2.95,3.84-2.34,6.78-3.85-1.28-6.91-4.12-10.33.19-.68.86-4.97.3-8.08,2.27.69-2.88.12-5.22,2.01-6.6,2.47-1.8,2.82,2.28,4.95,2.06,2.38-.66,1.62-2.81,1.94-4.47,3.94-.72,7.89-.72,11.85-.23Z" style="fill: #a81a5c;"/>
  <path d="M139.96,5.88c.46,1.65-.4,2.92-1.22,4.19-4.55.55-1.35,5.29-3.78,6.98-3.9-2.6-7.34-5.47-5.97-10.95,3.61-2.06,7.29-1.11,10.97-.23Z" style="fill: #be4f27;"/>
  <path d="M55.43,135.02c-1.77-4.19-.98-5.61,5.04-9.04,1.21.06,2.41.13,3.62.19,1.23,1.68.96,5.29,4.74,3.68,0,0,.3.29.3.29-.12.78.03,1.7-1.02,2.01-1.14.04-3.09-.29-3.31.19-2.17,4.59-6.12,2.34-9.37,2.68Z" style="fill: #be4f27;"/>
  <path d="M181,57.95c-3.1.37-7.38-2.5-8.29,3.26-1.54-.19-2.81-.34-4.08-.49-.16-.91-.32-1.82-.48-2.74.89-1.05,2.9-.59,3.4-2.27-1.45-1.25-3.54.07-4.66-1.59.03-.69.07-1.39.1-2.08,5.23-1.42,9.32,2.36,14.08,3.09-.03.94-.05,1.88-.08,2.82Z" style="fill: #ad8a6c;"/>
  <path d="M157.13,182.21c-1.51-.67-3.36-1.17-2.12-3.48.86-1.59.13-4.16,2.97-4.57,2.18-.32,3.62.46,4.26,2.46.64,2,3.2,3.13,2.51,5.69-2.54-.03-5.08-.07-7.62-.1Z" style="fill: #5b2917;"/>
  <path d="M55.43,135.02c3.25-.34,7.2,1.91,9.37-2.68.23-.48,2.17-.15,3.31-.19-.39,3.17-3.11,4.43-5.13,6.26-3.47,2.52-4.81,1.92-7.55-3.39Z" style="fill: #dda709;"/>
  <path d="M179.52,80.79c.47.38.95.76,1.42,1.15.16,2.43.8,4.92-.96,7.08-1.38-.12-2.35-.83-2.99-2.04,1.23-.83-.24-1.7.03-2.54,1.26-.92-.24-3.73,2.5-3.65Z" style="fill: #ad8a6c;"/>
  <path d="M66.37,52.78c2.65,1.16,4.88,2.66,4.75,6.02-1.45,0-2.89,0-4.3,0-.93-2.13-.71-4.07-.45-6.02Z" style="fill: #ad8a6c;"/>
  <path d="M59.08,153.08c-2.97-1.98-2.56-3.99,1.23-5.97-.24,2.02-.22,4.1-1.23,5.97Z" style="fill: #be4f27;"/>
  <path d="M81.23,122.02c.32-1.42,1.39-1.88,2.67-2.08.35.44.7.88,1.06,1.33-.83,2.27-2.16,2.09-3.72.75Z" style="fill: #a81a5c;"/>
  <path d="M66.64,164.77c2.33,1.27,2.11,2.4-.2,3.4-.57-1.17-.46-2.3.2-3.4Z" style="fill: #ad8a6c;"/>
  <path d="M156.25,226.19c-6.01.09-11.17-5.05-11.15-11.09.02-5.1,5.32-11.15,9.92-10.81,7.95.59,11.37,3.42,11.93,10.57.49,6.27-4.48,11.23-10.71,11.32Z" style="fill: #fdfdfd;"/>
  <path d="M168.14,57.98c.16.91.33,1.83.48,2.74.49,1.54.64,3.49,2.51,3.96,6.02,1.52,4.75,5.76,3.89,9.91-.2.67-1.25,1.08-1.24.98.36-3.09-3.22-4.59-2.45-7.9-3.93.82-7.52.57-10.28,3.16-.61-.51-1.16-1.35-1.83-1.46-1.7-.28-1.95-3.48-4.43-2.07-2.27,1.28-.85,3.09-1.01,4.76-.21,2.18-.38,4.7-2.86,5.92-1.3.02-2.61.05-2.88-1.69-.42-4.24.54-8.83-3.04-12.29,2.15-.19,4.82.4,4.79-3.53-2.86-.85-5.39-.51-7.7,1.42-.82.11-1.6.06-2.16-.67,1.67-1.56.75-2.05-.92-2.21,0,0-.2-.31-.2-.31.52-.81.94-2.24,1.58-2.35,4.89-.8,8.74-4.08,13.39-5.39-.87,1.89-1.75,3.77-2.62,5.64.62.51.96,1,1.37,1.08.94.18,1.93.16,2.89.22,2.52-2.22,7.75-3.38,2.92-8.34-1.3-1.33-.18-3.15.65-4.62,1.5.33,3,.66,4.5.99,2.12-.04,2.57,1.28,2.48,3.04.02.65.03,1.29.04,1.94.31.36.63.72.94,1.08,0,0,.01.05.01.06-.03.69-.07,1.39-.1,2.08-2.13-.35-3.85.2-4.91,2.25,1.21,3.98,3.91,1.95,6.16,1.61Z" style="fill: #be4f27;"/>
  <path d="M64.09,126.16c-1.21-.06-2.42-.13-3.62-.19-1.11-1.14-2.19-2.19-3.07-3.66-1.39-2.34-3.08-5.29-6.99-3.24-1.39.73-3.58.72-4.39-1.02-1.08-2.32-2.28-4.83-1.33-7.52.37-1.05,1.23-1.93,1.87-2.88-1.32-2.69-5.46-5.51.38-7.85,3.14,4.37,2.76,9.64,3.79,14.88,2.36-1.2,4.44-2.91,7.52-2.81-1.27-2.31-2.19-4.15-4.52-4.04-1.43.07-2.37-.38-2.53-1.67-.17-1.38,1-1.91,2.15-2.3,3.77-1.3,7.62-2.1,11.63-1.92,0,0,.05.06.05.06.29.4.58.8.87,1.2,2.07,2.14.81,4.41.27,6.65-3.47-.05-5.58,2.35-7.99,4.73,1.53.26,1.61,2.06,2.76,2.93,3.92-3.47,8.25-2.89,10.16,1.27,1.75.13,3.41-1.62,5.45-.11.33,5.54-4.6,4.06-7.42,5.33-1.68.72-3.36,1.44-5.03,2.16Z" style="fill: #dda709;"/>
  <path d="M102.13,33.26c.02,6.15-4.56,10.85-10.61,10.86-6.08.02-10.74-4.68-10.69-10.77.05-6.13,4.78-11.05,10.59-11.01,5.9.03,10.68,4.91,10.71,10.93Z" style="fill: #fdfdfd;"/>
  <path d="M163.51,45.93c-1.5-.33-3-.66-4.5-.99-5.77-2.25-6.82-6.07-2.94-10.55.63-.73,1.15-1.55,1.72-2.32,2.25-1.07,2.79-3.97,5.19-4.87,2.27-.44,3.1,2.19,5.07,2.4,2.39,6.19-3.6,4.38-5.85,6.13-.84,1.6.59,2.29,1.31,3.26,2.56,2.32,1.91,4.63,0,6.94Z" style="fill: #a81a5c;"/>
  <path d="M64.99,101.95c-4.01-.18-7.86.62-11.63,1.92-1.15.4-2.32.92-2.15,2.3.16,1.29,1.1,1.74,2.53,1.67,2.33-.12,3.25,1.73,4.52,4.04-3.08-.1-5.16,1.61-7.52,2.81-1.03-5.24-.65-10.51-3.79-14.88-.26-2.06.66-3.06,2.72-3.04,1.79.01,3.58.02,5.37.02,3.41.92,6.52-1.65,9.92-.83,2.08,1.98-.26,3.99.03,5.99Z" style="fill: #be4f27;"/>
  <path d="M139.93,25.1c-.01,1.47,1.37,1.84,2.13,2.69-.11,1.85-2.46,2.99-1.33,5.41.66,1.41-1.15,2.28-2.38,2.61-1.29.34-2.93,1.73-4.01-.08-.91-1.52-2.41-2.2-3.59-3.3-2.82-2.64-3.78-5.53-.16-8.24,1.14-.85,1.48-1.64,1.25-2.89.71-.08,1.43-.16,2.14-.24,1.47,2.1,4.01,2.62,5.94,4.04Z" style="fill: #a81a5c;"/>
  <path d="M155.86,92.29c-1.37-.88-2.75-1.75-3.8-2.42-1.06.9-2.06,1.52-2.74,2.39-1.44,1.84-2.94,4.25-5.39,2.04-1.75-1.58-4.22-3.84-1.84-6.72,1.83-2.21,4.29-2.54,6.89-1.18.62.32.96,1.55,1.98.63,1.41-2.34,3.28-2.17,5.48-1.17,1.5.68,2.53,1.5,2.52,3.25-.01,2.06-1.28,2.89-3.1,3.19Z" style="fill: #dda709;"/>
  <path d="M150.7,96.91c2.58.29,4.86,1.82,5.35,5.29.38,2.68-1.5,3.44-3.59,3.68-2.42.28-6.43-3.38-6.44-5.68-.01-2.73,1.76-3.24,4.68-3.28Z" style="fill: #be4f27;"/>
  <path d="M64.95,95.96c-3.4-.82-6.51,1.75-9.92.83.84-4.18,6.36-8.61,10.97-8.81-.1,2.69.67,5.5-1.05,7.98Z" style="fill: #a81a5c;"/>
  <path d="M134.69,82.91c3.08-.36,2-3.61,4.43-4.46.63,1.72,1.86,2.86.05,5.25-3.06,4.02-5.73.78-8.19-.05-4.69-1.59.95-4.74-1.66-7.22h5.16c1.49,2.09-.54,4.17.21,6.48Z" style="fill: #be4f27;"/>
  <path d="M138.95,60.96c-1.33,1.82-1.59,4.32-4.05,5.88-1.29-2.48-5.86-1.75-5.68-5.7.1-2.24,2.26.22,3.17-.8.99-1.57-1.97-2.31-.62-4.2,2.68-.48,4.47,2.3,7.04,2.54,0,0,.2.31.2.31-.02.66-.04,1.31-.06,1.97Z" style="fill: #be4f27;"/>
  <path d="M155.86,92.29c1.82-.3,3.09-1.13,3.1-3.19.01-1.75-1.02-2.57-2.52-3.25-2.2-.99-4.07-1.16-5.48,1.17,0-1.02,0-2.05,0-3.07.05-.7.09-1.39.14-2.09,2.82,1.19,5.66,3.08,8.56-1.22.08,3.28,2.74,4.26,3.2,6.58-3.52,2.87-3.47,4.34.24,6.7,1.02,1.14,2.39.79,3.66.87-.55,1.49-1.99.97-3.04,1.34-2.92-.67-5.37-2.29-7.86-3.84Z" style="fill: #be4f27;"/>
  <path d="M151.11,81.87c-.05.7-.09,1.39-.14,2.09-.95-.12-1.54-1.11-2.73-.84-4.12.95-6.51-.89-6-4.94.53-4.2,3.65-1.89,5.8-1.9.27,1.75,1.58,1.71,2.88,1.69.06,1.3.12,2.6.18,3.9Z" style="fill: #dda709;"/>
  <path d="M83.86,119.08c-1.83-.13-3.51-.5-3.96-2.67,1.6-1.05.74-2.71.96-4.19,3.78-1.21,6.97-.12,9.95,1.84-1.12,4-7.15-.24-6.95,5.03Z" style="fill: #a81a5c;"/>
  <path d="M134.96,17.06c2.42-1.7-.78-6.44,3.78-6.98-1.08,3.72,2.41,6.4,2.25,9.91,0,0,.05-.04.05-.04-2.38-.09-4.84.39-7.04-1.01l.04.04c.31-.64.62-1.28.93-1.92Z" style="fill: #a81a5c;"/>
  <path d="M167.07,101.77c-.83,1.36-1.65,2.72-2.44,4-7.73-1.51-7.86-1.73-4.51-7.41.08.95.17,1.9.3,3.35,2.43-1.37,4.51-.27,6.65.06Z" style="fill: #dda709;"/>
  <path d="M167.07,101.77c-2.14-.33-4.22-1.43-6.65-.06-.13-1.44-.21-2.39-.3-3.35,1.12-.47,2.23-.94,3.34-1.41,1.62.19,3.04.68,3.56,2.47.02.78.03,1.56.05,2.34Z" style="fill: #be4f27;"/>
  <path d="M142.1,61.88c2.3-1.93,4.83-2.27,7.7-1.42.03,3.93-2.64,3.35-4.79,3.53-.97-.7-1.94-1.41-2.91-2.11Z" style="fill: #dda709;"/>
  <path d="M155.43,57.89c-.97-.06-1.95-.04-2.89-.22-.41-.08-.74-.57-1.37-1.08.87-1.87,1.74-3.75,2.62-5.64,1.53.35,2.43,1.5,3.32,2.55.46,1.91-2.14,2.55-1.68,4.39Z" style="fill: #dda709;"/>
  <path d="M111.8,35.74c-3.03-1.44-5.71-2.46-3.6-6.23q3.75,1.9,3.6,6.23Z" style="fill: #a81a5c;"/>
  <path d="M135.8,105.56c-3.25-1.87-3.16-4.32-2.41-7.35,3.86,1.56,2.44,4.43,2.41,7.35Z" style="fill: #ad8a6c;"/>
  <path d="M139.07,40.32c2.63-.89,4.97-1.69,7.65-2.6-1.67,5.03-2.8,5.38-7.65,2.6Z" style="fill: #a81a5c;"/>
  <path d="M133.98,21.06c-.71.08-1.43.16-2.14.24-.92-.36-2.33.13-2.61-1.81,1.46-1.02,3.16-.6,4.8-.51,0,0-.04-.04-.04-.04,0,.71,0,1.41-.01,2.12Z" style="fill: #be4f27;"/>
  <path d="M112.06,27.16c.81-2.73,1.84-3.2,3.61-2.79-.26,1.94-1.67,1.86-3.61,2.79Z" style="fill: #a81a5c;"/>
  <path d="M120.99,26.99c1.28,1.77,1.08,3.55.17,6.01-1.81-2.46.57-4.25-.14-6.04l-.02.03Z" style="fill: #a81a5c;"/>
  <path d="M121.01,26.96c-1.21-.22-2.29-.53-1.61-2.18,1.29.23,1.25,1.35,1.58,2.2,0,0,.02-.03.02-.03Z" style="fill: #a81a5c;"/>
  <path d="M138.95,60.96c.02-.66.04-1.31.06-1.97,1.68.17,2.59.65.92,2.21-.33-.08-.66-.17-.98-.25Z" style="fill: #dda709;"/>
  <path d="M65.91,103.21c-.29-.4-.58-.8-.87-1.2.63.15.89.58.87,1.2Z" style="fill: #be4f27;"/>
  <path d="M26.96,135.9c-1.61.09-2.05-1.53-3.16-2.16.14-3.58-1.6-5.99-4.72-7.53-.26-2.14.59-3.49,2.89-3.92,2.41,1.9.3,7.18,5.31,7.53.61-2.22-1.42-4.34.55-6.64,2.55,4.13,5.51,3.81,9.07,1.07,3.72-2.86,6.94.9,10.5,1.16-.01,1.97-2.8,1.63-2.4,3.56l-.05.06c-2.08,1.83-5.29,1.14-7.3,3.73-1.04,1.34-3.48.33-4.06-1.94-2,.55-3.04,1.73-3.77,3.26-1.3.07-2.24.7-2.86,1.83ZM41.43,127.57c-.29-.09-.63-.31-.81-.22-.21.11-.28.49-.41.76.25.08.58.3.73.21.23-.14.34-.48.5-.75Z" style="fill: #be4f27;"/>
  <path d="M24.9,116.04c-3.9-2.17-2.83-7.2-7.08-10.36,5.36.21,9.34.03,13.36-.67,6.1-1.07,8.32,2.8,5.6,8.89-2.16-1.74-4.95-.89-7.41-1.59-1.63-.46-4.77.35-4.47,3.74Z" style="fill: #be4f27;"/>
  <path d="M24.9,116.04c-.3-3.39,2.84-4.2,4.47-3.74,2.46.69,5.24-.16,7.41,1.59-2.81,2.35-5.18,5.61-9.68,4.28-1.23-.36-2.14-.71-2.2-2.13Z" style="fill: #dda709;"/>
  <path d="M46.84,89.28c-1.56,8.52-6.22,2.21-8.87,3.81q-1.36-5.94,1.21-7.92c2.02,2.01,2.56,6.36,7.66,4.11Z" style="fill: #be4f27;"/>
  <path d="M45.01,128.96c1.46-.79,3.1-1.8,4.44-.23,1.27,1.49.85,3.51.25,5.18-.53,1.48-1.95,2.31-3.57,1.6-2.18-.97-3.47,1.64-5.79,1.12-.26-3.64,5.65-3.67,4.62-7.61,0,0,.05-.06.05-.06Z" style="fill: #be4f27;"/>
  <path d="M19.09,126.21c3.12,1.54,4.86,3.95,4.72,7.53-4.82-1.42-6.2-3.64-4.72-7.53Z" style="fill: #dda709;"/>
  <path d="M26.96,135.9c.62-1.13,1.57-1.76,2.86-1.83,1.06.62,2.13,1.24,3.2,1.87-3.18,4.33-3.64,4.3-6.07-.04Z" style="fill: #a81a5c;"/>
  <path d="M35.69,103.61c3.62-1.47,5.62.75,8.14,2.79-4.18,2-5.08-3.14-8.14-2.79Z" style="fill: #be4f27;"/>
  <path d="M35.98,135c-.24.63-.55,1.1-1.34.61.12-.93.84-.54,1.34-.61h0Z" style="fill: #be4f27;"/>
  <polygon points="47.46 94.3 47.56 94.56 47.3 94.52 47.46 94.3" style="fill: #be4f27;"/>
  <path d="M35.98,135c.08-.14.15-.28.23-.42-.08.14-.15.28-.23.42,0,0,0,0,0,0Z" style="fill: #be4f27;"/>
  <path d="M83.61,92.41c-1.89.57-3.14,1.88-5.2,1.21-.73-2.43-1.49-4.98-2.44-8.15,2.8,2.54,4.97,4.51,7.64,6.94Z" style="fill: #5b2917;"/>
  <path d="M102.59,94.04c.97,3-.7,3.57-2.6,3.93-1.97.37-3.18-.31-3.33-2.62,1.89-.42,3.76-.83,5.93-1.31Z" style="fill: #5b2917;"/>
  <path d="M41.99,81c1.08-2.23,1.41-5.06,4.64-6.14,1.2,2.25-.34,4.55,1.35,5.94-2.38,2.36-4.13-.23-6,.18,0,0,.01.01.01.01Z" style="fill: #5b2917;"/>
  <path d="M133.98,21.06c0-.71,0-1.41.01-2.12,2.19,1.4,4.66.91,7.04,1.01-.37,1.71-.73,3.43-1.1,5.14-1.93-1.42-4.48-1.93-5.94-4.03Z" style="fill: #5b2917;"/>
  <path d="M160.24,18.98c-.16.64-.32,1.27-.49,1.91-1.66-.18-2.89-.76-2.64-2.76.11-.87.41-1.73,1.4-1.71,1.62.04,1.41,1.52,1.73,2.56Z" style="fill: #5b2917;"/>
  <path d="M150.07,12.02c-1.46.11-2.19-.51-1.99-2.03,1.34.02,2.03.67,1.99,2.03Z" style="fill: #dda709;"/>
  <path d="M163.51,45.93c1.91-2.31,2.56-4.63,0-6.94,3.54-.23,6.6.01,6.9,4.75.12,1.87,1.75,2.93,3.66,2.15,2.87-1.17,3.01.55,3.08,2.48-3.65,1.97-7.5-.69-11.16.6.09-1.76-.36-3.09-2.48-3.04Z" style="fill: #ad8a6c;"/>
  <path d="M166.98,51.99c-.31-.36-.63-.72-.94-1.08.31.36.63.72.94,1.08Z" style="fill: #ad8a6c;"/>
  <path d="M151.11,81.87c-.06-1.3-.12-2.6-.18-3.9,2.48-1.22,2.66-3.74,2.86-5.92.16-1.67-1.26-3.48,1.01-4.76,2.48-1.4,2.72,1.79,4.43,2.07.67.11,1.23.95,1.84,1.46,5.04-.3,4.1,3.55,4.19,6.23,2.08,1.67,6.37-.53,5.91,4.12-2.16,1.33-.56,2.1.27,3.32,1.02,1.51,3.66,1.01,3.81,3.35.24,1.71.73,3.51-1.82,4.48-1.21-1-2.27-2.93-4.5-2.39-.33-1.3.94-3.2-1.17-3.82-1.71-.5-2.04,1.34-2.97,2.16-.63-.35-1.27-.71-1.9-1.06-.46-2.32-3.12-3.3-3.2-6.58-2.9,4.3-5.75,2.41-8.56,1.22Z" style="fill: #5b2917;"/>
  <path d="M175.24,87.86c-.15-2.34-2.79-1.84-3.81-3.35-.83-1.22-2.43-2-.27-3.32,1.76,1.43,3.54,2.83,5.86,3.25-.27.84,1.2,1.71-.03,2.54-.58.29-1.17.58-1.75.88Z" style="fill: #be4f27;"/>
  <path d="M164.77,88.29c.93-.82,1.26-2.66,2.97-2.16,2.11.62.84,2.52,1.17,3.82-2.4,2-3.35.36-4.15-1.66Z" style="fill: #be4f27;"/>
  <path d="M166.77,94.8c-1.27-.07-2.64.28-3.66-.87,1.45-.69,3.06-2.04,3.66.87Z" style="fill: #5b2917;"/>
  <path d="M64.09,126.16c1.68-.72,3.36-1.44,5.03-2.16,2.65,2.09.1,3.91-.3,5.84-3.78,1.61-3.51-2-4.74-3.68Z" style="fill: #5b2917;"/>
  <path d="M177.02,84.44c-2.32-.43-4.1-1.82-5.86-3.25.46-4.65-3.82-2.46-5.91-4.12-.09-2.68.84-6.53-4.19-6.23,2.77-2.58,6.35-2.33,10.28-3.16-.77,3.31,2.81,4.8,2.45,7.9-.01.11,1.04-.31,1.24-.98,3.42.68,4.07,3.36,4.48,6.2-2.73-.09-1.23,2.73-2.5,3.65Z" style="fill: #dda709;"/>
  <path d="M168.14,57.98c-2.26.34-4.95,2.37-6.16-1.61,1.06-2.05,2.77-2.6,4.91-2.25,1.11,1.65,3.2.34,4.65,1.59-.5,1.68-2.51,1.22-3.4,2.27Z" style="fill: #dda709;"/>
  <path d="M41.43,127.57c-.16.26-.27.61-.5.75-.15.09-.48-.13-.73-.21.13-.27.2-.65.41-.76.18-.09.53.13.81.22Z" style="fill: #5b2917;"/>
</svg>