<?xml version="1.0" encoding="UTF-8"?>
<svg id="Layer_1" xmlns="http://www.w3.org/2000/svg" viewBox="0 0 400 400">
  <path d="M2.48,202.59c.94-56.98,19.59-103.91,57.9-141.84C106.57,15.02,162.78-3.49,227.35,4.64c25.27,3.18,48.7,11.83,70.97,24.54,24.33,13.89,44.79,31.8,60.93,54.37,35.85,50.15,46.42,105.53,31.95,165.46-5.99,24.82-16.74,47.68-32.23,68-9.73,12.77-20.17,25.07-32.94,35.07-19.93,15.6-41.11,28.95-65.83,35.61-6.67,1.8-13.48,2.52-18.88-3.66-7.19-8.24-5.54-22.02,3.43-28.12,5.03-3.42,10.85-5.01,16.31-7.43,56.16-24.85,89.61-67.56,97.88-128.38,6.63-48.78-7.64-92.03-40.83-128.51-53.8-59.15-143.89-69.69-209.05-23.47-51.96,36.85-74.51,88.15-68.11,151.56,3.67,36.38,19.71,67.34,45.08,93.37,15.76,16.17,34.38,28.32,55.52,36.49,3.57,1.38,7.12,2.84,10.59,4.45,13.71,6.37,12.85,19.39,7.92,28.22-3.52,6.31-10.71,8.18-20.4,5.42-25.75-7.34-48.4-20.52-68.42-38.02C25.91,309.96,3.74,259.53,2.48,202.59Z" style="fill: #1e87db;"/>
  <path d="M318.15,194.06c.31,55.05-32.46,101.87-77.7,116.92-10.17,3.39-14.71,1.69-17.69-6.61-4.03-11.21-1.66-17.68,8.23-21.44,19.07-7.26,34.3-19.38,44.51-36.95,17.73-30.51,18.17-61.82-.22-91.96-18.41-30.17-46.53-44.47-81.73-41.89-35.89,2.64-61.77,21.56-75.26,54.8-13.17,32.44-7.67,63.09,14.45,90.43,9.54,11.79,21.86,19.86,35.87,25.41,11.59,4.59,14.43,19.09,5.28,27.56-3.17,2.94-7.08,2.68-10.87,1.7-7.31-1.89-14.04-5.22-20.6-8.84-49-27.1-72.14-86.32-54.55-139.45,25.1-75.78,113.89-105.99,179.51-60.54,33.46,23.18,49.56,56.25,50.77,90.86Z" style="fill: #fece0a;"/>
  <path d="M238.75,200.25c-.29,21.5-17.93,38.89-39.11,38.56-21.36-.33-38.72-18.22-38.24-39.41.47-21.19,17.93-38.18,39.12-38.08,20.88.1,38.52,18.05,38.23,38.93Z" style="fill: #1e87db;"/>
</svg>