<?xml version="1.0" encoding="UTF-8"?>
<svg id="Layer_1" data-name="Layer 1" xmlns="http://www.w3.org/2000/svg" viewBox="0 0 1199.97 1323.79">
  <defs>
    <style>
      .cls-1 {
        fill: #53565b;
      }

      .cls-2 {
        fill: #fe6d03;
      }

      .cls-3 {
        fill: #fe6e05;
      }

      .cls-4 {
        fill: #55585d;
      }
    </style>
  </defs>
  <path class="cls-1" d="M1199.97,1042.83c-18.72,5.54-37.84,6.74-57.17,4.95-10.14-.94-20.25-2.11-30.17,1.07-4.4,1.41-8.93,2.81-12.87,5.12-7.51,4.41-15.45,5.38-23.94,5.19-26.65-.6-53.32-1.59-79.96-1.03-15.72.33-31.38,3.39-47.08,5.11-11.74,1.29-23.47,2.9-35.24,3.45-13.63.63-26.74-2.54-39.07-8.36-8.14-3.85-9.46-7.03-6.49-15.54,5.04-14.48.66-13.62-10.04-14.98-25.7-3.26-50.68,1.84-75.7,6.51-13.46,2.51-26.98,4.71-40.47.67-13.38-4-23.95-12.43-32.13-23.41-13.04-17.52-28.14-32.93-45.46-46.07-22.47-17.05-40.63-38.28-59.56-58.91-14.72-16.05-21.14-35.35-26-55.59-1.18-4.9-.69-10.27-.57-15.41.08-3.22,5.31-5.97,9.82-6.86,7.76-1.54,15.4-3.67,23.03-5.79,1.85-.51,3.84-1.62,5.03-3.07,1.11-1.35,1.84-3.6,1.56-5.25-.13-.8-2.94-1.6-4.55-1.64-7.61-.18-15.26.26-22.84-.27-3.79-.27-7.46-2.16-11.64-3.46,3.01-4.98,6.24-7.26,11.21-8.66,8.69-2.45,17-6.29,25.34-9.85,1.19-.51,1.69-2.66,2.51-4.05-1.34-.61-2.63-1.57-4.02-1.77-7.55-1.09-15.2-1.63-22.67-3.12-3.53-.71-6.72-3.13-10.06-4.78-.07-.6-.14-1.2-.22-1.79,3.29-2,6.55-4.04,9.88-5.98,7.56-4.41,15.28-8.57,22.65-13.27,1.8-1.15,2.5-4,3.76-6.15-10.82-1.37-20.55-2.43-30.2-3.98-2.02-.32-3.75-2.44-5.62-3.73,1.93-1.83,3.59-4.7,5.84-5.29,6.88-1.81,14.03-2.58,21-4.07,3.75-.81,9.22-1.1,8.82-6.22-.4-5.09-5.6-4.41-9.59-4.72-6.46-.5-12.96-1.04-19.3-2.28-2.6-.51-4.83-2.88-7.23-4.41.05-.55.11-1.11.16-1.66,2.62-1.17,5.14-2.76,7.89-3.44,6.43-1.6,12.97-2.77,19.47-4.11.16-.03.34,0,.5-.06,3.27-1.09,7.53-1.66,7.47-6.03-.06-4.38-4.3-5.03-7.65-5.79-5.33-1.21-10.81-1.82-16.08-3.25-3.16-.86-6.04-2.79-9.04-4.24.06-.66.12-1.33.17-1.99,4.78-1.54,9.54-3.12,14.33-4.63,3.79-1.19,7.69-2.08,11.37-3.54,2.97-1.17,5.05-3.29,3.17-7.55-5.91-.32-12.04-.55-18.15-1-4.61-.34-9.47-.47-11.71-6.69,2.72-1.17,5.34-2.38,8.03-3.45,5.23-2.09,10.62-3.82,15.65-6.29,1.75-.86,3.02-3.32,3.68-5.33.17-.53-2.62-2.45-4.29-3.08-5.11-1.92-10.49-3.19-15.45-5.42-2.27-1.02-3.78-3.7-5.64-5.63,1.88-1.37,3.59-3.12,5.67-4.02,2.7-1.17,5.7-1.66,9.45-2.69-2.85-5.91-4.55-11.91-10.8-15.46-13.71-7.79-27.58-15.38-40.7-24.09-17.64-11.72-32.11-26.62-38.55-47.48-6.25-20.26-4.88-39.99,5.88-58.71,5.97-10.37,4.5-8.39-1.62-15.8-4.44-5.38-9.31-10.53-14.67-14.96-3.6-2.97-8.17-5.48-12.69-6.5-13.74-3.09-27.65-5.54-41.54-7.9-11.04-1.87-19.72,8.44-17.02,19.51,1.89,7.73,3.17,15.6,5.05,23.33.34,1.42,2.02,3.04,3.46,3.57,8.82,3.27,17.96,5.76,26.56,9.49,7.08,3.07,12.31,8.8,14.1,16.54,3.58,15.49,7.15,31.01,9.87,46.67,2.75,15.87,4.68,31.89,6.58,47.89,2.41,20.27-1.25,38.56-18.91,51.47-7.29,5.33-15.73,8.08-24.72,7.95-7.76-.12-15.62-.57-23.21-2.04-8.2-1.59-13.55-7-16.11-15.29-4.25-13.77-8.92-27.41-13.43-41.1-.41-1.24-.89-2.45-1.69-4.63-14.34,4.58-28.9,8.11-42.55,13.85-23.21,9.76-45.94,20.68-68.68,31.52-37.85,18.03-77.31,30.78-118.87,36.51-32.42,4.47-64.68,4.15-96.31-5.7-2.21-.69-4.38-1.53-6.6-2.18-17.6-5.13-24.94-17.73-27.54-35.13-5.88-39.34,2.55-76.25,17.25-112.29,3.5-8.58,9.1-15.53,17.42-19.83,24.01-12.41,49.32-16.49,75.86-10.66,14.64,3.21,20.47,10.7,20.6,25.68.09,10.16-.25,20.32-.36,30.47-.02,1.45.13,2.9.26,5.52,12.4,0,24.5,0,36.6,0,31.92-.02,59.64-12.82,86.38-28.52,16.47-9.67,32.87-19.45,49.23-29.29,7.68-4.62,14.68-10.14,17-19.32.77-3.05,1.08-7.87-.66-9.55-3.22-3.11-6.59.33-9.39,2.71-4.96,4.2-10.2,8.1-14.8,12.66-5.18,5.13-11.64,5.93-18.24,6.64-1.01.11-2.12-.76-4.13-1.55,5.34-3.59,9.84-6.33,14.01-9.52,3.55-2.72,6.99-5.69,9.95-9.02,3.02-3.39,1.94-6.6-2.48-7.85-10.27-2.91-19.03.76-26.79,7.13-11.01,9.04-15.14,21.9-18.42,35.06-1.04,4.17-.97,8.65-2.3,12.69-.84,2.56-3.34,4.58-5.9,7.88-5.06-17.97-2.91-33.29,4.71-48.01,2.66-5.14,2.14-9.35-1.51-11.4-2.72-1.52-5.05-1.6-6.35,1.89-8.67,23.41-28.68,34.91-48.86,46.09-1.42.79-4.61.36-5.8-.75-5.67-5.32-11.39-10.72-16.23-16.77-5.7-7.13-10.61-14.89-15.66-22.51-3.11-4.69-7.07-6.15-12.7-5.84-8.76.48-17.64.56-26.36-.32-11.71-1.19-20.6-7.69-27.55-17.1-7.81-10.58-9.83-10.55-19.28-1.56-6.87,6.54-14.02,12.79-21.2,19-5.12,4.42-8.64,3.46-10.76-2.93-6.6-19.94-9.31-40.42-7.91-61.4.17-2.49.03-5.05.56-7.47,1.62-7.42-2.07-11.69-8.05-15.13-8.77-5.04-17.62-10.01-25.95-15.73C16.46,358.43,7.13,349.75,0,338.95v-3c2.59-5.55,7.49-8.01,12.92-9.98,16.57-6.03,33.35-4.58,50.2-1.75,12.54,2.1,17.14-2.05,16.16-14.65-.1-1.33-.16-2.66-.28-3.99-1.69-18.94,3.21-35.89,17.12-49.06,13.11-12.43,12.44-26.97,8.67-42.38-.4-1.64-2.66-3.66-4.36-3.99-10.23-2.01-19.33,4.3-21.5,14.53-2.53,11.92-5.73,23.63-13.38,33.42-6.34,8.13-13.09,15.94-19.72,23.84-5.1,6.09-6.66,6.36-13.28,1.75-29.14-20.31-30.56-56.3-10.14-83.98.64-.86,1.89-1.28,2.85-1.9.37.26.73.51,1.1.77-.58,2.68-1.05,5.38-1.76,8.02-2.34,8.79-5.58,17.44-6.97,26.37-2.22,14.28,2.48,26.89,12.21,37.54,2.67,2.93,5.49,4.07,8.84.48,5.11-5.48,10.63-10.57,15.75-16.05,5.81-6.22,11.37-12.73,13.09-21.42,2.1-10.56-.23-20.84-2.51-31.06-1.05-4.69-2.78-4.98-6.31-1.63-7.35,6.96-11.68,15.56-14.22,25.25-.65,2.48-2.19,4.72-3.32,7.07-.58-.16-1.16-.32-1.74-.47,0-3.55-.49-7.19.09-10.64,1.8-10.62,5.47-20.39,13.01-28.56,4.09-4.42,2.99-7.06-2.75-8.95-5.66-1.86-11.47-3.35-16.98-5.59C18.83,173.27,6.67,165.29,0,150.98,0,149.64,0,148.31,0,146.98c1.5-1.92,2.66-4.34,4.56-5.68,18.47-13.01,36.6-26.82,60.79-28.42-.42-1.64-.71-2.89-1.06-4.12-4.28-15.48-8.67-30.94-12.83-46.46-3.63-13.55-6.36-27.1-.61-40.93,1.38-3.32,3.03-4.76,6.16-3.92,5.41,1.44,10.93,2.82,15.99,5.14,5.55,2.55,10.61,6.17,15.93,9.25,3.53,2.04,6.68,1.67,9.08-1.9C106.53,17.23,116.93,6.59,131,0,133,0,135,0,137,0c2.75,3.22,6.04,6.13,8.14,9.73,5.09,8.74,9.67,17.78,14.38,26.74,6.32,12,12.46,13.82,23.45,6.2,10.11-7.01,19.93-14.44,29.75-21.85,8.66-6.53,12.07-6.81,20.91-.51,9.34,6.67,16.75,15.12,22.52,25.06.7,1.21,3.19,2.75,3.89,2.37,5.95-3.23,12.17-6.29,17.26-10.63,2.42-2.06,2.59-6.78,3.71-10.31C284.39,16.11,286.62,4.66,298.99,0c2.33,0,4.67,0,7,0,11.77,6.63,23.52,13.3,35.32,19.86,6.99,3.89,8.15,3.66,12.45-2.98,3.6-5.55,8-10,14.87-10.47,24.69-1.71,47.34,2.87,64.83,22.22,5.83,6.44,6.01,6.14,12.74,1.08,4.08-3.06,9.13-5.93,14.04-6.56,9.67-1.23,19.56-1.24,29.34-.99,6.06.16,10.2-2,13.33-6.86C507.21,8.65,512.63,3.24,519.99,0h8c18.58,7.41,29.98,22.2,39.97,38.43-3.1,3.34-5.43,2.78-8.5-.05-10.38-9.56-22.36-16.62-35.69-21.32-8.79-3.1-13.04.25-11.55,9.39,1.25,7.69,3.21,15.27,4.42,22.96,2.29,14.56,9.15,25.77,22.52,32.67,1.05.54,1.51,2.23,2.75,4.18-2.59-.27-3.9-.37-5.19-.56-1.31-.19-2.61-.58-3.93-.69-19.9-1.66-36.61,7.94-53.85,15.5-3.29,1.44-2.17,3.96-.06,6,5.38,5.22,10.55,10.68,16.18,15.62,10.61,9.32,22.9,15.58,37.26,13.58,11.38-1.59,22.7-4.68,33.58-8.44,11.75-4.06,21.66-1.55,30.66,5.84,8.36,6.86,16.34,14.22,24.28,21.58,7.43,6.88,8.58,13.02,3.88,21.86-7.4,13.92-15.07,27.7-22.79,41.46-1.28,2.29-3.39,4.11-5.21,6.25-4.93-6.02-4.99-8.77-1-14.44,8.63-12.27,14.28-25.79,16.55-40.64,1.56-10.18-4.8-15.6-14.74-12.64-3.17.94-6.23,2.25-9.34,3.41-3.19,1.19-5.15.64-6.42-3.03-1.51-4.36-3.72-8.51-5.88-12.61-2.42-4.61-4.84-5.12-9.3-2.61-27.35,15.37-33.52,42.96-31.29,68.24.18,2.07,1.75,4.02,2.75,6.18,5.88-3.2,6.47-8.75,7.64-13.51,2.14-8.67,3.48-17.55,4.94-26.38.74-4.44,3.06-5.15,6.69-3.45,1.78.83,3.63,1.72,5.08,3,2.15,1.9,2.78,3.85.78,6.85-3.48,5.22-6.54,10.79-9.12,16.52-3.67,8.15-6.41,16.73-10.28,24.78-1.24,2.58-4.64,5.32-7.33,5.64-2.38.28-6.46-2.07-7.53-4.33-6.28-13.28-13.63-26.1-16.12-41.02-1.49-8.89-3.46-18.28-7.76-26.02-12.07-21.72-28.39-40.16-47.79-55.81-2.23-1.8-3.96-4.24-6.5-7.02,4.5-2.06,8-3.97,11.7-5.29,29.99-10.66,24.68-10.84,37.98-31.96,5.52-8.76,4.77-13.07-3.03-19.93-10.56-9.3-25.78-10.87-38.1-3.94-11.54,6.49-20.53,24.83-18.16,37.03.71,3.65,2.67,4.95,6,2.95,2.41-1.44,4.6-3.26,6.92-4.86,7.53-5.16,15.07-10.29,22.61-15.43-3.6,10.53-10.01,18.4-19.01,23.99-5.92,3.68-12.03,7.06-18.08,10.53-5.39,3.09-7.7,2.42-8.5-3.75-.98-7.54-.87-15.24-1.07-22.87-.4-15.14-6.22-27.76-19.01-35.92-7.74-4.94-16.68-8.04-25.22-11.63-1.03-.43-3.38.9-4.39,2.05-4.12,4.69-3.91,10.47-3.09,16.12,1.74,11.99,4.09,23.9,5.54,35.92,1.02,8.47,5.99,12.49,13.45,14.6,5.78,1.64,9.77-1.52,9.18-7.59-.23-2.41-1.2-4.83-2.25-7.05-3.11-6.6-6.51-13.07-9.62-19.66-.93-1.97-1.3-4.21-1.93-6.32.37-.24.75-.48,1.12-.72,1.38,1.06,2.95,1.94,4.11,3.2,10.21,11.16,18.11,23.76,23.08,38.1,2.38,6.86.45,9.35-6.76,10.13-13.54,1.47-27.09,2.96-40.55,5.04-21.03,3.25-33.1,16.85-39.96,36.02-.48,1.34-.59,2.81-.95,4.56,12.78.92,24.72-1.2,36.58-3.68,11.54-2.42,22.18-6.37,29.32-16.9,2.73-4.03,6.9-7.2,10.74-10.35,3.9-3.19,8.29-3.55,13.05-1.31,15.16,7.12,28.64,16.67,38.83,29.87,8.43,10.92,15.32,23.03,22.89,34.61-.41.58-.82,1.17-1.23,1.75-4.37-1.12-8.71-2.41-13.13-3.33-4.96-1.04-7.72-4.02-9.12-8.75-1.09-3.64-2.45-7.21-3.83-10.76-2.01-5.14-3.53-5.85-8.76-4.01-3.59,1.27-7.19,2.58-10.61,4.23-4.09,1.97-5.69.42-6.53-3.56-1.23-5.84-2.49-11.7-4.29-17.37-1.88-5.94-5.13-7.21-10.7-4.41-17.19,8.64-28.29,22.44-32.9,41.02-3.07,12.37-.49,24.82,1.34,37.15,1.57,10.54,7.24,17.21,17.91,20.14,15.81,4.33,31.42,9.41,47.08,14.28,1.4.43,2.53,1.71,3.79,2.59-.92,1.27-1.59,2.93-2.81,3.74-5.7,3.73-11.54,7.24-17.36,10.78-5.88,3.58-6.62,3.42-10.03-2.51-4.62-8.06-11.13-14.02-19.57-17.85-5.5-2.5-6.93-1.98-9.07,3.48-2.11,5.4-4.02,10.88-6.03,16.32-2.46,6.67-3.58,6.96-9.41,2.64-16.57-12.27-35.01-11.96-53.87-7.62-5.07,1.17-6.76,4.55-5.85,9.43,2,10.73,6.61,20.12,14.43,27.88,8.16,8.1,17.99,13.58,28.32,18.28,5.63,2.56,7.85,1.91,11.24-3.11,2.84-4.2,2.51-7.73-1.7-11.44-2.97-2.62-6.38-4.78-9.7-6.97-5.97-3.93-12.08-7.64-17.99-11.65-1.49-1.01-2.45-2.8-3.66-4.23,1.95-1.37,3.74-3.43,5.88-3.9,2.22-.49,5.13-.08,7.13,1.04,5.34,2.98,10.75,6.09,15.42,9.99,7.52,6.3,14.36,13.41,21.71,19.92,4.06,3.59,6.28,2.89,7.87-2.34,2.17-7.13,3.91-14.39,5.92-21.57.54-1.92,1.38-3.76,2.58-6.95,1.35,2.32,2.14,3.29,2.53,4.41,4.78,13.41,3.21,26.56-2.44,39.22-1.05,2.36-4.81,5.21-7.1,5.04-16.84-1.29-32.61,3.17-48.42,7.84-7.55,2.23-15.12,2.1-22.43-1.1-1.57-.69-2.85-2.04-4.26-3.08.17-.52.34-1.05.5-1.57,8.54-.81,17.07-1.62,26.29-2.5-7.36-10.01-16.12-13.79-25.89-10.2-8.19,3.01-15.86,7.53-23.52,11.8-1.29.72-2.24,3.82-1.84,5.46,2.01,8.2,6.37,15.39,15.19,16.63,12.36,1.74,25.03,4.42,37.16-1.92,5.28-2.76,10.73-5.31,16.34-7.27,2.29-.8,5.21.21,7.85.4-1.26,2.43-2.45,4.9-3.84,7.25-.37.63-1.38.87-2.1,1.29-6.13,3.66-12.41,7.09-18.31,11.09-2.27,1.54-3.67,4.36-5.47,6.6,2.51,2.02,5.02,4.04,7.55,6.04.24.19.63.18.96.26,7.28,1.65,14.51,3.54,21.84,4.9,13.32,2.48,17.84-.59,22.06-13.64,2.24-6.92,4.83-13.76,7.79-20.4,1.77-3.97,4.39-3.95,6.56-.19,9.05,15.67,18.01,31.4,26.85,47.19,2.01,3.6.84,5.39-3.26,5.11-6.13-.42-12.24-1.22-18.35-1.93-23.03-2.68-46.48-3.64-67.2-16.03-1.13-.68-2.39-1.16-3.62-1.65-8.13-3.17-16.46-5.09-25.3-4.37-8.72.71-13.36,6.39-10.62,14.56,4.96,14.75,10.29,29.41,16.03,43.87,3.59,9.04,17.06,14.9,26.16,11.88-5.6-14.87-14.01-28.58-18.38-44.02,1.7.81,2.87,1.9,3.75,3.19,7.09,10.46,14.19,20.91,21.16,31.46,2.37,3.59,4.52,7.35,6.47,11.19,1.81,3.55.29,6.33-3.17,7.58-2.25.81-4.91,1.11-7.29.84-19.8-2.25-38.37-8.92-56.63-16.42-2.43-1-5.78-4.86-5.37-6.6.87-3.7,4.75-1.8,7.66-1.58,3.09.24,8.21.83,8.98-.6,2.12-3.93-1.82-6.76-4.4-9.51-.45-.48-1.01-.94-1.61-1.16-11.44-4.3-22.73-9.1-34.4-12.63-6.65-2.01-9.95,2.05-7.79,8.78,1.86,5.81,4.8,11.27,6.99,16.98,1.06,2.77,1.51,5.77,2.34,9.1-9.71.48-17.27-2.9-25.05-5.72-10.13-3.67-15.61-10.21-15.2-21.25.29-7.82.17-15.66.75-23.45.39-5.31,2.72-7.17,6.87-6.24,20.27,4.54,40.41,9.46,58.12,21.07,1.52.99,3.17,1.92,4.89,2.43,3.46,1.03,5.48,0,5.14-4.1-.52-6.34-3.94-10.3-9.61-12.76-16.43-7.13-32.82-14.33-49.22-21.52-6.12-2.68-6.72-4.04-3.49-9.66,6.18-10.77,8.38-22.25,7.12-34.56-.2-1.96.81-4.03,1.3-6.21,5.95,2.01,7.33,5.97,8.67,10.52,1.61,5.47,3.37,11.35,6.76,15.74,5.98,7.73,13.17,14.53,20,21.58,4.5,4.65,10.32,5.06,16.26,4.07,4.08-.68,8.16-1.59,12.1-2.84,2.53-.8,4.81-2.39,8.74-4.42-5.44-3.06-9.32-5.51-13.44-7.47-4.03-1.92-8.43-3.04-12.42-5.03-8.18-4.08-12.72-10.69-11.85-20.07.38-4.07,1.49-8.13,2.72-12.06,6.37-20.37,15.22-40.1,15.33-62.03.02-3.64,2.69-4.63,5.79-4.84,9.47-.65,18.93-1.66,28.41-1.79,7.24-.09,13.33-2.62,17.64-7.86,6.61-8.04,12.35-16.8,18.49-25.3-7.15-5.93-14.56-5.98-22.5-4.27,1.29-3.99,2.45-7.61,3.63-11.22,3.01-9.23,2.43-18.34-1.09-27.28-2.27-5.76-5.75-6.77-10.33-2.92-8.05,6.77-14.37,14.77-16.66,25.36-1.47,6.81-3.09,13.59-4.3,20.44-.7,3.96-.73,8.05-1.11,12.64,8.3-3.52,13.64-12.46,23.76-7.92-7.41,5.69-15.09,10.84-22.99,15.63-1.59.96-4.78,1.45-5.86.54-1.39-1.18-1.58-3.96-1.94-6.11-.18-1.06.51-2.24.66-3.38,1.03-7.88,3.69-15.98,2.71-23.6-2.74-21.24-10.04-41.17-21.44-59.47-3.54-5.69-6.49-6.17-11.49-1.56-6.74,6.21-11.54,13.78-14.42,22.42-2.51,7.53-4.79,15.18-6.55,22.92-1.23,5.4-4.43,8.62-10.23,12.03-.18-3.04-.77-5.28-.34-7.29.94-4.36,2.61-8.56,3.64-12.91,2.57-10.87-1.56-21.84-10.34-27.29-3.65,2.92-7.58,5.74-11.14,8.97-9.22,8.37-10.57,17.76-4.43,28.61,7.94,14.03,7.04,28.8,3.45,43.86-1.12-2.15-1.77-4.41-2.08-6.71-2.05-15.04-4.67-29.81-14.07-42.5-2.2-2.96-3.36-6.84-4.43-10.46-1.92-6.49-.63-12.18,5.39-16.13,3.06-2.01,6.07-4.11,9.25-5.89,5.99-3.34,9.71-8.3,11.7-14.83,2.71-8.88,9-15.07,16.51-19.9,1.99-1.28,5.74-1.7,7.81-.7,17.64,8.54,36.24,10.34,55.43,8.82,8.26-.65,16.13-1.6,17.6-12.2.14-1.03,2.31-2.39,3.65-2.54,13.29-1.49,21.96-7.96,24.13-21.11,2.67-16.14,2.71-32.49-3.6-48.13-.7-1.74-2.13-3.18-3.22-4.76-1.49,1.18-3.43,2.06-4.4,3.57-8.42,13.13-16.86,26.26-24.86,39.65-2.35,3.94-3.88,3.49-6.63.83-3.11-3-6.17-6.27-9.86-8.38-6.46-3.71-9.11-18.29-4.45-27.51,2.04,3.29,4.06,6.08,5.58,9.11,1.77,3.54,2.78,7.49,4.72,10.93,3.11,5.53,7.81,5.56,11.21.25,3.7-5.77,5.87-15.28.15-22.91-5.95-7.93-13.28-14.01-22.54-17.48-10.86-4.07-20.72,2.02-21,13.69-.15,6.54,2.09,13.13,3.25,19.69-.05.85-1.61,1.77-3.21,2.64-13.45,7.28-25.36,16.42-35.23,28.23-3.56,4.26-5.09,8.07-2.31,13.48,2.73,5.32,1.68,8.61-3.71,11.72-5.71,3.29-11.87,5.82-17.92,8.46-1.12.49-2.7-.07-4.32-.16,6.59-14.4,12.88-27.93,18.95-41.55,1.19-2.67,2.12-5.67,2.26-8.56.6-12.06-9.72-24.24-23.37-28.21-5.47-1.59-10.3-.61-14.26,3.36-10.63,10.65-15.09,23.66-13.79,38.55,1.02,11.72,5.79,22.02,12.66,31.47,3.18,4.37,2.5,6.36-2.11,6.8-8.61.83-17.23,1.75-25.87,2.03-16.21.53-30.45,4.92-40.47,18.72-2.14,2.94-5.08,3.9-8.28,1.86-8.5-5.43-16.38-3.35-24.96.5-11.58,5.19-23.69,9.23-35.67,13.47-3.24,1.14-6.93,1.49-10.25-2.64,2.59-1.35,4.85-2.98,7.38-3.77,6.16-1.92,12.48-3.36,18.66-5.21,1.62-.49,3.49-1.45,4.39-2.77,2.96-4.37.3-8.99-5.9-9.68-5.27-.59-10.65-.52-15.97-.36-20.83.65-38.19,9.22-52.7,23.8-5.59,5.62-5.19,11.67,1.23,16.05,6.7,4.58,13.56,9.16,20.92,12.48,15.62,7.05,30.48,5.13,43.71-6.12,3.54-3.01,6.75-6.42,10.06-9.7,4.61-4.57,8.85-9.57,13.82-13.7,7.02-5.85,12.28-5.11,17.95,1.98,3.53,4.41,6.81,9.04,9.94,13.74,6.26,9.4,14.58,13.52,26.01,11.57,5.94-1.01,9.87-3.78,11.48-9.48.99-3.5,1.73-7.11,2.16-10.72.61-5.06-2.47-7.55-7.31-6.03-3,.94-5.81,2.57-8.84,3.26-3,.68-6.19.58-9.29.82-.34-.66-.67-1.32-1.01-1.99,1.77-2.12,3.15-4.94,5.4-6.2,4.44-2.48,9.22-4.64,14.11-5.95,10.88-2.91,21.92-5.29,32.92-7.75,4.04-.9,8.17-1.42,13.08-2.25-3.42,11.76-9.56,19.6-20.32,22.8-4.37,1.3-6.84,3.77-8.4,7.64-5.15,12.76-5.83,25.82-2.3,39.08,4.25,15.95,14.99,26.72,28.6,35.01,6.05,3.68,10.76,8.51,13.42,14.97,4.59,11.15,8.79,22.46,12.61,32.3-6.78,7.89-13.11,15.08-19.23,22.44-2.62,3.15-4.33,3.22-6.03-.59-2.5-5.6-4.57-11.39-7.17-16.93-4.29-9.15-10.91-16.11-21.01-18.38-7.42-1.67-15.1-2.27-22.69-3.14-4.71-.54-8.26,1.77-9.97,5.98-6.89,16.94-6.59,36.69,7.86,51.51,4.01,4.11,8.82,7.45,13.33,11.2-16.71,4.63-32.58,10.9-44.37,26.62,4.35,3.28,8.16,7.06,12.71,9.39,10.23,5.23,21.43,7.64,32.83,6.46,9.67-1,19.21-3.4,28.71-5.62,4.28-1,6.79-.18,7.78,4.22,1.97,8.73,4.24,17.4,5.87,26.2,1.23,6.61-1.39,8.71-7.87,6.72-27.19-8.35-53.69-18.45-77.98-33.46-10.67-6.59-22.19-10.29-34.17-13.09-3.23-.76-6.19-.65-9.43,1.21-2.42,1.39-6.21,1.83-8.89,1.03-8.87-2.66-17.54-5.99-26.21-9.26-1.93-.73-3.57-2.24-5.35-3.39.17-.52.35-1.04.52-1.55,2.38-.18,4.8-.72,7.13-.47,7.59.82,15.14,2.12,22.74,2.88,5.91.59,12.24,2.71,17.58-3.27-7.75-7.47-16.63-12.31-26.96-14.31-15-2.91-29.82-.64-44.59,1.98-7.96,1.42-9.85,5.43-4.69,11.63,10.43,12.54,22.49,23.1,38.34,28.49,14.78,5.02,29.84,4.17,44.93,2.27,3.74-.47,6.98-.33,10.39,1.86,21.7,13.95,44.3,26.13,68.82,34.52,1.66.57,2.81,2.6,4.8,4.53-11.1,1.35-20.7,2.29-30.21,3.74-9.68,1.47-19.33,3.19-28.89,5.27-7.61,1.65-9.53,6.27-6.19,13.35.49,1.05,1.07,2.06,1.66,3.06,9.94,16.76,46.59,30.83,68.74,13.56,4.73-3.68,9.56-7.25,14.12-11.12,6.8-5.76,14.08-6.9,22.74-4.57,14.52,3.9,28.18,10.75,43.58,11.74,24.06,1.54,48.07,4.01,72.13,5.52,11.36.71,22.8.12,34.31.12-.23.57-.59,1.47-.96,2.37-2.91,7.04-5.93,14.05-8.68,21.16-.79,2.05-1.69,4.69,1.94,5.46,10.5,2.23,21.08-6.23,21.7-17.02.28-4.78,1.21-9.55,2.22-14.24,1.18-5.44,5.16-3.27,8.38-2.6,3.69.76,3.53,2.97,2.33,5.94-2.84,7.04-5.42,14.19-8.44,22.2,6.73,0,12.95.26,19.14-.08,5.06-.28,7.32-3.89,7.19-8.54-.17-6.12-.42-12.32-1.58-18.31-2.54-13.11,1.71-21.96,13.39-25.74,2.95-.96,6.2-1.6,9.28-1.5,35.57,1.25,66.28,15,93.71,36.94,4.16,3.33,5.16,7.94,4.56,13.03-1.67,14.01-3.09,28.06-5.06,42.02-1.91,13.53.97,24.36,13.54,32.02,12.62,7.69,24.45,16.68,36.9,24.66,4.84,3.1,10.31,5.34,15.73,7.34,3.09,1.14,6.65,1,9.94,1.42,1.86-11.74.69-14.02-8.79-17.51-4.82-1.77-9.84-3.03-14.56-5.03-2.49-1.05-4.53-3.18-7.05-5.03,5.41-5.46,11.66-5.4,17.3-7,3.64-1.03,7.21-2.33,10.8-3.51.02-.69.03-1.39.05-2.08-1.83-1.13-3.53-2.71-5.52-3.3-5.24-1.55-10.66-2.48-15.89-4.05-2.73-.82-5.2-2.49-7.79-3.78.09-.66.17-1.32.26-1.98,3.2-1.1,6.33-2.53,9.61-3.24,4.38-.95,8.92-1.12,13.29-2.07,1.85-.4,3.46-1.95,5.18-2.97-1.44-1.63-2.57-3.89-4.37-4.77-5.2-2.54-10.64-4.61-16.04-6.71-3.88-1.51-6.33-3.89-6.22-8.29,8.26-5.11,18.55,1.99,28.5-5.47-2.39-1.44-3.98-2.36-5.54-3.34-5.06-3.18-10.08-6.42-15.16-9.55-3.42-2.1-6.81-4.13-6.29-10.46,9.22,1.72,18.01,3.36,26.8,5l.98-2.07c-1.51-1.73-2.81-3.71-4.56-5.14-5.39-4.43-11.09-8.49-16.36-13.04-1.63-1.41-2.29-3.94-3.39-5.96.46-.35.91-.7,1.37-1.05,8.31,1.69,16.62,3.37,24.92,5.06.29-.47.59-.94.88-1.41-1.51-2.03-2.77-4.31-4.57-6.02-2.76-2.63-5.85-4.93-8.89-7.27-3.13-2.4-4.28-5.34-2.83-9.46,6.61,1.37,13.2,2.75,20.76,4.32-.19-2.68.06-4.81-.55-6.65-1.14-3.45-2.95-6.68-4.11-10.13-.47-1.4-.54-3.61.26-4.53.66-.76,3.04-.57,4.39-.07,5.12,1.92,10.02,4.46,15.21,6.11,2.88.91,6.17.52,9.42.72-1.27-7.53-9.12-11.2-7.62-19.77,6.28,2.85,11.64,5.41,17.12,7.7,3.34,1.4,6.81,2.6,10.33,3.44,1.15.27,2.99-.58,3.83-1.53.49-.55-.17-2.42-.69-3.51-.86-1.79-2.26-3.34-3-5.16-.51-1.26-.83-3.14-.23-4.12.44-.71,2.63-.78,3.87-.47,3.37.84,6.61,2.21,9.98,3.04,4.82,1.18,9.68,2.38,14.6,3,4.98.63,6.62-1.63,4.87-6-.83-2.08-1.82-4.08-3.36-7.49,4.83,1.42,8.49,2.28,11.98,3.57,6.77,2.51,13.59,4.31,20.91,3.26,15.79-2.26,31.59-4.39,47.37-6.73,32.6-4.83,64.6-11.81,94.3-26.84,3.94-1.99,6.22-.94,8.03,3.21,3.32,7.6,8.48,13.92,15.47,18.52,15.05,9.9,32.26,10.42,49.39,10.94,2.98.09,4.64-1.98,3.77-5.08-6.4-22.78-16.43-43.12-37.7-55.9-10.3-6.19-10.45-14.46-.21-20.69,9.5-5.78,19.32-11.04,28.9-16.7,15.04-8.89,21.02-22.65,19.95-39.53-.21-3.34-3.3-6.5-5.06-9.74-2.87,2.24-6.48,3.98-8.44,6.84-3.26,4.75-5.79,10.08-8.01,15.42-2.06,4.96-5.65,6.94-10.48,7.5-2.57-3.98-1.99-7.75.25-11.38,2.44-3.95,4.73-8.04,7.61-11.66,4.05-5.07,8.72-9.64,12.81-14.67,1.08-1.33,1.68-3.8,1.22-5.37-.29-1-3.08-2.08-4.51-1.81-9.13,1.73-17.7,4.91-23.72,12.47-10.84,13.61-19.46,28.52-25.4,44.91-4.39,12.12-8.66,24.28-12.88,36.47-3.08,8.9-1.95,12.37,6.35,17.43,10.35,6.31,20.96,12.18,31.39,18.36,2.11,1.25,4.21,2.78,5.78,4.63,1.93,2.29,1.66,4.47-1.96,4.6-2.65.09-5.35.03-7.96-.39-10.78-1.75-19.49-7.22-26.75-15.23-4.45-4.92-9.33-6.82-16.37-4.66-10.59,3.24-21.58,5.15-32.41,7.61-5.83,1.33-10.98,3.63-14.41,8.94-4.52,6.99-6.19,7.78-13.96,5.05-21.65-7.6-43.44-10.72-65.94-3.85-4.38,1.34-5.86-.4-4.82-5.1,1.33-5.99,3.3-11.84,4.37-17.86.65-3.66.12-7.53.12-11.47-6.45.83-9.92,3.69-12.32,8.27-3.01,5.73-6.33,11.29-9.42,16.98-1.62,2.99-3.68,3.83-6.98,2.61-18.48-6.83-31.32-19.48-38.93-37.52-.49-1.16-.16-3.76.53-4.08,1.34-.62,3.79-.77,4.77.06,9.26,7.93,20.28,14.3,24.55,26.87.4,1.18,2.32,2.68,3.45,2.6,1.73-.12,4.35-1.05,4.9-2.35,4.83-11.46,6.79-26.57-4.53-36-11.92-9.92-25.48-17.91-38.5-26.46-3.65-2.39-7.29-1.4-9.95,2.39-17.28,24.69-11.13,56.49,9.09,71.64,6.61,4.95,13.83,9.08,21.04,13.76-1.64,3.73-4.39,6.28-8.64,6.14-12.81-.44-25.62-1.16-38.42-1.76-3.62-.17-5.49-1.77-6.36-5.6-8.58-38.01-3.94-74.29,14.31-108.66,2.03-3.83,5.98-7.14,9.81-9.4,5.82-3.43,12.29-5.77,18.52-8.5,5.99-2.63,8.27-1.71,9.49,4.67,1.93,10.1,3.33,20.3,5,30.44.75,4.56,3.39,6.14,7.38,3.78,2.59-1.53,5-3.94,6.57-6.52,8.96-14.73,10.81-30.41,5.53-46.89-1.73-5.41-.81-7.48,4.39-9.66,14.38-6,28.92-11.63,43.12-18.04,11.64-5.25,23.32-8.43,36.15-5.91,3.89.76,7.93.86,11.91,1.12,13.05.85,25.06,4.29,34.79,13.73-.64.38-1.39.75-2.05,1.24-10.13,7.52-20.47,14.79-30.29,22.69-6.11,4.92-6.83,9.95-3.6,15.17,15.65-2.07,30.2-11.5,46.82-7.87-.65,6.48-4.95,8.02-10,9.12-3.91.86-7.58,3.18-7.49,7.53.09,4.37,4.01,6.16,7.82,7.27.92.27,2,.1,2.98-.02,5.28-.65,10.61-1.1,15.82-2.1,4.19-.8,9.68-1.03,12.08-3.73,5.52-6.22,10.04-13.52,13.9-20.94,2.32-4.46.42-6.21-4.94-7.14-6.64-1.15-13.26-2.45-20.04-3.72,2.75-6.98,4.7-8.06,10.8-6.81,14.92,3.07,29.94,4.61,45.12,2.48,4.57-.64,9.15-1.67,13.52-3.13,2.45-.82,4.81-2.64,3.02-6.13-8.87-17.29-21.92-29.8-41.36-33.66-7.17-1.43-14.89.05-22.36-.02-20.99-.21-41.99-.51-62.98-.87-1.96-.03-3.91-.72-5.87-1.11-.09-.52-.17-1.03-.26-1.55,3.64-2.12,7.41-4.07,10.91-6.41,6.73-4.51,14.01-8.51,19.77-14.06,6.93-6.68,11.96-15.77,10.43-25.43-1.99-12.56-7.89-23.89-17.85-32.59-11.83-10.33-26.6-11.16-41.09-12.84-3.66-.42-4.82,2.29-4.81,5.53,0,6.16.08,12.33.02,18.49-.06,6.66.91,7.34,7.22,8.97,11.52,2.98,23,6.21,34.28,9.99,7.24,2.43,8.08,6.7,2.28,11.64-6.56,5.59-13.81,10.37-20.86,15.36-2.76,1.96-4.39.63-4.74-2.4-.44-3.8-.35-7.7-1.12-11.43-.59-2.88-2.13-5.57-3.25-8.35-2.72,1.71-5.65,3.17-8.08,5.23-1.27,1.07-1.9,3.11-2.39,4.84-1.52,5.42-3.05,10.85-4.17,16.36-1.73,8.55-6.21,14.6-14.68,17.24-4.39,1.37-7.04-.99-5.99-5.38,1.27-5.3,2.65-10.6,4.45-15.74,4.09-11.7,7.06-23.52,5.97-36.08-.8-9.28-1.33-18.58-2.02-27.87-.35-4.81,1.75-7.88,6.27-9.54,10.42-3.84,20.86-7.62,31.17-11.73,5.41-2.16,9.15-.52,12.63,3.68,7.66,9.23,15.45,18.34,23.29,27.42,5.61,6.5,7.64,6.1,13.16-.38,5.13-6.03,11.01-11.43,16.55-17.12,1.67-1.71,3.29-3.47,4.93-5.2-2-1.53-3.78-3.75-6.04-4.47-9.62-3.05-19.43-5.5-29.06-8.53-2.09-.66-3.7-2.82-5.54-4.3,1.68-1.44,3.31-2.96,5.08-4.28.76-.57,1.84-.72,2.76-1.07,13.34-5.02,26.69-9.99,40-15.1,5.86-2.25,7.68-4.84,6.94-11.05-.69-5.74-1.5-11.65-3.58-16.97-1.11-2.85-4.73-6.1-7.68-6.65-19.9-3.73-35.82,4.02-48.64,18.8-2.06,2.37-2.47,6.17-3.64,9.31.5.46,1,.92,1.51,1.38,14.25-1.61,26.83-6.92,36.28-18.52,5.64,6.35,5.49,7.99-.45,11.72-1.68,1.06-3.4,2.11-5.19,2.96-31.83,15.1-64.64,27.48-99.06,35.34-1.46.33-3.1-.13-4.65-.22.31-1.64.22-3.51,1-4.87,5.41-9.34,10.87-18.67,16.67-27.77,1.31-2.06,4.03-3.23,6.09-4.81.52.37,1.03.74,1.55,1.11-.39,1.97-.45,4.09-1.24,5.88-1.54,3.48-3.69,6.7-5.21,10.18-.72,1.64-.57,3.65-.82,5.5,1.83.22,3.83,1.02,5.46.55,12.16-3.48,22.65-16.84,23.51-29.54.31-4.68-1.91-7.25-6.74-7.16-4.65.09-9.29.56-13.93,1.02-19.72,1.94-33.73,11.38-39.85,30.84-1.44,4.57-2.52,9.3-3.26,14.03-1.01,6.45-4.38,10.7-9.97,13.98-8.05,4.72-16.5,7.33-25.77,8.35-7.95.87-15.76,3.05-24.96,4.93,1.11-3.48,1.49-6.28,2.82-8.51,4.51-7.56,9.47-14.85,14.06-22.36,5.38-8.81,3.57-13.98-5.99-17.88-18.15-7.41-40.7-.4-51,17.1-6.19,10.51-10.63,22.07-15.5,33.31-2.06,4.76,0,8.91,5.06,9.91,4.64.91,9.61,1.16,14.3.59,6.65-.81,13.17-2.65,19.73-4.04,1.43,11.61-2.44,21.75-8.02,31.34-3.66,6.29-8.12,7.71-14.72,4.42-10.24-5.11-20.43-10.4-30.3-16.18-13.36-7.83-27.09-14.04-42.99-13.97-1.92,0-3.84-1.17-7.16-2.25,9.79-7.38,5.54-14.22,1.47-21.28-4.23-7.33-8.19-14.83-12.06-22.35-2.06-4.01-3.69-8.24-6.12-13.74,4.23,1.11,6.89,1.85,9.57,2.49,4.97,1.19,8.23,3.67,8.25,9.37,0,2.61.35,5.47,1.45,7.78,3.4,7.12,6.92,14.23,11.12,20.9,1.12,1.78,5.43,3.31,7.13,2.51,2.14-1.01,3.33-4.43,4.48-7,.45-1.01-.3-2.57-.51-3.87-.79-5.08-2.51-10.21-2.22-15.22C582.74,35.29,596.16,14.39,619.98,0h7c7.61,2.91,10.79,9.31,12.94,16.49,1.38,4.59,2.45,9.29,4,13.82,1.58,4.61,4.86,6.5,9.79,5.14,9.26-2.55,18.53-5.07,27.82-7.49,13.4-3.5,15.2-2.63,21.36,9.72,3.92,7.86,7.64,15.83,11.9,23.5,3.38,6.08,6.26,6.09,10.1.18,5.15-7.94,9.6-16.35,14.97-24.12,4.01-5.8,8.03-12.51,13.75-16.03,16.97-10.42,35.92-13.15,55.65-10.38,4.25.6,5.69,2.93,4.89,6.96-.68,3.42-1.52,6.81-1.94,10.26-.18,1.48.03,3.82.93,4.4.99.63,3.4.18,4.47-.69,4.76-3.85,9.76-7.58,13.75-12.16,8.01-9.22,17.34-15.89,29.5-18.19,2.37-.45,4.74-.94,7.11-1.41,4.67,0,9.33,0,14,0,7.27,2,14.55,3.96,21.81,6,4.8,1.35,6.17,4.38,4.6,9.14-2.17,6.61-4.13,13.29-6.01,19.99-2.15,7.66-.94,10.29,5.74,14.46,5.35,3.34,11.04,6.37,15.64,10.56,3.34,3.04,6.08,3.08,9.15,1.04,1.93-1.29,3.6-3.35,4.72-5.42,8.75-16.15,20.85-29.19,36.23-39.16,6.09-3.95,8.42-3.22,10.98,3.15,1.55,3.84,3.05,7.73,4.08,11.73,2.25,8.74,4.19,17.56,6.32,26.59,6.66-7.31,13.28-14.74,20.08-21.99,6.8-7.26,14.8-12.78,24.21-16.22,16.96-6.2,33.75-3.34,50.51.8,5.31,1.31,6.32,3.57,3.46,8.27-3.45,5.67-7.4,11.05-11.13,16.55-1.75,2.59-3.73,1.99-5.27,0-2.33-3.02-4.39-6.26-6.51-9.43-6.86-10.27-12.53-12.2-24.06-7.92-2.63.98-5.18,2.27-7.6,3.7-15.61,9.26-28.28,21.58-37.76,37.04-9.81,16-21.56,30.39-35.16,43.28-1.78,1.69-4.18,2.74-6.29,4.08-.43-.35-.86-.69-1.29-1.04.81-2.21,1.41-4.52,2.45-6.62,4.11-8.32,8.84-16.37,12.45-24.89,6.64-15.68,9.74-32.22,10.46-50.87-5.08,1.49-9.76,2.04-13.58,4.14-11.59,6.36-17.37,17.52-22.25,29.13-7.46,17.76-10.57,36.56-13.15,55.51-.43,3.2-2.6,7.12-5.2,8.89-5.99,4.09-12.69,7.19-19.23,10.42-1.74.86-3.96.76-5.88,1.09-.3-1.12-.52-1.47-.45-1.75,4.29-16.59,0-31.51-8.7-45.63-4.05-6.58-6.22-7.2-12.2-2.66-20.58,15.62-29.58,36.91-30.02,62.24-.03,1.57.91,4.19,1.95,4.5,1.6.49,4.2-.02,5.44-1.14,2.68-2.41,5.19-5.23,7.01-8.33,4.96-8.44,9.44-17.16,14.32-25.65,1.27-2.21,3.34-3.96,5.9-6.9.46,3.14,1.06,4.66.82,6.04-2.53,14.94-6.25,29.29-18.92,39.45-1.42,1.14-1.76,3.62-2.6,5.48,1.71.72,3.4,2,5.15,2.09,13.55.71,26.43-1.88,38.53-8.18,8.39-4.37,16.78-8.75,25.36-12.74,3.23-1.5,7.24-3.24,10.42-2.58,10.63,2.2,21.04,5.44,31.53,8.28.07.53.15,1.07.22,1.6-2.81,2.24-5.52,4.61-8.44,6.68-6.23,4.42-12.7,8.5-18.81,13.09-5.68,4.27-7.58,10.42-6.76,17.3.73,6.1,1.67,12.19,2.95,18.19.65,3.06,2.27,5.92,3.89,10,3.05-2.8,5.33-4.44,7.04-6.55,5.76-7.11,11.26-14.44,16.99-21.57,1.37-1.71,3.25-3.02,4.89-4.51l1.89,1.01c-1.88,5.49-3.06,11.35-5.81,16.36-3.34,6.07-7.98,11.42-12.11,17.04-5.42,7.38-5.54,8.84-.66,16.41,5.06,7.85,7.41,16.28,5.77,25.6-1.67,9.48-3.28,18.97-5.24,28.39-.4,1.9-1.87,4.13-3.5,5.14-10.87,6.72-22.04,12.94-32.82,19.8-3.09,1.97-5.32,5.39-7.72,8.34-2.88,3.54-1.72,6.26,2.01,8.45,9.18,5.39,18.68,6.38,28.66,2.52,8.75-3.38,10.93-10.85,11.72-19.08,5.98.61,5.78.69,7.79,5.61,2.18,5.35,3.76,11.45,7.45,15.57,5.01,5.6,3.86,9.69-.16,14.46-.32.38-.54.83-.78,1.27-3.77,7.12-8.42,12.56-17.68,9.37-.75-.26-1.66-.05-2.49-.04-5.39.1-6.74,1.45-6.55,6.97.11,3.16.9,6.34.65,9.45-.52,6.56-.99,13.21-2.51,19.57-1.3,5.47-4.53,6.92-9.85,5.34-5.06-1.5-9.87-3.82-14.92-5.38-5.33-1.65-10.77-3.89-16.21-4.02-12.19-.29-23.46-2.69-33.09-10.41-3.5-2.8-7.04-2.97-11.14-2.22-14.53,2.66-29.13,4.97-43.64,7.72-34.72,6.58-69.42,13.27-104.08,20.18-2.13.42-4.95,2.75-5.51,4.74-3.25,11.46-5.78,23.13-8.88,34.64-1.05,3.9-.53,6.83,3.68,9.89,3.08-4.7,6.1-9.36,9.17-13.99,3.06-4.61,6.43-5.74,12.08-4.11,6.15,1.78,12,7.34,11.82,11.55-.06,1.39-.69,3.01-1.6,4.06-3.94,4.54-3.12,8.73.51,12.89,4,4.6,4.89,9.84,2.41,15.3-1.52,3.33-.58,4.91,2.25,6.75,13.45,8.71,21.2,20.68,21.22,37.23,0,3.09,1.27,6.71,3.14,9.19,7.9,10.46,16.54,20.36,24.33,30.9,4.4,5.95,9.8,8.65,16.91,8.67,1.67,0,3.33,0,5,.02,4.33.03,5.29,1.73,3.11,5.47-7.68,13.13-19.34,13.75-28.09,1.47-.87-1.22-1.69-2.47-2.45-3.76-4.19-7.16-8.17-14.46-12.6-21.47-2.49-3.95-5.71-7.44-8.95-11.59-7.26,10.94-10.95,22.2-14.01,33.79-2.06,7.81-2.37,15.42,1.1,22.85,5.32,11.41,10.87,22.71,16.11,34.15,3.41,7.44,9.19,12.05,16.56,14.98,10.83,4.3,21.54,8.95,33.65,4.42,3.02-1.13,4-2.37,4.09-5.56.3-10.97.6-21.96,1.62-32.88,1.81-19.37,4.64-38.66,6.08-58.05.89-12.02,5.42-21.34,14.98-28.45,6.02-4.48,9.69-10.39,10.49-17.97.52-4.93.61-10,1.88-14.75,1.7-6.36,1.91-6.61-4.5-7.81-10.76-2.01-11.59-3.97-5.46-13.06,1.3-1.93,2.72-3.78,4.16-5.61,3.91-4.97,8.11-9.74,11.75-14.89,5.53-7.83,10.76-15.49,9.75-26.27-.94-10,3.84-13.94,11.93-13.07,1.12.12,2.3-.35,3.45-.48,15.96-1.78,30.85.78,43.74,11.06,1.31,1.05,2.87,2.69,2.99,4.16.31,3.94,2.32,6.36,5.39,8.39,13.48,8.92,18.73,21.69,16.57,37.4-.89,6.51-3.06,12.85-4.6,19.27-.29,1.2-.9,3.18-.4,3.57,5.21,4.1,4.37,9.76,4.05,15.18-.22,3.8,1.37,6.09,4.82,7.1,6.84,1.99,10.95,6.81,13.35,13.13,3.82,10.06,8.38,19.99,10.75,30.4,5.6,24.56,10.32,49.33,14.91,74.1,1.69,9.12,3.54,18.63,2.66,27.71-1.69,17.46-5.26,34.75-8.09,52.1-.66,4.07-2.47,8.23-2.04,12.15,2.7,24.28,6.16,48.47,8.84,72.75,2.6,23.64,5.07,47.32,6.68,71.05,2.22,32.72,3.59,65.51,5.33,98.27.4,7.45.84,14.89,1.26,22.37,2.54.37,4.83.68,7.12,1.04,4.71.74,7.74-.97,8.78-5.81.56-2.59.86-5.36,2.04-7.65,1.08-2.08,3.19-3.64,4.84-5.42,1.53,1.66,3.76,3.07,4.48,5.03,3.74,10.1,6.85,20.44,10.76,30.47.92,2.35,4.1,3.81,6.24,5.67,1.43-2.38,3.71-4.63,4.11-7.17.9-5.72.58-11.63,1.32-17.39.37-2.87,1.4-7.42,3.16-7.98,3.91-1.25,4.48,3.26,5.72,5.99,3.56,7.84,6.94,15.77,10.69,23.52.66,1.37,2.73,2.07,4.15,3.07.74-1.51,1.93-2.96,2.15-4.55,1.64-12.09,2.33-24.15-2.36-35.85-.43-1.06-.9-2.33-.68-3.37.37-1.76,1.28-3.42,1.96-5.12,1.54.74,3.48,1.12,4.54,2.29,3.24,3.57,6.23,7.38,9.14,11.23,7.54,9.94,15.01,19.94,22.48,29.93,1.87,2.5,4.1,4.08,7.21,2.41,3.4-1.83,3.22-4.63,1.69-7.69-.74-1.48-1.89-3.04-1.86-4.55.05-2.73.83-5.45,1.31-8.18,2.58.93,6.11,1.1,7.56,2.93,5.05,6.33,9.26,13.33,14.05,19.88,1.8,2.46,4.34,4.39,6.75,6.78,4.54-6.26,1.68-10.9,0-15.69-.47-1.34-.1-2.97-.11-4.46,1.57.17,3.62-.23,4.63.61,2.89,2.43,6.16,4.94,7.85,8.17,5.96,11.42,15.49,16.84,27.85,18.18v5ZM723.34,962.39c.59-.28,1.18-.57,1.77-.85,1.37-2.46,2.66-4.97,4.12-7.37,5.23-8.61,11.33-16.49,19.98-21.94,1.42-.89,3.65-.5,5.51-.71.06,1.85.7,3.93.08,5.5-1.83,4.61-4.45,8.91-6.22,13.55-2.72,7.13-5,14.44-7.59,22.04,7.69-.15,7.56-.21,11.11-7.39,1.11-2.25,3.13-4.04,4.74-6.04,1.91,2.14,4.1,4.1,5.67,6.47,1.72,2.6,2.53,5.81,4.33,8.34,3.63,5.11,7.08,4.73,9.9-.97,1.45-2.94,2.41-6.12,4.21-10.77,2.62,2.81,4.64,4.88,6.54,7.04,1.7,1.93,3.04,5.35,4.96,5.69,7.4,1.31,14.96,1.65,22.78,2.38-3-67.87,7.95-133.73,10.88-200.64,2.08.51,4.4,1.32,4.63,2.53,1.62,8.44,4.07,17,3.89,25.47-.58,27.62-2.03,55.23-3.42,82.83-.72,14.27-2.12,28.51-3.03,42.78-.86,13.6-1.54,27.22-2.15,40.84-.16,3.64.62,6.91,5.06,7.98,11.36,2.73,22.85,5.47,34.49,3.46,5.99-1.04,11.92-3.85,17.23-6.96,4.14-2.42,5.86-7.04,4.86-12.21-2.49-12.86-5.42-25.66-7.17-38.62-1.42-10.47-1.37-21.14-1.95-31.36,4.26-1.5,5.66-.11,6.44,3.14,1.7,7.08,3.5,14.16,5.73,21.09,6.73,20.89,10.67,42.13,9.46,64.2-.25,4.46.72,8.97.72,13.45,0,3.35,1.13,4.84,4.56,4.84,18.96,0,37.92.28,56.87.03,6.89-.09,13.77-1.39,21.48-2.23,0-13.34.57-25.99-.16-38.57-.72-12.47-5.84-23.03-16.85-30.15-4.88-3.16-9.31-6.99-14.06-10.36-12.19-8.66-23.53-18.52-31.37-31.16-16.96-27.37-32.91-55.36-49.3-83.08-6.16-10.43-12.41-20.8-18.6-31.22-3.01-5.06-7.44-7.77-13.24-8.57-9.05-1.25-18.05-2.86-27.12-3.92-11.63-1.35-21.39-5.7-28.24-15.61-2.61-3.79-4.13-8-2.37-12.21,2.57-6.16,1.62-10.96-2.8-15.92-3.9-4.38-3.55-8.62.33-12.46,8.7-8.62,18.37-15.84,30.12-19.87,3.25-1.12,6.49-2.24,9.74-3.36-.9-3.66-1.73-6.99-2.55-10.31-6.12.78-11.85,1.66-17.62,2.23-21.53,2.11-37.88-4.96-45.03-24.47-4.96-13.52-10.35-26.89-15.02-40.51-1.62-4.72-3.56-10.69-2.01-14.85,3.8-10.22,1.57-18.04-5.65-25.29-.69-.69-1.22-1.59-1.67-2.47-2.25-4.39-6.18-6.37-10.41-8.59-7.12-3.74-14.15-8-20.29-13.15-6.2-5.2-6.72-5.74-11.82,1.04-2.5,3.33-5.37,5.71-9.87,5.84-13.62.38-21.19-8.37-18.11-21.77,1.69-7.37,1.56-13.3-4.28-19.46-7.32-7.73-4.77-13.68,5.57-16.14.32-.08.63-.22.95-.3,8.12-2.2,13.75-10.7,13.23-19.97-.52-9.39-3.89-12.86-14.13-14.63-1.47-.25-3-.46-4.37-1-4.03-1.61-7.29-3.98-7.92-8.74-.88-6.64,1.72-10.79,7.86-12.45,5.9-1.59,13.28,1.68,15.16,7.05,1.26,3.6,3.26,4.45,6.84,3.43,8.19-2.35,15.21-10.77,16.41-20.13.82-6.4-1.16-8.65-7.47-7.09-15.43,3.8-30.83,7.82-46.09,12.24-10.81,3.13-13.01,10.3-6.74,19.82.55.83,1.18,1.62,1.73,2.45,4.26,6.49,4.08,7.56-2.06,12.11-8.17,6.05-8.7,11.88-1.79,19.48,4.57,5.02,4.61,6.07.49,11.46-3.16,4.14-4.78,8.56-3.5,13.92,5.98,25.09,6.91,50.71,7.26,76.32.13,9.65,2.16,18.21,8.38,25.38,12.32,14.21,24.6,28.49,37.61,42.06,13.53,14.1,22.45,30.38,23.65,49.77.82,13.4,7.76,20.16,19.22,24.11,9.04,3.11,17.46,7.44,21.83,16.26,9.56,19.3,9.1,38.68-2.69,56.87-8.3,12.8-24.02,16.51-36.94,9.98-10.5-5.3-12.53-18.47-4.12-26.73,2.79-2.74,5.93-4.07,11.01-2.33-.81,2.62-1.27,5.26-2.42,7.56-2.35,4.74-2.07,10.47,1.09,14.02,3.19,3.57,8.26,4.72,13.24,1.98,3.23-1.78,6.83-4.3,8.39-7.43,3.44-6.87,6.86-14.14,8.16-21.62,1.96-11.24-1.3-21.88-10.89-28.83-10.14-7.35-22.28-10.86-33.86-5.21-13.05,6.37-24.96,15.09-37.28,22.93-3.97,2.52-5.57,6.41-5.27,11.15.28,4.49.25,8.99.5,13.48,1.39,25.09,2.54,50.21,4.34,75.27,1.23,17.07,3.24,34.09,5.24,51.1,1,8.49,4.07,16.27,10.42,22.94,2.21-2.11,4.44-3.7,5.97-5.8,3.31-4.57,6.06-9.54,9.44-14.05,1.4-1.87,3.81-2.98,5.76-4.44.74,2.16,2.12,4.32,2.11,6.47-.05,7.48-.51,14.96-.94,22.44-.29,4.95,2.24,8.06,7.22,11.22,1.92-5.16,3.42-9.96,5.52-14.49.85-1.85,2.97-3.12,4.51-4.66.99,1.87,2.58,3.66,2.85,5.63.62,4.6.28,9.33.97,13.91.32,2.09,2.15,3.95,3.3,5.92ZM130.74,666.12c14.26-1.14,28.6-1.64,42.76-3.53,39.51-5.29,77.37-16.76,113.85-32.67,19.6-8.55,38.58-18.55,58.39-26.54,27-10.89,54.85-19.76,84.38-19.17,14.51.29,28.96,3.36,43.43,5.26,5.05.66,6.54-.6,5.73-5.62-.98-6.06-2.42-12.04-3.24-18.12-1.83-13.66-3.21-27.38-5.12-41.03-2.01-14.37-8.99-24.86-23.99-28.28-5.97-1.36-11.99-2.86-18.07-3.38-24.58-2.09-48.35,2.15-71.39,10.49-26.01,9.42-50.13,22.84-73.63,37.17-31.13,18.99-64.47,28.51-100.91,26.79-12.8-.6-25.56-1.83-38.36-2.49-27.23-1.4-53-8.15-77.33-20.46-8.17-4.14-10.08-3.22-13.13,5.25-8.79,24.47-11.53,49.62-9.7,75.52,1.1,15.58,8.23,25.57,23.08,30.62,20.54,6.99,41.63,9.76,63.25,10.2ZM847.87,645.01c-2.43-10.83-4.94-20.57-6.7-30.45-.89-4.99-.9-10.25-.5-15.33,1.22-15.57,2.93-31.1,4.19-46.66.16-1.97-1.26-4.07-1.94-6.12-.53.09-1.05.18-1.58.27-.74,1.26-1.78,2.43-2.18,3.79-4.38,15.02-8.46,30.15-6.89,46.02,1.63,16.52-.04,32.83-1.61,49.25-1.07,11.16-.2,22.51-.2,33.78.51.41,1.03.83,1.54,1.24,11.67-5.41,23.48-10.55,34.97-16.33,7.36-3.7,10.76-10.56,11.85-18.58.4-2.96.66-5.95,1.21-8.89,1.63-8.72,3.62-17.38,11.29-23.06,1.73-1.28,4.3-1.43,7.46-2.39-3.36,9.31-6.5,16.82-8.76,24.58-2.76,9.52-1.31,11.49,8.19,13.85.26.07.46.43,1.65,1.61-2.31,2.51-4.48,5.26-7.05,7.58-9.76,8.82-21.89,12.89-34.13,16.7-8.54,2.66-14.62,10.75-14.77,19.66-.29,17.02,3.35,33.33,9.55,49.04,12.15,30.76,29.88,58.5,47.95,85.95,5.99,9.09,13.42,17.4,21.12,25.15,7.81,7.87,16.09,8.37,26.01,3.22,4.27-2.21,8.52-4.55,12.44-7.3,1.87-1.31,2.95-3.73,5.11-6.6-13.85-.07-25.88,4.82-38.26,1.03,1.54-1.83,3.18-3.14,4.98-4.14,8.4-4.69,16.9-9.18,25.24-13.97,3.42-1.96,5.32-4.87,3.14-9.11-7.26,2.33-14.24,4.87-21.4,6.79-13.92,3.72-19.11,4.15-22.06,2.18,3.63-2.35,7.1-4.56,10.54-6.82,8.05-5.27,16.18-10.44,24.05-15.98,1.29-.9,1.41-3.46,2.07-5.25-1.9-.33-3.99-1.36-5.66-.88-10.18,2.94-20.22,6.33-30.39,9.3-2.64.77-5.55.6-8.34.86-.2-.63-.41-1.26-.61-1.89,2.07-1.41,4.11-2.85,6.21-4.21,10.29-6.71,20.62-13.34,30.84-20.16,1.17-.78,1.67-2.56,2.48-3.88-1.57-.6-3.16-1.72-4.72-1.69-2.79.06-5.56.88-8.36,1.26-11.19,1.51-22.38,3.08-33.6,4.35-1.63.18-3.43-1.12-5.15-1.73,1.2-1.15,2.3-2.45,3.63-3.43,6.52-4.82,13.21-9.4,19.56-14.43,1.58-1.25,2.09-3.85,3.1-5.84-11.44,1.97-21.93,3.78-32.43,5.58-.34-.68-.69-1.36-1.03-2.04,1.3-1.37,2.42-3.02,3.95-4.07,7.5-5.18,15.22-10.06,22.61-15.4,1.61-1.16,2.19-3.76,3.84-6.8-12.15,2.82-22.24,7.25-33.63,5.35,1.36-2.2,2.92-4.01,4.88-5.07,8.02-4.34,16.18-8.45,24.27-12.67,3.96-2.06,6.24-5.39,8.39-10.57-10.76,3.33-20.18,6.19-29.56,9.17-3.39,1.08-6.02.62-8.38-3.32,2.51-1.35,4.73-2.64,7.03-3.77,11.43-5.65,23.52-10.27,34.15-17.16,10.64-6.89,19.88-15.96,29.58-24.24,1.33-1.14,1.8-3.29,2.67-4.97l-1.37-1.04c-2.04,1.3-4.05,2.66-6.14,3.88-16.07,9.31-32.13,18.64-48.28,27.82-2.86,1.63-6.02,2.82-9.17,3.79-1.13.35-2.64-.58-3.98-.92.43-1.16.6-2.54,1.34-3.44,2.85-3.47,6.21-6.56,8.76-10.23,2.71-3.91,6.28-5.96,10.56-7.71,16.54-6.77,31.79-15.8,45.76-27.01,2.82-2.26,3.83-4.62,2.68-8.39-1.33.64-2.34,1.12-3.34,1.6-11.24,5.31-22.46,10.67-33.76,15.87-1.64.75-3.63.73-5.46,1.06-.38-.69-.75-1.37-1.13-2.06,2.6-2.8,4.94-5.9,7.84-8.34,9.14-7.72,18.56-15.1,27.67-22.85,1.58-1.35,2.14-3.89,3.18-5.87-.35-.22-.7-.44-1.06-.66-9.29,3.63-18.57,7.26-28.16,11.01-1.38-5.21.8-8.04,3.58-10.88,7.44-7.59,14.76-15.3,22.01-23.07,2.35-2.52,3.45-5.49,1.6-8.23-9.22,3.75-18.13,7.38-27.04,11.01-.48-.62-.95-1.23-1.43-1.85,1.09-1.76,1.95-3.74,3.33-5.25,6.48-7.13,13.26-13.98,19.55-21.27,1.48-1.72,1.45-4.75,2.33-7.95-9.61,2.77-17.76,5.12-25.9,7.46-.41-.62-.83-1.24-1.24-1.85,1.35-2.29,2.45-4.78,4.09-6.83,4.46-5.57,9.31-10.84,13.67-16.5,1.24-1.62,1.32-4.13,2.1-6.78-17.42,3.35-17.68,3.34-20.34-.82,4.74-5.27,12.55-7.2,16.55-14.59-2.21-.44-3.68-1.14-5-.93-8.18,1.29-16.33,2.79-24.5,4.21-5.22.9-7.57,4.12-9.12,9.15-4.32,14.08-9.17,27.99-14.02,41.9-1.66,4.77-4.46,8.7-9.23,11.3-2.03,1.11-4.01,3.87-4.41,6.16-2.25,13.03-9.12,24.12-14.53,35.81-1.5,3.26-4.03,6.1-6.38,8.88-.98,1.16-2.74,1.67-3.42,2.06ZM865.13,341.88c1.16-9.34,2.86-18.49,3.28-27.7.45-9.78-2.47-19.14-9.88-25.77-8-7.17-16.9-13.35-25.62-19.69-3.69-2.68-8.44-2.99-11.44.5-2.94,3.42-.41,7.29,2.21,10.19,4.13,4.56,8.73,8.71,12.73,13.38,1.84,2.14,2.73,5.09,4.05,7.68-.48.39-.97.78-1.45,1.17-2.34-1.08-4.81-1.94-6.99-3.28-10.48-6.41-19.19-14.79-27.06-24.18-4.6-5.49-7.43-5.16-11.07.83-10.35,17.01-16.21,35.44-14.77,55.41,1.22,16.89,10.35,29.19,25.63,36.49,7.74,3.7,12.41,1.81,16.5-5.67,1.43-2.61,2.83-5.27,3.92-8.04,7.96-20.17,8.54-16.13-5.78-32.36-2.78-3.15-6.01-5.91-9.04-8.85-.53.26-1.07.52-1.6.78v29.28c-12-5.37-13.51-34.59-3.09-46.59,5.22,1.23,8.52,4.25,11.63,8.95,5.73,8.66,12.23,17.01,19.57,24.33,7.31,7.29,16.48,12.2,28.25,13.12ZM88.45,69.53c1.51.81,2.48,1.06,3.04,1.67,7.5,8.29,14.36,16.98,17.53,28.01,1.14,3.97,2.61,7.85,4.05,11.72,1.92,5.19,4.5,6.04,9.06,2.8,5.28-3.75,8.02-8.97,7.12-15.47-.79-5.72-2.18-11.37-3.35-17.04-3.05-14.81,1.99-26.42,13.93-35.29,4.94-3.66,7.84-8.2,6.11-14.55-1.92-7.02-3.88-14.04-6.19-20.94-1.87-5.57-5.38-6.82-10.49-3.9-8.88,5.06-15.78,12.13-20.44,21.28-4.83,9.49-5.4,18.9,0,28.53,1.18,2.11.63,5.18.88,7.81-16.08-13.13-28.4-29.21-47.53-39.14-.86,4.47-1.95,7.92-2.13,11.42-1.29,24.66,5.88,47.23,17.82,68.4,4.67,8.28,11.52,14.45,22.51,16.2,2.32-18.64-8.24-33.95-11.94-51.53ZM751.87,268.56c0,4.34.42,7.49-.08,10.5-1.32,8.02-2.94,15.99-4.62,23.94-1.46,6.89-1.77,13.51,2.9,19.45,3.48,4.43,5.98,4.52,8.78-.14,8.65-14.38,16.18-29.27,21.5-45.27,3.98-11.97,2.54-22.35-6.26-31.79-3.45-3.71-6.33-8.18-8.58-12.74-6.14-12.47-9.53-13.07-20.07-3.61-16.27,14.6-24.87,32.82-24.94,54.5-.03,9.33,2.11,18.72,3.97,27.94.4,1.98,4.16,4.95,5.81,4.63,2.53-.49,4.97-3.16,6.68-5.48,1.02-1.38.55-3.85.78-5.83.77-6.58,1.03-13.28,2.49-19.71,1.43-6.34,4.73-11.95,11.64-16.39ZM926.92,515.63l1.86,1.03c2.38-3.35,5.58-6.39,6.98-10.11,4.15-10.99,5.76-22.43,4.26-34.26-1.8-14.13-10.14-22.85-23.46-24.35-8.09-.91-16.29-1.48-24.16-3.38-8.72-2.1-13.67,1.13-17.93,8.67-3.6,6.36-2.88,7.9,4.42,9.87,1.28.34,2.96.28,3.77,1.09,2.95,2.91,5.6,6.11,8.37,9.2-2.68,2.2-5.34,4.41-8.05,6.58-.36.29-.93.34-1.41.45-3.92.93-5.5,3.81-5.32,7.4.43,8.45,2.76,16.27,8.79,22.76,8.58-4.33,13.74-9.95,13.34-20.58-.48-12.64,6.99-21.87,16.86-29.48.35,2.29.09,4.38-.48,6.39-1.71,6.03-4.17,11.93-5.21,18.06-2.5,14.76-8.74,27.06-21.11,35.9-.33.24-.44.78-.79,1.43,1.11.64,2.02,1.41,3.06,1.71,7.01,1.99,12.76-.8,17.68-5.37,6.7-6.23,11.34-13.82,13.69-22.75.55-2.08,1.5-4.05,2.27-6.07.48.09.95.17,1.43.26,3.63,8.26-1.21,17.21,1.15,25.57ZM695.38,712.95c-1.36-6.29-2.07-12.81-4.2-18.82-7.65-21.59-23.98-35.85-42.26-48.22-3.47-2.35-5.6-1.15-6.2,2.95-.24,1.61-.17,3.31,0,4.94,1.75,17.18,3.44,34.37,5.36,51.53,1.18,10.55,2.58,21.09,4.14,31.59.93,6.23,3.77,7.66,9.41,4.88,7.88-3.88,15.63-8.01,23.45-12.01,6.82-3.49,9.7-9.23,10.31-16.84ZM87.77,298.49c.33,2.98.55,6.97,1.26,10.87,2.42,13.25,8.06,25.18,15.57,36.25,2.18,3.21,5.73,5.27,8.82,2.08,8.62-8.91,17.76-17.58,21.59-29.99,3.87-12.55.5-24.66-2.54-36.69-2.37-9.35-5.8-18.37-12.63-25.57-5.94-6.25-9.95-6.25-15.91-.17-11.5,11.73-15.35,26.35-16.15,43.22ZM123.54,203.14c-.83,7.88-2.22,15.59-2.3,23.31-.1,9.53,4.71,16.05,13.9,19.72,20.91,8.35,42.49,11.64,64.87,9.72,1.45-.12,4.06-1.46,3.99-1.97-.22-1.76-1.05-3.72-2.28-5-1.04-1.09-2.92-1.45-4.49-1.95-7.41-2.37-14.88-4.55-22.24-7.06-5-1.71-10.06-3.46-14.67-5.99-1.8-.99-3.41-4.22-3.24-6.26.12-1.36,3.61-3.5,5.5-3.41,3.69.18,7.59,1.13,10.9,2.77,5.93,2.94,11.51,6.6,17.18,10.04,2.73,1.65,5.15,3.11,7.52-.67,2.1-3.34,2.34-6.05-1.15-8.56-2.7-1.94-5.4-3.92-7.86-6.15-18.44-16.76-40.41-21.1-65.63-18.52ZM93.02,382.42c-13.52-3.44-21.56,1.75-23.06,13.84-2.41,19.47,1.18,38.41,5.53,57.23,1.04,4.48,3.75,5.26,7.18,1.59,11.68-12.52,23.36-25.08,34.29-38.24,5.42-6.52,5.63-14.74,2.09-22.66-2.03-4.55-5.65-6.86-10.71-6.6-4.65.24-6.08,3.66-7.67,7.35-3.33,7.74-7.06,15.32-10.7,22.92-.62,1.3-1.63,2.42-2.45,3.62-.45-.2-.9-.4-1.34-.6,2.27-12.74,4.53-25.48,6.84-38.46ZM614.21,51.19c-.15,8.05-3.86,16.73-9.6,23.67-2.43,2.94-5.18,5.63-7.58,8.6-2.61,3.22-3.66,7-.85,10.46,2.86,3.54,6.81,3.16,10.37,1.02,2.37-1.43,4.69-3.24,6.45-5.36,9.36-11.26,15.67-24.22,19.57-38.21,2.99-10.71,1.55-21.45-2.86-31.64-3.66-8.46-9.62-9.66-16.34-3.55-13.17,11.99-20.81,26.94-23.16,44.49-.53,3.97.36,8.13.62,12.67,11.47-4.91,15.83-15.16,23.39-22.16ZM165.36,74.9c5.1.7,10.31,1.68,15.57,2.02,2.09.13,5.09-.48,6.26-1.9,3.5-4.3,4.62-9.54,2.77-14.97-1.66-4.88-5.7-6.44-10.44-7.1-14.08-1.96-27.41,1.78-40.58,5.72-7.04,2.11-9.02,10.52-3.69,15.7,10.01,9.73,20.29,19.24,31.08,28.08,6.72,5.51,15.33,6.57,23.67,4.24,2.84-.79,6.06-3.75,7.12-6.49,1.34-3.47-.68-7.16-4.2-9.23-2.42-1.42-4.94-2.74-7.55-3.77-5.86-2.29-11.77-4.45-17.71-6.51-2.92-1.01-4.19-2.49-2.29-5.79ZM872,580.61c.69.15,1.38.29,2.07.44,1.19-1.89,2.9-3.64,3.48-5.7,1.68-6.06,2.95-12.24,4.32-18.39,4.17-18.74-1.21-35.82-9.22-52.4-1.55-3.21-4.25-3.12-7.25-1.74-2.81,1.3-4.86,3.32-3.07,6.15,2.63,4.15.92,7.43-.55,11.22-3.15,8.14-7.61,16.27-8.45,24.71-2.01,20.19-2.26,40.56-3.15,60.86-.27,6.16-.45,12.32-.42,18.49,0,1.25,1.13,2.5,1.74,3.75,1.18-.91,2.96-1.58,3.41-2.77,1.47-3.85,2.18-8,3.68-11.84,7.36-18.94,7.22-38.68,6.59-58.49-.03-.93.22-1.86.34-2.79.53-.18,1.06-.36,1.59-.55.62,1.52,1.57,2.99,1.79,4.56,1.14,8.15,2.09,16.33,3.11,24.49ZM871.73,1017.89c10.5.2,14.19-7.6,12.21-14.98-1.56-5.82-6.58-6.86-11.51-8.01-11.27-2.64-22.57-5.16-33.77-8.07-7.02-1.82-13.38-1.43-19.25,3.21-8.09,6.38-17.38,10.19-27.37,12.45-2.58.58-5.58.58-7.6,1.98-2,1.39-4.33,4.4-4.06,6.36.26,1.93,3.4,4.47,5.64,4.91,4.5.89,9.32,1.13,13.88.58,12.99-1.58,25.89-3.78,38.86-5.54,2.48-.34,5.18-.15,7.62.44,8.49,2.07,16.9,4.43,25.35,6.67ZM915.17,1051.19c6.01-2.12,13.33-3.35,19.09-7.02,9.9-6.31,19.8-11.85,31.55-13.82,4.85-.82,9.2-5.75,9.13-9.39-.11-5.71-4.94-6.31-8.79-7.02-10.73-1.99-21.56-3.48-32.36-5.08-4.75-.7-8.31,1.15-12.04,4.34-7.02,6.01-14.77,11.15-22.22,16.64-3.2,2.35-6.72,4.36-9.56,7.08-3.8,3.63-2.84,8.29,2.15,9.63,7.15,1.92,14.54,2.98,23.05,4.65ZM813.28,706.17c-.41,1.79-.34,2.81-.81,3.31-7.27,7.71-14.69,15.27-21.85,23.07-1.31,1.42-1.66,3.72-2.46,5.61,1.98.51,4.25,1.89,5.88,1.34,3.23-1.09,6.38-2.9,9.08-5.02,4.96-3.9,9.58-8.25,14.32-12.39,3.76,3.8,2.49,6.74-1.04,9.69-4.73,3.95-9.32,8.06-13.79,12.3-1.01.96-1.23,2.75-1.81,4.16,1.47.33,3.16,1.3,4.37.88,4.02-1.42,8.17-2.87,11.7-5.19,3.67-2.41,6.68-5.83,10.16-8.99.62.77,1.68,1.73,1.54,1.96-3.13,5.12-6.39,10.16-10.52,16.59,3.55-.57,6.14-.47,8.27-1.42,8.02-3.55,11.96-9.66,10.87-18.67-.3-2.47-.12-4.99-.23-7.49-.44-10.31-.7-20.64-1.53-30.92-.17-2.12-2.36-5.69-3.85-5.81-7.89-.63-15.95-1.34-22.85,4.32-6.55,5.37-13.49,10.28-20.08,15.62-1.15.94-2.28,3.4-1.82,4.44.54,1.21,2.8,2.07,4.41,2.25,1.52.17,3.25-.53,4.72-1.22,5.54-2.59,11-5.34,17.3-8.42ZM227.91,454.6c-9.24,2.18-16.24,6.17-21.27,13.23-.83,1.16-1.6,2.73-1.55,4.08.37,10.89,2.09,21.48,8.26,30.8,3.33,5.02,6.05,5.55,11.31,2.59,14.92-8.39,27.02-19.78,36.13-34.28,6.17-9.84,5.77-11.34-5.17-15.54-10.04-3.85-20.22-3.94-22.88,10.57-1.16,6.34-2.92,12.93-8.66,17.68-2.45-10.1-.99-19.38,3.83-29.15ZM717.47,492.26c-1.68,13.18,7.13,18.87,15.36,25.08-3.06,11.3-.25,20.57,10.12,27.65-2.52.46-4.87.6-6.77-.24-8.88-3.96-12.04-11.6-12.38-19.91-4.19,4.86-8.57,9.96-13.49,15.68,1.38,2.67,5.17,5.45,15.19,10.63,2.83,1.46,5.3,3.8,7.57,6.09,3.82,3.86,7.36,8.01,11.12,12.15,20.97-37,5.76-61.68-26.71-77.13ZM83.02,539.71c.55-3.16.87-4.77,1.1-6.4,1.16-8.16,3.48-15.44,11.95-19.24,9.63-4.32,19.84-5.19,30.11-5.79,1.2-.07,2.51,1.6,3.77,2.46-.81,1.12-1.39,2.77-2.49,3.25-3.15,1.38-6.58,2.12-9.75,3.47-1.33.56-2.29,2.01-3.41,3.05,1.34,1.11,2.79,3.29,4,3.16,10.66-1.1,21.44-1.92,31.85-4.27,5.75-1.3,6.39-8.53,1.62-12.31-2.38-1.89-5.42-3.32-8.38-4.07-20.12-5.04-39.99-3.65-59.05,4.24-6.89,2.85-13.28,7.48-19.03,12.33-4.98,4.19-4.24,8.28,1.28,11.65,5,3.05,10.43,5.42,16.43,8.48ZM640.21,632.48c.47-.5.95-1,1.42-1.49-2.41-3.17-4.38-6.83-7.3-9.43-29.1-26-61.49-47.61-93.56-69.65-3.7-2.54-7.95-4.28-11.95-6.39-.57.5-1.13.99-1.7,1.49,2.13,3.9,3.56,8.48,6.54,11.57,6.21,6.46,13.02,12.4,19.99,18.06,9.18,7.46,19.16,13.48,30.74,16.93,5.26,1.57,10.66,4.4,14.66,8.09,6.29,5.8,11.55,12.75,17.08,19.35,6.36,7.58,14.28,11.51,24.08,11.49ZM465.48,629.77c-1.08-.16-2.04-.33-3-.43-12.24-1.18-24.31-1.17-35.2,5.75-3.57,2.27-6.69,5.69-5,9.85,1.17,2.88,4.51,5.85,7.51,6.85,8.75,2.91,17.74,1.63,26.52-.66,19.38-5.06,29.66-22.4,24.37-41.84-.78-2.84-3.78-6.55-6.35-7.1-4.2-.91-4.72,3.71-5.33,6.89-1.3,6.81-2.35,13.67-3.53,20.7ZM171.36,183.04c-11.63-2.5-22.87-4.91-34.71-7.46-.97,9.5-7.46,7.81-13.37,7.28-.82-.07-1.64-.27-2.45-.45-16.35-3.56-31.63.15-46.42,6.95-1.38.63-2.48,1.87-4.2,3.21,6.67,5.3,13.39,6.95,20.99,6.18,23.17-2.33,46.33-4.83,69.55-6.53,5.77-.42,8.41-2.66,10.62-9.2ZM420.18,628.77c9.63-2.3,19.12-4.4,28.51-6.86,7.82-2.05,12.43-9.68,11.39-18.07-.76-6.08-5.43-9.43-14.05-9.8-10.2-.44-20.1,1.2-29.79,4.45-2.51.84-3.34,2.01-3.29,4.59.19,9.15,2.9,17.51,7.24,25.7ZM153.73,525.8c-2.07.29-3.88.41-5.63.8-12.01,2.7-23.9,5.4-36.08.22-5.85-2.49-10.56.68-13.1,7.68-1.92,5.3.29,10.37,5.82,12.39,3.24,1.18,6.69,1.93,10.11,2.44,10.32,1.53,20.66,3.06,31.03,4.16,6.28.67,7.5-.44,7.78-6.5.31-6.93.07-13.88.07-21.17ZM919.94,102.25c.74-3.09,2.33-5.94,1.87-8.41-2.45-13.2-7.11-25.63-16.04-35.91-4.01-4.61-9.6-5.12-13.79-1.3-4.13,3.76-7.59,8.31-11,12.77-2.22,2.9-1.24,5.77,1.77,7.63,2.38,1.47,5.05,2.47,7.5,3.84,5.62,3.13,11.47,5.96,16.69,9.66,4.56,3.23,8.39,7.49,13.01,11.71ZM879.29,436.87c8.53.82,15.29,1.18,21.95,2.2,6.21.95,12.28,2.81,18.49,3.78,1.54.24,3.38-1.4,5.08-2.18-.76-1.52-1.12-3.68-2.35-4.43-3.93-2.38-7.99-5.12-12.36-6.08-7.42-1.64-15.09-2.31-22.7-2.79-2.65-.17-6.38.62-7.84,2.41-1.34,1.65-.28,5.24-.28,7.08ZM699.41,500.36c-6.45-.04-12.39,4.9-12.53,10.42-.15,6.02,7.19,12.56,14.32,12.75,6.12.17,10.65-4.3,10.77-10.6.14-7.23-5.15-12.52-12.56-12.57ZM716.21,463.95c-2.18,1.66-5.84,4.11-9.08,7.02-3.04,2.73-2.94,6.12-.62,9.43,4.78,6.83,11.14,7.03,16.21.48,1.21-1.57,2.41-3.2,3.29-4.96,2.49-4.96-2.16-12.04-9.8-11.97ZM619.16,839.26c-2.43-1.76-4.91-4.82-6.36-4.39-8.56,2.55-16.88,5.91-25.27,8.99.02.63.05,1.26.07,1.89,2.83,2.19,5.78,4.26,8.47,6.62,2.03,1.78,3.69,1.58,5.68.05,5.37-4.14,10.82-8.19,17.42-13.16ZM969.17,863.95c-12.76,4.29-24.96,8.38-37.44,12.57,9.01,10.03,34.83,1.14,37.44-12.57ZM521.94,519.33c1.2-2.93,2.73-5.11,2.93-7.41.68-8.1,1-16.24,1.21-24.38.04-1.5-1.11-3.02-1.72-4.54-1.23,1.1-3.03,1.97-3.59,3.34-1.75,4.27-3.29,8.66-4.45,13.13-1.85,7.13-1.12,13.77,5.63,19.86ZM852.32,487.13c11.84,4.61,13.11,4.08,17.5-6.74.43-1.07.68-2.24,1.26-3.21,2.52-4.17,1.36-7.41-2.65-10.44-8.34,4.28-11.39,12.63-16.12,20.39ZM938.71,896.56c.14.61.28,1.22.42,1.83,1.46.55,2.92,1.58,4.37,1.55,5.3-.1,10.64-.23,15.89-.93,7.86-1.06,12.67-8.84,10.82-17.33-1,.74-2.04,1.25-2.74,2.06-4.69,5.47-10.85,7.9-17.77,8.85-1.81.25-3.71.29-5.38.92-1.97.74-3.75,2.01-5.61,3.05ZM677.53,521.82c-4.88.06-8.34,3.12-8.29,7.34.05,4.86,5.3,9.71,10.31,9.55,4.5-.15,7.57-3.58,7.39-8.26-.21-5.39-3.82-8.69-9.42-8.63ZM690.96,496.23c5.15-.08,9.47-4.18,9.44-8.95-.03-4.51-3.59-7.46-8.8-7.3-5.47.17-9.96,4.01-9.92,8.48.04,4.22,4.37,7.84,9.29,7.77ZM669.58,499.69c-4.73.01-8.01,2.8-8.09,6.89-.09,4.26,4.19,8.3,8.83,8.34,4.18.04,7.64-3.61,7.67-8.07.02-4.15-3.52-7.16-8.4-7.15ZM618.87,870.31c-6.03-1.49-13.16-.07-14.32,3.36-.63,1.86.26,4.8,1.46,6.6,2.03,3.06,5.49,5.15,9.03,3.25,5.23-2.8,3.98-8.13,3.83-13.21ZM685.55,462.77c7.01-4.83,7.09-7.42.39-12.96-6.67,4.46-6.72,6.36-.39,12.96Z"/>
  <path class="cls-1" d="M0,1047.83c14.27-17.73,33.97-21.88,54.73-19.03,18.19,2.5,34.51-.38,50.46-8.55,6.58-3.37,13.32-5.62,21.05-3.62,5.75,1.49,17.33-8,17.79-13.92.13-1.66.36-3.36.13-4.99-2.22-16.29,3.07-31.18,8.6-45.99.65-1.73,2.63-3.82,4.26-4.08,1.51-.24,3.87,1.37,4.99,2.83,2.93,3.81,5.53,7.89,7.99,12.03,2.99,5.03,4.03,10.31,2.37,16.24-.54,1.94.63,4.8,1.87,6.69,1.52,2.31,3.94,4.03,5.95,6.02,2.34,2.31,2.97,4.79,1.87,8.12-.6,1.84-.31,5.59.69,6.04,2.87,1.3,6.35,1.91,9.47,1.62,1.14-.11,2.72-3.5,2.82-5.45,1.22-25.48-5.6-49.28-15.66-72.35-2.12-4.86-4.11-9.78-6.3-14.61-4.03-8.9-4.32-18.07-1.62-27.25,2.52-8.57,5.44-17.03,8.51-25.42,3.25-8.92,9.23-15.69,17.51-20.35,4.68-2.63,6.96-2.18,9.98,2.28,14.34,21.19,19.17,44.19,13.1,69.26-1.91,7.9-3.76,15.81-5.35,23.78-.5,2.52-.08,5.22-.08,7.84.44.4.87.79,1.31,1.19,1.46-1.91,3.06-3.71,4.34-5.73,6.38-10.11,13.4-19.91,18.82-30.53,6.17-12.09,15.71-18.47,28.51-20.91,3.09-.59,6.25-1.03,9.39-1.04,3.56,0,6.15,2.33,5.35,5.72-4.34,18.31-6.82,37.69-22.9,50.53-7.11,5.68-15.1,10.27-22.67,15.38-1.52,1.02-3.29,1.93-4.31,3.34-1.08,1.49-2.4,4.61-1.86,5.11,1.58,1.46,4.08,2.73,6.14,2.62,2.09-.12,4.13-1.9,6.1-3.1,11.08-6.71,22.09-13.53,33.24-20.12,1.7-1.01,4-1.01,6.02-1.48.45,1.99,1.4,4.02,1.26,5.97-.24,3.28-.43,6.92-1.99,9.64-1.66,2.89-4.51,5.66-7.51,7.05-3.98,1.85-8.63,2.23-12.95,3.38-10.16,2.71-17.37,8.83-20.99,18.8-1.71,4.69-3.06,9.5-4.57,14.26.66.56,1.32,1.12,1.98,1.68,3.04-1.83,6.39-3.3,9.05-5.58,5.31-4.54,10.05-9.74,15.38-14.25,6.5-5.5,7.42-5.05,10.81,2.52,1.12,2.49,2.96,4.65,5.44,8.46,3.64-4.48,7.37-7.66,9.29-11.7,4.48-9.41,8.03-19.26,12.1-28.87,1.48-3.5,3.19-6.94,5.16-10.18.65-1.08,2.78-2.32,3.64-1.98,1.36.54,3.1,2.3,3.16,3.62.25,5.48-.05,10.98-.18,16.47-.02.83-.45,1.7-.29,2.47.86,4.08.82,9.03,3.24,11.8,1.22,1.4,7.26-.61,10.66-2.11,5.9-2.61,11.43-6.07,17.16-9.1,1.75-.93,3.61-2.07,5.49-2.23,1.96-.16,4,.76,6.01,1.21-.46,1.94-.49,4.13-1.47,5.76-1.44,2.4-3.96,4.17-5.26,6.61-1.71,3.19-2.68,6.77-4.23,10.87,8.52.5,14.65-2.57,20.71-5.43,8.1-3.82,16.25-4.25,24.72-1.76,6.83,2.02,13.78,3.71,20.51,6.03,6.25,2.15,12.01,1.27,17.92-1.06,13.87-5.44,27.76-10.82,41.71-16.05,12.58-4.72,24.02-11.29,34.02-20.3.87-.78,1.66-1.75,2.68-2.23,14.09-6.72,14.07-19.64,14.18-32.41.06-6.49-.71-13.01-.34-19.47.23-4,1.76-7.96,3-11.84.3-.95,1.99-2.3,2.63-2.11,1.16.35,2.54,1.56,2.88,2.69.84,2.84,1.67,5.85,1.59,8.76-.56,19.47-1.51,38.94-2.02,58.41-.18,6.89-3.88,11.11-9.63,13.12-26.72,9.36-53.22,19.71-80.53,26.9-13.58,3.58-28.76,1.69-43.18,1.24-13.57-.42-26.5-.01-39.47,5.48-8.45,3.57-18.39,4.86-27.68,4.98-34.49.43-67.35,9.01-100.08,18.49-5.57,1.61-11.63,3.41-13.45,10.74,7.3,3.17,14.85,2.4,22.21,1.81,9.93-.79,19.78-2.68,29.72-3.42,3.36-.25,7.31.88,10.23,2.63,6.16,3.72,12.5,5.48,19.5,3.99,7.68-1.63,14.35.67,19.87,5.58,7.68,6.82,15.11,7.44,23.91,2.02,11.08-6.82,23.63-6.39,35.92-4.94,21.93,2.59,43.78,5.94,65.71,8.56,16.49,1.97,30.05-4.15,40.46-16.87,5.68-6.94,10.88-14.29,16.04-21.64,4.27-6.09,9.37-9.74,17.27-9.98,11.96-.37,23.88-1.92,35.84-2.48,6.49-.31,10.58,3.01,12.49,8.7,2.05,6.11-1,10.45-7.46,10.03-9.46-.62-18.9-1.55-28.35-2.46-10.32-.99-19.05,1.88-25.63,10.2-2.82,3.56-2.26,5.52,2.05,6.92,2.04.66,4.16,1.2,6.29,1.4,5.1.47,8.62,2.66,10.6,7.64,2.09,5.26,7.25,5.98,11.99,6.62,11.74,1.58,23.45,2.1,35.16-.93,5.14-1.33,9.06-3.89,12.17-8.01,2.3-3.06,4.75-6.01,6.95-9.14,5.26-7.49,12.71-9.6,21.09-7.78,5.86,1.27,10.63-.28,15.75-2.64,4.54-2.1,9.48-3.44,14.36-4.68,3.01-.76,4.94-1.96,4.74-5.26-.12-1.97-.21-4.02-.83-5.87-4.29-12.79-11.32-23.69-20.86-33.43-8.56-8.74-16.09-18.6-23.37-28.48-7.92-10.75-15.68-21.5-26.32-29.84-9.14-7.17-14.52-17.18-19.94-27.14-8.97-16.47-17.97-32.92-27.11-49.3-2.02-3.61-4.79-6.8-6.96-10.33-4.11-6.69-9.99-8.59-17.51-7.45-7.58,1.14-17.73,5.76-22.03,10.69,11.98,10.42,18.48,23.53,17.72,39.48-.3,6.35-2.44,12.63-3.95,18.89-1.07,4.45-4.2,5.17-8.08,3.69-5.11-1.94-10.34-3.66-15.24-6.06-5.05-2.48-9.34-2-14.03.95-8.72,5.47-17.57,10.76-26.6,15.69-8.28,4.51-9.05,4.15-14.23-3.87-2.07-3.2-3.9-6.57-5.66-9.95-6.37-12.23-7-24.41.83-36.5-5.89-3.91-11.67-7.63-17.32-11.53-3.34-2.3-3.77-7.47-.85-10.18,8.71-8.07,18.09-15.23,29.1-19.88,9.19-3.88,18.47-4.09,27.35.95,6.95,3.94,8.52,9.82,4.45,17.57-1.28-1.42-2.51-2.5-3.39-3.81-4.6-6.93-10.63-10.12-18.35-7.59-6.64,2.18-13.14,5.51-18.89,9.5-6.31,4.39-5.7,6.49,1.03,10.07,4.97,2.65,9.86,5.44,15.28,8.45-1.93,7.42-3.99,14.71-5.71,22.09-1.39,5.97-2.76,11.98-3.45,18.05-.61,5.37,1.4,6.82,6.83,6.03,9.64-1.41,16.83-6.93,22.76-14.16,10.37-12.64,15.43-27.45,16.12-43.62.35-8.27,4.03-13.93,11.04-17.55,4.55-2.35,9.46-4,14.13-6.13,13.29-6.07,17.18-12.53,16.03-27.04-.37-4.63.39-8.23,4.5-11.22,3.3-2.4,5.8-5.89,9.92-10.22.53,5,1.9,8.95,1.13,12.41-2.39,10.71-.87,20.67,3.35,30.6,5.25,12.34,10.17,24.83,15.04,37.33,1.2,3.08,2.85,4.68,6.12,5.69,2.29.71,4.72,2.99,5.83,5.21,7.18,14.21,13.88,28.66,21.01,42.9,5.8,11.58,14.04,21.21,23.57,30.04,8.77,8.13,16.39,17.49,24.65,26.18,10.2,10.74,20.27,21.49,27.94,34.35,2.06,3.45,5.99,6.2,9.66,8.16,3.94,2.11,5.79,4.53,5.41,8.97-.87,10.15-2.37,14.83,12.31,11.55,2.81-.63,6.06-.74,8.76.07,1.92.58,3.24,3.11,4.83,4.77-1.69,1.61-3.16,4.13-5.13,4.62-3.3.82-6.93.3-10.42.45-4.02.17-8.03.44-12.05.67-.3.71-.6,1.42-.9,2.12,2.12,1.96,3.92,4.76,6.42,5.71,6,2.29,12.34,3.7,18.54,5.47,2.05.59,4.08,1.21,6.15,1.83-2.62,7.07-4.05,7.43-13.22,5.75-9.85-1.81-19.5-5.31-27.43-12.18-1.65-1.43-4.07-1.96-6.2-2.94-2.46,3.95-1.66,7.16.19,10.58,1.31,2.42,3.87,5.13.39,7.91-3.44,2.76-6.57,2.21-9.75-.65-3.71-3.34-7.4-6.75-11.46-9.62-8.66-6.13-14.54-6.08-23.37-.23-10.25,6.8-20.61,13.44-30.62,20.58-9.58,6.84-18.96,8.39-29.55,2.14-13.08-7.72-27.95-10.27-42.6-13.03-7.69-1.45-15.07,1.04-22.44,3.31-20.53,6.33-41.38,11.05-63.07,10.34-14.48-.48-28.95-1.75-43.41-1.63-8.35.07-16.82,1.61-24.99,3.55-10.48,2.49-20.23,2.76-29.6-3.54-6.91-4.65-14.63-3.49-22.21-1.87-7.83,1.67-14.91.93-20.37-5.71-.1-.13-.25-.22-.36-.34-11.54-11.66-24.49-14.67-39.77-7.44-7,3.31-14.53,5.62-21.98,7.85-9.3,2.79-18.49.71-27.48-1.9-13.48-3.91-26.72-5.07-40.7-1.4-6.93,1.82-14.86-.03-22.31-.52-.95-.06-2.24-1.83-2.54-3.02-.38-1.53-.01-3.28.19-4.92.48-3.8.39-7.42-3.3-9.74-3.68-2.31-7.37-1.55-10.81.53-2.11,1.28-4.16,2.81-5.9,4.56-10.45,10.51-22.82,11.79-36.42,8.04-5.88-1.62-11.79-3.71-17.79-4.18-8.08-.63-15.3,2.41-21.04,8.44-2.07,2.17-4.2,4.3-6.44,6.28-6.88,6.07-8.62,5.93-14.3-.85v-7ZM200.78,941.39c.76-.1,1.52-.21,2.28-.31.93-2.86,2.24-5.67,2.7-8.61.67-4.26.81-8.61,1.04-12.92.42-8.13,2.04-16.47.81-24.36-1.82-11.72-5.59-23.15-8.81-34.63-.42-1.51-2.35-3.11-3.9-3.57-.76-.22-2.84,1.89-3.34,3.29-3.12,8.73-6.32,17.46-8.72,26.4-.97,3.6-.86,8.02.29,11.58,3.92,12.12,8.41,24.07,12.96,35.98.99,2.6,3.1,4.77,4.69,7.14ZM230.09,957.01c16.43-9.17,28.63-20.92,33.16-39.16,1.12-4.48,2.69-8.86,3.78-13.34.4-1.66.03-3.5.02-5.27-2.04.3-4.56-.06-6.04,1.02-17.97,13-27.04,31.61-32.31,52.47-.3,1.18.85,2.72,1.39,4.29ZM179.38,1029.1c-4.05-5.76-10.5-5.14-16.2-6.17-3.21-.58-7.83-1.7-9.61-.11-4.24,3.78-9.17,4.01-13.97,5.5-1.44.45-3.02,3.45-2.95,5.21.17,4.16,2.68,4.91,7.65,4.13,7.14-1.13,14.44-2.66,21.54-2.16,6.18.44,10.67-.13,13.54-6.4Z"/>
  <path class="cls-4" d="M1199.97,183.97c-1.89,6.72-5.48,12.25-10.95,16.72-3.56,2.91-4.65,6.97-4.45,11.64.38,9.15.17,18.32.58,27.46.23,5.06-2.16,7.82-6.54,9.25-6.3,2.05-12.61,4.07-19.01,5.79-3.01.81-4.02,2.12-3.43,5.24,3.46,18.27,1.36,36.05-5.08,53.39-2.59,6.97-.85,12.78,5.38,17.5,10.63,8.05,19.81,17.31,24.83,29.97,1.46,3.69,2.25,7.66,3.85,11.27,1.89,4.24.11,6.47-3.06,9.15-11.05,9.35-23.31,9.96-36.55,6.27-12.77-3.56-25.64-6.76-38.47-10.11-1.11-.29-2.25-.45-4.57-.91,0,3.57-.77,6.97.15,9.83,2.29,7.06,5.43,13.85,8.09,20.8,1.59,4.14,3.66,8.29,4.2,12.6,1.06,8.6-3.42,13.43-12.18,14.08-19.02,1.41-36.59-2.96-52.64-13.37-4.04-2.62-8.09-5.3-12.4-7.4-6.19-3.02-11.58-.64-13.91,5.86-1.45,4.05-2.48,8.25-3.86,12.33-1.87,5.53-4.88,7.22-10.73,6.28-23.23-3.71-34.49-19.46-40.13-40.45-1.53-5.71-1.79-11.8-2.17-17.74-.09-1.44,1.66-3,2.57-4.51,1.18,1.34,2.9,2.5,3.45,4.06,3.58,10.31,6.5,20.88,10.45,31.04,3.27,8.41,9.38,14.57,18.64,16.45,1.93.39,5.21-.14,6.15-1.46,9.81-13.87,17.12-28.49,12.35-46.36-1.78-6.68-5.6-11.56-11.69-15.03,1.93-3.41,3.63-5.25,7.95-3.85,12.95,4.2,25,3.84,33.84-8.68.6-.86,1.82-1.56,2.86-1.78,16.21-3.44,32.24-9.01,49.06-7.16,11.3,1.24,22.42,4.18,33.58,6.58,1.46.31,2.64,1.91,3.95,2.92-1.52.45-3.04,1.3-4.54,1.27-11.31-.25-22.61-.85-33.92-.95-4.09-.03-9.66.45-9.91,5.29-.14,2.79,3.85,7.27,6.94,8.45,8.91,3.39,18.17,6.72,27.56,7.79,13.34,1.52,26.9,1.03,40.37,1.33,1.29.03,2.6-.48,4.17-.79,1.48-12.73-4.72-21.69-13.83-29.19-16.86-13.89-36.78-15.75-57.49-14.39-1.16.08-2.31.32-3.47.41-1.98.15-3.97.24-7.37.44-.29-4-1.31-8.03-.72-11.81,3.06-19.74,4.05-39.45-1.03-58.93-1.47-5.63-4.66-10.92-7.63-16.04-2.7-4.65-5.91-5.14-9.85-1.55-14.83,13.48-24.37,29.38-22.12,50.42.37,3.47.55,6.97.78,10.46.34,5.18,1.98,6.65,7.6,7.07,4.63.35,7.43-1.81,8.14-6.21.95-5.9,1.44-11.88,2.26-17.81.45-3.25,1.16-6.46,1.79-9.92,4.52,1.43,6.97,3.83,6.18,8.44-1.76,10.28-3.28,20.61-5.54,30.78-.88,3.95-1,6.59,3,8.45,1.31.61,2.45,1.72,3.49,2.77,2.26,2.31,2.29,4.82-.98,5.78-7.44,2.18-15,3.97-22.57,5.63-1.05.23-2.89-.78-3.62-1.77-7.27-9.82-16.83-16.38-28.26-20.4-.78-.27-1.64-.54-2.23-1.07-1.16-1.05-3.04-2.36-2.96-3.44.09-1.16,1.93-2.49,3.29-3.17,3.1-1.56,6.45-2.63,9.56-4.17,4.93-2.45,7.5-6.5,7.14-12.09-.34-5.32-.79-10.63-1.35-15.92-.51-4.85-3.96-5.36-7.98-5.39-12.43-.08-21.93,5.76-30.01,14.53-4.07,4.41-7.77,9.16-12.05,13.34-2.1,2.05-5.12,3.14-7.73,4.67-.46-.48-.92-.96-1.38-1.44.69-2.09,1.34-4.2,2.08-6.28,3.86-10.93,7.63-21.9,11.64-32.77,2.56-6.96,4.01-7.5,11.24-6.1,16.6,3.2,32.52,1.38,47.02-7.7,4.72-2.95,8.81-7.05,12.76-11.04,3.17-3.21,2.9-6.94-.59-10.03-14.61-12.97-31.3-18.58-50.65-13.52-7.01,1.83-12.02,6.18-13.16,14.3,10.53,3.09,21.4-5.01,31.86,1.81-5.12,1.73-10.18,3.65-15.37,5.13-8.44,2.42-16.99,4.44-25.44,6.84-4.06,1.15-5.79-.27-6.61-4.23-1.51-7.3,1.29-12.75,6.16-17.95,5.43-5.77,10.9-11.68,15.22-18.27,6.64-10.13,5.38-20.74-.36-31.1-1.44-2.6-2.2-5.57-3.8-9.73,10.88,2.79,19.29,6.78,27,12.24.89.63,1.18,2.25,1.52,3.47,5.98,21.35,19.56,35.4,40.61,42.26,7.71,2.51,15.4,5.15,23.19,7.37,7.46,2.13,10.81-.56,10.84-8.16.05-10.62,1.85-12.85,12.53-13.96,3.04-.32,6.37.25,9.31,1.2,9.47,3.03,18.85,6.34,28.18,9.77,2,.73,3.64,2.42,5.45,3.66-.11.6-.22,1.21-.33,1.81-2.1.23-4.3.99-6.27.6-8.46-1.67-16.83-3.73-25.26-5.54-1.92-.41-4.23-1.1-5.83-.42-2.22.94-4.66,2.72-5.62,4.79-.56,1.21,1.08,4.26,2.56,5.48,17.31,14.26,37.5,18.56,59.34,16.31,6.01-.62,7.54-2.52,6.82-8.63-.97-8.22-2.24-16.46-4.25-24.48-1.71-6.83-7.2-10.74-13.75-12.54-15.63-4.31-31.65-6.4-47.83-5.87-5.42.18-10.77,2.78-16.72,4.44-1.38-13.84-5.56-26.25-21.01-29.54-.38-.89-.49-1.04-.51-1.2-.83-7.16,1.38-12.05,8.23-15.94,6.32-3.58,11.35-9.45,18.15-15.35-5.06-2.4-8.6-3.95-12-5.73-7.02-3.66-14.24-7.05-20.91-11.27-13.09-8.28-26.98-11.86-42.24-8.44-2.3.52-4.24,2.67-6.35,4.06,1.41,2.12,2.35,5.03,4.32,6.2,5.54,3.28,11.53,5.79,17.3,8.69,3.64,1.83,7.2,3.81,10.8,5.72l-.35,1.93c-2.59,0-5.42.69-7.73-.12-8.54-2.99-16.91-6.45-25.32-9.8-1.37-.55-2.52-1.61-3.88-2.21-5.47-2.41-7.95-1.21-11.62,5.49-2.6,4.75-2.03,7.24,3.02,10.28,13.2,7.95,27.17,13.88,42.68,15.54,4.59.49,5.88,2.54,6.02,10.15-12.97-1.87-26.07-2.25-38.21-7.95-15.89-7.46-31.87-14.74-47.8-22.13-1.43-.67-2.73-1.63-5.24-4.31,1.34-.65,2.77-1.16,4.01-1.96,16.35-10.52,32.8-20.9,48.96-31.72,6.77-4.54,13.49-4.87,20.79-2.26,6.86,2.45,13.69,5,20.62,7.26,5.4,1.76,7,.88,7.99-4.61,4.15-23.25,17.22-39.92,37.64-51.1,5.58-3.06,8.82-7.34,11.86-13.07,4.84-9.12,11.57-17.31,18.05-25.45,2.33-2.92,6.23-4.59,9.42-6.83,1.33,0,2.67,0,4,0,7.72,2.86,14.6,7.27,19.16,14.02,6.36,9.4,11.97,19.33,17.6,29.21,2.41,4.22,1.57,8.62-1.12,12.66-1.39,2.1-2.61,4.31-4.12,6.83,7.53,1.68,15.32-.17,20.47,6.27v14c-.25.2-.67.38-.71.61-3.28,20.8-16.15,35.57-31.04,48.96-3.06,2.75-2.84,4.43.2,6.55,3.4,2.38,6.77,4.81,10.16,7.21,9.15,6.47,17.78,13.38,21.4,24.65v13ZM1114.78,103.85c.51,1.72.85,2.99,1.26,4.23,2.76,8.35,7.57,15.19,15.33,19.5,1.98,1.1,4.93,1.7,7.05,1.12,8.45-2.31,17.01-4.57,25.05-7.97,15.32-6.47,25.29-17.87,28.93-34.41,1.23-5.61-.12-8.47-5.64-10.27-3.93-1.29-7.98-2.19-11.99-3.25-10.54-2.78-13.39-1.34-17.75,8.58-2.8,6.36-5.02,13.18-8.91,18.82-8.88,12.87-9.4,12.01-21.78,3.6-.1-.07-.13-.25-.2-.39.21-.25.38-.58.65-.75,17.14-10.88,27.64-26.98,35.48-45.16,2.28-5.29,1.04-8.06-4.61-9.66-3.32-.94-6.81-1.67-10.24-1.77-12.89-.37-24.34,4.49-35.27,10.63-14.72,8.26-26.08,20.01-33.9,34.95-1.22,2.34-1.63,6.24-.45,8.32.85,1.52,4.91,1.63,7.55,1.66,3.98.05,6.43-2.32,8.46-5.81,7.84-13.48,20.62-20.79,34.41-26.69.67-.29,1.57-.04,2.62-.04.64,5.41-3.65,7.32-6.62,9.8-6.77,5.65-14.01,10.75-20.56,16.63-1.79,1.61-1.83,5.18-2.67,7.85,2.52.74,5.01,1.87,7.58,2.08,1.85.15,3.8-.93,6.22-1.6ZM1151.17,163.13c.06.57.12,1.14.18,1.71-2.4.71-4.75,1.69-7.2,2.09-13.23,2.13-25.82.92-37.04-7.37-1-.74-3.5-1.08-4.01-.49-.88,1.03-1.52,3.38-.92,4.38,2.41,4.05,4.52,9.18,8.23,11.36,8.78,5.16,18.04,10.34,27.79,12.8,14.87,3.76,30.08.5,44.86-2.61,12.48-2.62,11.82-12.02,5.33-19.9-5.37-6.52-11.45-12.67-18.11-17.83-5.08-3.93-11.33-6.8-17.5-8.71-3.75-1.16-9.98-1.23-12.23,1.04-5.04,5.09-10.47,5.69-16.73,5.53-2.14-.06-4.49-.01-6.38.81-1.69.73-3.63,2.41-4.06,4.04-.35,1.31,1.02,3.59,2.27,4.72,4.99,4.52,11.53,3.32,17.49,4.3,6.1,1,12.62.32,18.02,4.14ZM1120.1,289.48l-2.08.02c-5.59-3.86-7.27-9.91-9.13-15.99-1.14-3.74-2.79-7.41-4.79-10.75-.68-1.13-3.26-1.78-4.78-1.51-1.03.18-2.43,2.37-2.41,3.63.16,7.25-.32,14.73,1.31,21.69,3.95,16.85,14.06,29.46,29.36,37.74,5.34,2.89,8.15,2.42,9.8-2.08,6.4-17.36,10.04-35.17,6.42-53.68-3.39-17.37-14.77-28.85-30.33-30.57-3.45-.38-7.12,1.2-10.69,1.88,1.16,3.43,1.96,7.05,3.56,10.26,4.12,8.26,9.23,16.08,12.68,24.59,1.76,4.35.8,9.81,1.07,14.77ZM1030.83,389.46c1.92,3.86,3,7.25,5.03,9.9,11.73,15.26,27.28,22.95,46.6,21.77,16.59-1.01,17.9-2.94,16.25-19.59-2.24-22.64-12.48-33.86-33.74-35.99-9.41-.94-18.34,1.35-25.99,7.16,1.59,7.32,7.24,6.77,12.27,7.17,9.88.79,18.84,3.87,26.17,10.73,3.38,3.16,5.91,6.94,5.25,11.98-7.93,1.62-14.16-.63-20.16-5.45-8.78-7.07-18.67-11.25-31.69-7.67ZM1174.83,51.54c.35-3.01,1.19-4.86.59-5.8-7.37-11.56-14.81-23.09-22.55-34.41-2.3-3.36-5.85-3.1-8.56-.2-4.05,4.34-8.33,8.63-11.55,13.57-5.55,8.52-3.44,13.53,6.54,13.8,13,.36,25.03,2.21,35.53,13.03Z"/>
  <path class="cls-2" d="M1199.97,1320.79c-13.32-.32-26.65-.51-39.97-1.12-2.02-.09-4.63-1.67-5.82-3.37-14-19.83-27.92-39.72-41.51-59.83-2.45-3.63-4.83-5.29-9.14-4.81-3.28.36-6.62.07-10.27.07v56.5c8,.85,16.17,1.72,24.49,2.61v9.42h-78.04v-9.43c8.43-.84,16.97-1.68,25.89-2.57v-129.64c-8.61-.71-17.32-1.42-26.26-2.16v-10.21c3.37.15,6.77.41,10.17.43,19.49.16,38.99.18,58.48.43,14.02.18,27.82,1.57,40.83,7.61,25.14,11.67,26.46,39.8,14.62,54.81-6.87,8.71-16.4,13.27-27.1,16.85.93,1.67,1.72,3.26,2.67,4.75,12.56,19.69,26.63,38.24,42.72,55.17,2.05,2.15,6.1,2.58,9.34,3.37,2.89.7,5.92.77,8.89,1.12v10ZM1092.93,1240.69c9.86-.68,19.25-.57,28.34-2.13,11.16-1.91,19.07-10.9,20.67-21.64,1.9-12.74.41-24.5-11.55-32.09-11.6-7.36-24.63-6.19-37.46-5.79v61.64Z"/>
  <path class="cls-3" d="M0,1165.81c9.81.4,19.61,1.08,29.42,1.14,25.97.16,51.95.05,77.83.05q3.65-8.95,13.2-7.99v42.6h-10.62c-1.34-7.38-2.7-14.85-4.11-22.6h-51.63v57.92h37.83c1.01-5.43,2.07-11.09,3.16-16.93h9.67v45.55h-9.65c-1.02-5.43-2.08-11.03-3.16-16.76h-38.24c0,5.28-.02,10.38,0,15.48.07,12.83.23,25.66.2,38.48,0,3.59,1.31,5.09,4.99,5.06,14.16-.12,28.32-.05,42.48-.06,6.57,0,11.12-3.02,13.23-9.28,2.38-7.06,4.59-14.18,6.95-21.5h9.97c-1.34,14.24-2.66,28.23-3.98,42.32-42.7.49-85.12.98-127.55,1.47,0-3.33,0-6.67,0-10,8.88-.82,17.76-1.63,26.64-2.45v-129.91c-9.09-.55-17.87-1.09-26.64-1.62C0,1173.15,0,1169.48,0,1165.81Z"/>
  <path class="cls-2" d="M309.99,1323.79v-50.68h10.63c1.11,5.99,2.18,12.13,3.44,18.24.36,1.72.83,3.81,2.02,4.91,11.79,10.98,25.62,17.07,41.82,14.03,17.19-3.23,24.68-23.88,13.3-37.42-5.62-6.68-13.54-11.59-20.87-16.64-9.97-6.86-20.93-12.36-30.48-19.73-15.68-12.11-20.47-31.35-12.89-48.21,6.96-15.48,20.37-21.55,36.2-23.44,12.22-1.46,24.16.27,36.1,4.63,1.13-3.87,2.17-7.45,3.28-11.27h9.78v44.37h-9.96c-1.13-5.4-2.11-10.91-3.53-16.3-.45-1.7-1.78-3.67-3.28-4.52-10.08-5.73-20.86-7.66-32.16-4.45-14.11,4.01-20.27,20.09-11.67,32.31,3.89,5.52,9.65,10.07,15.34,13.91,11.95,8.07,25.01,14.59,36.55,23.18,17.97,13.39,22.75,36.37,12.39,54.18-7.33,12.6-19.13,18.47-32.96,20.87-16.51,2.87-32.03-.33-46.74-8.05-.85-.45-1.77-.77-3.04-1.32-.79,4.01-1.53,7.7-2.26,11.39h-11Z"/>
  <path class="cls-3" d="M443.77,1319.93v-9.32c8.52-.71,17.06-1.42,25.97-2.16v-129.78c-8.54-.72-17.23-1.44-26.21-2.2v-9.65c6.67,0,13.11-.02,19.56,0,27.16.08,54.32.07,81.47.36,4.67.05,7.71-.68,7.81-6.02.01-.75.58-1.5.92-2.33h10.32v42.78h-10.4c-1.38-7.47-2.78-15.06-4.19-22.71h-51.68v58.38c11.86,0,23.77.08,35.67-.14.98-.02,2.49-1.94,2.79-3.2,1.04-4.5,1.66-9.09,2.48-13.87h9.63v45.36h-9.54c-1.05-5.38-2.11-10.85-3.2-16.44h-38.18c0,2.4,0,4.67,0,6.94,0,15.33.06,30.65-.04,45.98-.03,4.13,1.35,6.02,5.81,5.97,14.65-.19,29.31-.13,43.97-.05,7.21.04,12.07-3.11,14.33-10,2.26-6.88,4.4-13.81,6.64-20.86h10.13c-1.42,14.2-2.83,28.17-4.31,42.95h-129.75Z"/>
  <path class="cls-3" d="M996.07,1201.83h-9.93c-1.38-7.33-2.8-14.91-4.28-22.77h-51.94v57.84h37.96c1.03-5.37,2.13-11.14,3.24-16.95h9.55v45.57h-9.64c-1.02-5.45-2.05-10.94-3.1-16.54h-37.73c-.19.55-.47.99-.47,1.42.05,17.49.18,34.98.15,52.47,0,3.67,1.43,5,5.06,4.97,14.16-.12,28.31-.03,42.47-.06,6.32-.01,10.88-2.75,12.96-8.88,2.45-7.2,4.75-14.46,7.19-21.89h9.93c-1.34,14.25-2.66,28.24-4.04,42.97h-127.2v-9.4c8.61-.7,17.32-1.41,26.36-2.14v-129.78c-8.63-.71-17.34-1.43-26.35-2.17v-9.88h107.02c.92-2.32,1.28-6.25,3.24-7.36,2.37-1.35,6.09-.32,9.53-.32v42.89Z"/>
  <path class="cls-2" d="M634.8,1178.91c12.62,37.92,25.05,75.27,37.81,113.58,12.53-38.28,24.79-75.71,37.19-113.58-8.13-.83-15.99-1.63-24.15-2.46v-9.61h57.24v9.54c-4.08.54-8.14,1.18-12.23,1.58-3.47.34-5.39,1.79-6.62,5.35-15.28,44.31-30.82,88.53-46.07,132.84-1.49,4.32-3.38,6.16-8.04,5.59-4.57-.56-10.39,1.22-13.51-1.02-3.13-2.25-3.72-8.15-5.25-12.52-14.43-41.45-28.91-82.88-43.09-124.41-1.39-4.08-3.57-5.42-7.28-5.78-4.29-.42-8.58-.95-13.21-1.47v-9.64h71.47c.06,1.15.03,2.28.2,3.38.73,4.71-.61,6.81-6.01,6.72-5.93-.1-11.88,1.16-18.46,1.89Z"/>
  <path class="cls-2" d="M277,1271.19h9.72c-1.01,16.17-2.01,32.05-3.05,48.74h-120.16v-9.1c8.47-.83,17.16-1.68,26.17-2.56v-129.66c-8.59-.69-17.18-1.39-26.17-2.11v-9.87h80.13v9.65c-8.86.78-17.57,1.55-26.45,2.33-.09,1.66-.22,2.96-.22,4.27,0,39.14,0,78.29.02,117.43,0,7.29.06,7.46,7.07,7.54,10.32.12,20.65-.07,30.97-.06,6.97,0,11.81-3.07,13.92-9.78,2.77-8.81,5.32-17.69,8.06-26.84Z"/>
  <path class="cls-2" d="M762.12,1176.47v-9.59h79.65c0,1.67-.18,3.16.03,4.58.63,4.21-1.22,5.32-5.26,5.47-7.1.26-14.17,1.22-21.44,1.91v129.59c8.67.71,17.38,1.42,26.36,2.15v9.68h-79.95v-9.67c8.64-.71,17.21-1.41,26.12-2.14v-129.59c-8.33-.78-16.7-1.57-25.52-2.4Z"/>
  <path class="cls-4" d="M317.16,1022.64c3.67-5.09,7.82-3.45,11.61-3.48,4.76-.04,10.13,1.14,14.16-.64,13.99-6.19,28.74-5.45,43.35-7.07,9.43-1.04,17.37.65,25.8,4,11.8,4.69,23.21,3.78,34.02-3.88,5.62-3.98,12.04-6.88,18.27-9.91,3.58-1.74,6.88-.81,8.8,3.02,2.01,4.02,1.24,7.69-2.56,9.96-3.08,1.84-6.6,3.03-10.05,4.14-29.25,9.43-59.2,11.08-89.62,8.35-13.04-1.17-26.16-1.43-39.22-2.33-4.58-.32-9.11-1.33-14.55-2.17Z"/>
  <path class="cls-4" d="M526.47,603.52c9.74,2.81,10.3,9.98,10.31,16.12.03,18.41-1.02,36.82-1.35,55.23-.32,18.24-1.22,36.55.02,54.71.55,8.07,2.6,15.56-2.4,22.76-.36.52-.8,1-2.84,3.5-.86-1.91-1.61-3.34-2.16-4.85-3.45-9.48-6.75-19.02-10.32-28.45-1.27-3.36-.41-4.92,2.98-5.74,4.31-1.03,6.64-4.02,6.11-8.38-.75-6.18-2.29-12.26-3.01-18.44-.62-5.3-1.78-10.98-.55-15.97,3.06-12.47,3.2-24.88,2.56-37.57-.54-10.69.37-21.45.66-32.91Z"/>
  <path class="cls-4" d="M1005.08,409.13c-7.33-14.95-14.21-28.83-20.93-42.78-1.35-2.79-.25-5.38,2.99-5.14,3.99.3,8.29.91,10.19,5.53,2.89,7.03,5.65,14.13,8.79,21.05,3.14,6.91,1.9,13.47-1.04,21.35Z"/>
  <path class="cls-4" d="M1017.29,77.17c.94-1.89,1.47-4.18,2.87-5.61,8.31-8.48,17.86-15.2,28.9-19.76,4.42-1.82,7.87-.32,10.58,2.94.75.9.51,4.13-.18,4.48-13.36,6.76-26.86,13.25-40.34,19.79-.61-.61-1.22-1.22-1.83-1.83Z"/>
  <path class="cls-4" d="M1079.56,203.82c-4.46-1.96-8.98-3.78-13.36-5.91-7.23-3.52-14.07-7.69-18.43-14.72-1.03-1.67-.82-4.11-1.18-6.19,2.18.24,4.88-.25,6.46.85,8.3,5.81,16.43,11.88,24.35,18.19,1.73,1.38,2.38,4.13,3.53,6.25-.46.51-.92,1.02-1.38,1.52Z"/>
  <path class="cls-4" d="M1019.32,348.18c-3.21-1.91-6.49-3.68-9.56-5.74-5.23-3.51-10.48-7.02-15.41-10.91-1.74-1.38-2.95-3.75-3.72-5.92-.51-1.42-.26-4.4.47-4.71,1.49-.62,4.03-.55,5.27.38,7.38,5.61,14.54,11.5,21.69,17.39,2.95,2.43,3.51,5.47,1.26,9.5Z"/>
  <path class="cls-1" d="M487.43,291.94c-4.62,3.84-8.26,7.36-12.39,10.16-4.82,3.28-7.55,7.26-7.29,13.23.17,3.78,1.94,5.37,5.44,4.13,8.88-3.16,17.75-6.38,26.46-9.96,6.89-2.83,13.42-6.56,20.34-9.31,9.31-3.71,13.57-1.45,15.22,8.31,4.46,26.35,8.64,52.74,12.79,79.13,1.24,7.87,2.37,15.78,2.89,23.72.44,6.65-2.79,9.32-9.28,7.97-8.92-1.86-17.94-3.61-26.51-6.57-4.96-1.71-9.7-5.11-13.56-8.77-9.28-8.82-15.13-8.83-23.88.8-2.17,2.39-4.85,4.3-7.3,6.43l-1.72-.58c0-2.55-.56-5.26.1-7.63,2.44-8.68,9.2-13.06,17.12-16.02,4.64-1.74,9.46-3.06,13.99-5.05,10.9-4.76,16.6-13.13,17.37-25.14.68-10.61,2.23-21.17,2.86-31.78.54-9.02-2.21-10.75-10.75-7.38-10.48,4.13-20.89,8.46-31.37,12.6-4.9,1.93-8.44,5.07-10.47,10.01-2.14,5.21-4.43,10.36-6.79,15.48-2.14,4.64-4.62,4.82-7.55.69-6.26-8.81-12.52-17.62-18.76-26.44-3.31-4.67-3.05-6.25,1.38-10.05,6.07-5.2,12.11-10.44,18.17-15.65,10.95-9.41,15.29-21.85,16.01-35.77.35-6.81-.03-13.66.09-20.49.1-5.3,2.46-7.68,7.6-6.43,7.66,1.87,15.28,4.19,22.57,7.18,6.88,2.81,13.38,6.61,19.92,10.2,5.4,2.96,9.07,7.23,8.95,13.87-.13,7.01-4.33,9.86-10.96,7.49-8.42-3.01-16.8-6.11-25.3-8.88-6.55-2.14-10.57-1.05-12.84,2.84-2.62,4.5-1.21,10.17,3.66,14.59.74.67,1.55,1.25,3.81,3.06Z"/>
  <path class="cls-1" d="M722.57,191.29c-1.91,1.27-3.07,2.16-4.34,2.87-12.86,7.25-25.75,14.44-38.6,21.71-3.85,2.18-7.75,3.25-11.71.58-4.3-2.9-6.03-7.16-4.9-12.16,5.24-23.26,10.24-46.58,16.12-69.67,2.59-10.19,7.94-19.32,16.41-26.19,9.39-7.61,20.7-9.38,32.17-10.38,5.45-.47,10.98-.17,16.47-.13,3.91.03,6.47,2.11,6.73,5.93.58,8.61,1.12,17.24,1.01,25.86-.07,5.5-4.13,7.63-9.03,4.54-5.86-3.7-11.03-8.49-16.66-12.58-3.87-2.81-7.83-5.6-12.09-7.73-4.74-2.37-8.22-1.04-9.13,3.98-2.39,13.15-6.17,26.2-4.18,39.86,1.46,10.02,6.98,17.76,13.57,24.94,2.45,2.67,5.01,5.25,8.16,8.54Z"/>
  <path class="cls-1" d="M590.82,381.39c-2.16-3.61-4.86-7-6.4-10.86-9.98-25.12-17.39-51.03-23.14-77.43-1.24-5.68.95-8.62,6.52-8.08,11.64,1.12,21.99,6.12,31.74,12.12,2,1.23,3.11,5.11,3.32,7.87,1.7,22.68-.24,45.14-5.08,67.32-.69,3.17-3.22,5.94-4.89,8.9-.69.05-1.37.11-2.06.16Z"/>
  <path class="cls-4" d="M609.66,273.47c-2.87-.8-4.65-1.19-6.36-1.79-11.7-4.18-23.37-8.44-35.08-12.59-5-1.77-8.5-5.02-10.5-9.92-3.44-8.45,1.63-18.2,10.56-20.1,2.93-.63,5.25.03,5.89,3.57.8,4.4,1.83,8.76,2.72,13.15.68,3.36,2.67,4.66,6.07,4.38,12.44-1.02,21.67-7.37,27.81-17.78,5.13-8.69,9.24-17.98,13.79-27.01.6-1.19,1.01-2.48,1.7-3.6,1.69-2.71,2.9-6.97,7.12-5.3,4.07,1.61,3.58,5.76,2.39,9.13-7.48,21.24-15.08,42.44-22.78,63.61-.62,1.69-2.32,2.99-3.34,4.26Z"/>
  <path class="cls-1" d="M268.04,293.14c-4.67-11.94-9.43-23.85-13.98-35.84-2.23-5.87-5.98-12.04-5.52-17.8.44-5.42,5.57-10.42,8.5-15.68,1.61-2.88,3-5.89,4.38-8.9,1.37-2.99,3.35-3.61,5.84-1.5,6.85,5.79,13.64,11.65,20.36,17.6.69.61,1.05,2.05.94,3.03-1.72,14.83-4.1,29.56-9.91,43.41-2.31,5.51-5.69,10.57-8.59,15.84-.68-.05-1.35-.1-2.03-.15Z"/>
  <path class="cls-1" d="M463.02,215.4c0-7.29-.18-12.77.04-18.23.28-6.96,2.42-8.56,9.13-7.09,3.55.78,7.25,1.38,10.48,2.9,3.6,1.69,7.59,3.69,9.9,6.72,3.35,4.37,5.91,9.58,7.78,14.8,2.88,8.01-1.26,14.23-9.61,15.38-8.59,1.18-16.55-1.71-23.71-5.65-2.6-1.43-3.11-6.67-4.01-8.82Z"/>
  <path class="cls-1" d="M386.09,389.94c10.58,2.64,23.12,5.69,35.61,8.92,3.53.91,3.41,3.66,1.5,5.78-8.55,9.49-18.58,17.07-30.44,21.95-1.18.49-3.54-.5-4.64-1.54-1.35-1.3-2.28-3.28-2.83-5.14-2.31-7.77-4.45-15.58-6.56-23.41-1.33-4.93.32-6.91,7.36-6.56Z"/>
  <path class="cls-1" d="M207.95,322.66c-13.34.11-31.84-11.76-36.48-23.57-1.06-2.69-1.48-5.83-1.36-8.73.22-5.32,3.9-7.12,8.11-3.93,3.56,2.7,6.94,5.78,9.85,9.17,6.79,7.89,15.21,14.58,19.04,24.76.28.74.54,1.49.84,2.31Z"/>
  <path class="cls-4" d="M558.83,215.09c.92-2.07,1.54-4.34,2.8-6.17,7.04-10.27,14.13-20.5,21.46-30.56,1.21-1.66,3.53-3.04,5.57-3.47,3.51-.73,5.43,1.95,3.78,5.22-6.7,13.26-14.02,26.11-27.25,34.17-1.57.96-3.48,1.37-5.23,2.03-.37-.41-.75-.81-1.12-1.22Z"/>
  <path class="cls-4" d="M424.62,188.12c3.3,8.41,6.8,16.74,9.77,25.26.92,2.65-4.15,5.54-7.88,4.18-5.43-1.98-10.75-4.36-15.88-7.01-1.05-.54-2.01-3.69-1.42-4.58,4.15-6.28,8.72-12.28,13.16-18.36.75.17,1.51.34,2.26.51Z"/>
  <path class="cls-4" d="M160.64,433.53c1.67-.86,3.27-2.23,5.03-2.49,12.43-1.84,24.9-3.47,37.36-5.12,2.84-.38,6.02-.82,6.78,3.03.77,3.87-1.87,5.88-5.07,6.85-10.98,3.32-22.15,3.66-33.4,1.65-3.52-.63-7-1.46-10.5-2.19-.06-.57-.13-1.15-.19-1.72Z"/>
  <path class="cls-4" d="M322.88,94.58c-2.01-.39-3.84-.32-5.21-1.08-10.83-6.03-21.61-12.15-32.28-18.45-1.47-.87-2.29-2.83-3.41-4.28,1.93-.16,4.02-.9,5.75-.39,7.59,2.24,14.97,5.2,22.61,7.2,8.33,2.19,12.03,7.48,12.54,16.99Z"/>
  <path class="cls-4" d="M471.01,383.4c0-2.31-.44-4.34.07-6.08,3.36-11.39,6.86-22.75,10.46-34.06,1.49-4.69,4.86-7.3,10.94-7.78-.2,2.36.07,4.59-.62,6.49-3.86,10.67-7.86,21.29-12.01,31.85-1.53,3.91-2.77,8.3-8.85,9.59Z"/>
  <path class="cls-4" d="M901.36,211.78c-4.02.17-7.17,1.11-9.74.27-12.37-4.04-24.6-8.5-36.81-13-1.99-.73-3.64-2.42-5.96-4.02,8.71-2.46,47.66,9.28,52.51,16.74Z"/>
  <path class="cls-4" d="M455.18,272.42c-1.74,3.21-2.89,6.44-4.95,8.91-4.99,5.99-10.24,11.81-15.78,17.3-1.39,1.38-4.26,1.26-6.46,1.84.18-1.98-.36-4.48.64-5.86,6.11-8.46,12.5-16.72,19-24.89.83-1.04,3.2-1.91,4.24-1.45,1.38.61,2.15,2.59,3.3,4.15Z"/>
  <path class="cls-4" d="M442.52,212.58c-1.64-4-3.52-6.74-3.78-9.61-.66-7.35-1.15-14.8-.57-22.12.24-3.03,3.17-5.99,5.26-8.68,1.68-2.15,4.24-1.63,4.14,1.02-.44,11.7-1.36,23.39-2.25,35.08-.08.99-1.19,1.9-2.81,4.32Z"/>
  <path class="cls-4" d="M298.48,220.52c-1.07-1.63-2.45-2.89-2.77-4.38-2.72-12.63-5.28-25.28-7.79-37.95-.67-3.39.15-6.29,3.66-7.83,5.4,7.4,10.96,44.41,6.91,50.17Z"/>
  <path class="cls-4" d="M214.36,342.21c-1.14,3.9-1.92,6.54-2.95,10.04-7.3-6.58-14.42-3.01-21.72-.82-7.22,2.17-14.55,3.13-21.88-1.46,3.44-4.35,7.97-5.77,12.72-6.09,11.04-.74,22.11-1.12,33.83-1.67Z"/>
  <path class="cls-4" d="M220.78,215.42c-1.26-1.4-2.73-2.67-3.74-4.23-6.56-10.16-13.16-20.3-19.46-30.63-3.59-5.88-3.35-6.03,3.15-10.23,1.18,1.31,2.86,2.5,3.63,4.12,5.75,12.28,11.33,24.64,16.92,36.99.44.98.52,2.12.77,3.19-.42.26-.84.52-1.26.79Z"/>
  <path class="cls-4" d="M507.99,107.4c3.28-.82,6.55-2.31,9.83-2.32,7.24-.02,14.51.49,21.71,1.3,1.7.19,3.17,2.43,4.74,3.72-1.5,1.34-2.79,3.38-4.53,3.9-8.78,2.6-17.68,2.31-26.36-.53-2.14-.7-3.84-2.78-5.74-4.22.12-.62.24-1.23.36-1.85Z"/>
  <path class="cls-4" d="M738.48,179.8c-9.42-7.79-15.82-17.6-18.58-29.6-.36-1.56,1.34-3.6,2.09-5.41,2.09.97,5.3,1.39,6.09,3,3.68,7.54,6.79,15.37,9.88,23.19,1.04,2.63,1.42,5.52,2.1,8.29l-1.58.53Z"/>
  <path class="cls-4" d="M393.45,108.05c-2.56,2.15-4.02,3.66-5.75,4.77-6.26,4.01-12.71,7.73-18.88,11.88-3.2,2.15-6.3,2.73-9.77,1.32-1.08-.44-2.74-1.19-2.84-1.96-.15-1.25.39-3.43,1.28-3.84,9.83-4.6,19.74-9.04,29.75-13.23,1.31-.55,3.29.51,6.21,1.06Z"/>
  <path class="cls-4" d="M673.4,58.5c-4.66,10.7-16.61,23.15-25.92,28.71-2.7-10.81-2.1-12.61,7.12-18.15,6.16-3.7,12.52-7.05,18.8-10.56Z"/>
  <path class="cls-4" d="M395.67,203.9c-3.01-4.94,3.07-35.48,7.54-38.62,6.21,6.91,1.54,31.94-7.54,38.62Z"/>
  <path class="cls-4" d="M228.12,338.94c-2.53-5.09-4.32-9.89-1.38-15.55,2.2-4.23,3.43-8.95,5.35-13.35.49-1.13,1.93-1.85,2.93-2.76.66,1.14,1.92,2.29,1.9,3.42-.12,5.96-.27,11.96-.98,17.87-.55,4.63-3.05,8.32-7.81,10.37Z"/>
  <path class="cls-4" d="M222.5,50.28c4.47,12.66,5.61,24.06-1.17,36.54-3.78-12.7-1.78-24.04,1.17-36.54Z"/>
  <path class="cls-4" d="M658.63,485.95c-5.76.08-9.7-3.24-9.83-8.3-.13-4.73,3.64-8.68,8.34-8.72,4.75-.05,8.75,4.29,8.85,9.59.09,4.68-2.57,7.37-7.36,7.44Z"/>
  <path class="cls-4" d="M98.87,631.67c-4.18,1.04-5.79-.82-7.25-4-4.3-9.33-8.95-18.5-13.52-27.71-.76-1.53-1.81-2.91-2.93-4.69-5.3,9.97-5.34,22.86.43,30.17,1.1,1.4,1.47,3.38,2.18,5.09-1.82.31-3.68,1.03-5.45.84-5.19-.56-10.34-1.48-15.81-2.3,10.9-15,8.58-31.94,10.33-47.98.16-1.5-1.86-3.17-2.68-4.85-.71-1.46-1.14-3.05-1.7-4.58,1.66-.58,3.37-1.78,4.96-1.63,9.81.94,16.51,5.47,19.05,15.75,1.47,5.98,4.46,11.59,6.77,17.36.6.02,1.19.05,1.79.07.57-1.62,1.54-3.22,1.62-4.86.29-5.32.24-10.65.34-15.98.11-5.62,1.94-7.52,7.54-7.4,4.11.09,8.21.52,12.31.8.27.47.55.94.82,1.41-1.13,1.22-2.06,3.15-3.44,3.54-5.53,1.59-7.42,5.63-8.25,10.7-1.96,11.95-3.96,23.9-5.97,35.85-.25,1.45-.73,2.86-1.13,4.4Z"/>
  <path class="cls-4" d="M113.04,617.64c.8-5.97,1.68-13.72,2.91-21.41.81-5.08,8.32-11,13.36-10.39,6.4.78,13.33.95,18.89,3.69,4.18,2.06,7.85,7.33,9.39,11.95,1.5,4.51.69,10.17-.33,15.06-1.48,7.1-4.19,13.94-6.11,20.96-1.14,4.19-3.92,6.62-7.86,6.18-7.87-.87-15.7-2.31-23.44-3.98-3.46-.75-5.52-3.55-5.79-7.3-.31-4.31-.6-8.62-1.03-14.76ZM125.65,621.72c.14.01.28.03.42.04,0,2,.03,4,0,6-.07,3.74,1.03,6.55,5.29,7.08,4.29.54,7.91-.4,8.73-5.18,1.8-10.46,3.42-20.96,4.82-31.48.49-3.7-1.77-5.37-5.52-5.3-5.77.1-10.52,3.36-11.49,9.04-1.12,6.54-1.53,13.2-2.24,19.8Z"/>
  <path class="cls-4" d="M176.39,609.73c.19,3.24-.18,5.29.5,6.88,2.61,6.06,5.18,12.2,8.51,17.87,2.16,3.68,1.65,5.55-2.13,6.58-4.98,1.36-10.05,2.42-16.36,3.9,7.43-16.55,2.73-32.03,2.64-47.3-.02-3.69.99-6.07,4.13-6.71,1.74-.36,4.37.79,5.78,2.13,4.7,4.47,9,9.35,13.51,14.02,1.19,1.24,2.55,2.31,4.52,4.07,1.25-9.5.05-17.5-3.27-25.23-2.24-5.21-1.79-5.82,3.96-6.08,4.14-.19,8.27-.58,12.32-.88-1.18,6.36-2.18,12.62-3.53,18.8-2.67,12.26,1.09,24.09,2.02,36.12.12,1.58-.64,3.23-.99,4.85-1.61-.64-3.64-.87-4.77-2-5.08-5.03-9.85-10.37-14.86-15.48-3.46-3.54-7.12-6.88-11.98-11.55Z"/>
  <path class="cls-4" d="M318.44,584.59c.6,6.98-2.62,12.19-7.88,15.87-6.9,4.83-14.79,7.32-23.34,7.48-4.22.08-6.4-1.87-7.17-5.95-1.85-9.76-3.96-19.47-5.68-29.26-.37-2.13-.1-4.75.85-6.66,4.95-9.9,25.29-16.49,35.09-11.23,2.07,1.11,4.1,3.85,4.56,6.16,1.57,7.79,2.43,15.72,3.56,23.59ZM285.3,568.16c1.88,8.39,3.9,16.76,5.59,25.2.7,3.49,2.29,5.47,5.9,5.36,5.06-.16,9.58-3.02,9.05-6.64-1.35-9.29-3.08-18.58-5.49-27.65-1.1-4.14-5.32-5.17-9.53-4.24-4.24.94-5.47,3.89-5.52,7.98Z"/>
  <path class="cls-4" d="M233.14,613.29c1.66,1.4,3.64,2.55,4.92,4.23,3.97,5.24,9.63,5.86,15.49,6.41,3.98.38,5.65-2.48,6.15-5.18.31-1.7-1.43-4.72-3.1-5.67-5.16-2.95-10.59-5.55-16.16-7.6-6.43-2.37-9.1-6.95-9.2-13.31-.1-6.4,2.86-11.21,8.67-13.96,2.52-1.2,5.25-2.24,7.99-2.65,4.46-.67,6.82-2.76,6.75-7.38-.01-.97.3-1.94.49-3.06,2.59-1.01,4.09-.61,5.29,2.32,4.26,10.41,5,13.16,4.01,19.71-2.35-.93-4.53-2.02-6.82-2.65-3.79-1.03-7.63-2.18-11.5-2.39-1.53-.08-3.2,2.21-4.8,3.42,1.14,1.48,1.98,3.6,3.48,4.32,5.37,2.58,10.96,4.67,16.47,6.96,4.65,1.93,9.5,3.68,9.81,9.89.36,7.28-.46,14.57-7.63,18.15-6.05,3.02-12.9,4.45-19.39,6.58-.14-.43-.28-.85-.42-1.28-.18.25-.48.48-.52.74-.44,2.85.2,6.86-3.94,6.76-1.35-.03-3.15-3.67-3.8-5.93-1.65-5.75-2.77-11.65-4.1-17.49.62-.32,1.24-.63,1.86-.95Z"/>
  <path class="cls-4" d="M450.67,509.41v22.24c-.56.28-1.13.55-1.69.83-1.55-1.15-3.31-2.09-4.59-3.48-3.12-3.38-6.31-6.69-11.36-6.06-1.74.22-3.96,1.35-4.74,2.74-.53.95.61,3.77,1.8,4.58,6.17,4.17,12.52,8.08,18.94,11.84,6.94,4.06,9.62,8.93,8.3,15.89-1.95,10.24-8.69,15.54-18.65,12.48-7.76-2.38-14.15-4.33-19.61,3.55-.49.7-2.91.75-3.88.17-.69-.41-.93-2.55-.55-3.63,1.37-3.9,3.08-7.69,4.67-11.52,1.6-3.83,4.27-4.37,7.58-2.27,1.82,1.15,3.44,2.6,5.18,3.88,1.47,1.08,2.9,2.26,4.49,3.13,4.17,2.28,9.51,1.86,11.01-.73,1.68-2.9-.25-6.64-5.25-9.42-5.8-3.23-11.83-6.05-17.6-9.32-6.59-3.73-8.88-8.87-7.75-16.34.86-5.65,5.37-9.48,11.98-10.01,2.32-.19,4.82.43,6.96-.23,3.48-1.08,6.78-2.82,10.05-4.48,1.33-.68,2.38-1.9,4.72-3.82Z"/>
  <path class="cls-4" d="M356.17,524.17c5.1-1.14,10.2-2.24,15.29-3.41,5.03-1.15,6.89,1.46,7.53,5.96,1.26,8.86,2.58,17.71,4.06,26.54.4,2.41.87,5.16,2.31,6.94,1.37,1.68,4.21,3.34,6.12,3.06,1.9-.28,4.79-2.89,4.91-4.65.6-8.27,1.1-16.67.15-24.86-.39-3.38-4.43-6.38-6.93-9.45-3.35-4.12-3.2-5.02,1.58-7.11.91-.4,1.84-.75,2.76-1.13,8.9-3.69,9.51-3.27,10.94,6.19,1.26,8.33,3.27,16.57,4.09,24.94,1.78,18.14-16.37,24.86-29.24,20.45-5.72-1.96-7.71-7.01-8.7-12.4-1.11-6.03-2.34-12.09-2.73-18.18-.3-4.61-2.69-6.26-6.53-7.43-2.14-.65-4.03-2.1-6.04-3.19.14-.75.29-1.5.43-2.25Z"/>
  <path class="cls-4" d="M330.48,587.92c-1.21-8.7-2.38-17.01-3.52-25.32-1.14-8.35-3.66-16.12-9.99-22.38,1.08-.94,1.71-1.89,2.56-2.15,6.79-2.13,13.59-4.23,20.45-6.1,1.21-.33,2.72.49,4.09.78-.63,1.19-1,2.68-1.94,3.51-3.46,3.06-4.47,6.56-3.64,11.17.91,5.05.7,10.3,1.5,15.37.65,4.09,2.09,8.04,3.17,12.04,6.87-1.73,10.32-4.48,10.31-11.18,0-3.81-1.29-9.76,4.63-10.46,1.29-.15,3.65,5.75,4.95,9.09,3.14,8.04,2.73,9.6-5.26,13.54-8.87,4.38-18.09,8.04-27.33,12.1Z"/>
  <path class="cls-4" d="M109.15,282.47c4.95,2.57,6.06,6.13,5.81,10.12-.59,9.26-1.34,18.51-2.23,27.74-.12,1.21-1.4,2.32-2.88,3.23-2-13.66-9.19-27.04-.7-41.09Z"/>
</svg>