<?xml version="1.0" encoding="UTF-8"?>
<svg id="Layer_1" data-name="Layer 1" xmlns="http://www.w3.org/2000/svg" viewBox="0 0 1022.12 690.31">
  <defs>
    <style>
      .cls-1 {
        fill: #315a9c;
      }

      .cls-2 {
        fill: #315a9a;
      }

      .cls-3 {
        fill: #315997;
      }

      .cls-4 {
        fill: #5c7e99;
      }

      .cls-5 {
        fill: #ffe013;
      }
    </style>
  </defs>
  <path class="cls-3" d="M1022.11,651.49v19.16c-2.53,2.52-4.79,4.39-8.88,6.53l-2.39-5.34c4.28-2.37,5.47-4.41,6.17-8.15l-5.67-.56.06-11.54,10.7-.1Z"/>
  <polygon class="cls-3" points="1022.12 619.24 1022.12 632.1 1011.58 631.65 1011.62 619.26 1022.12 619.24"/>
  <path class="cls-4" d="M889.54,538.84l-.34-218.49c-.05-35.17-22.46-65.8-51.58-80.1-33.35-16.37-71.86-11.1-99.43,11.3-45.27,36.78-45.89,103.98-1.97,141.83,26.44,22.79,63.02,29.51,96.15,15.38l-.02,130.1-88.08-.04c-46-10.12-86.61-35.43-116.75-70.24-79.66-92.02-70.38-229.83,20.23-310.65,56.21-50.13,135.13-69.24,208.79-48.02,90.88,26.19,159.03,110.32,162.58,205.16l.74,116.85-.02,24.22v22.92s-.13,28.08-.13,28.08l-.12,31.66-130.06.03Z"/>
  <path class="cls-1" d="M195.25,370.72c-20.25-79.49,5.92-163.03,65.95-217.65,27.42-24.95,59.72-42.73,95.98-51.85l91.04-.11-.03,129.75c-36.63-15.2-78.05-5.56-104.31,23.37s-31.79,71.09-13.16,106.16c17.8,33.51,55.17,53.56,94.1,48.3,44.43-6.01,78.71-43.48,80.43-88.7l.02-319.98,130.42-.02v146.41c-85.36,76.23-104.77,203.12-44.58,300.99-40.15,53.66-101.11,88.44-168.63,92.1-104.76,5.68-201.33-67.05-227.24-168.78Z"/>
  <path class="cls-2" d="M145.92,538.88H15.59s-.01-307.9-.01-307.9c42.8,16.01,88.4,16.13,130.37.04l-.03,307.86Z"/>
  <path class="cls-3" d="M12.8,681.6l233.8-.06c-7.08-3.37-13.65-6.81-11.9-15.12,3.47.4,8.29.57,11.6,1.89,2.52,1.01,4.91,4.47,7.24,4.38,3.46-.13,7.96-.49,9.56-3.51s1.44-7.54,1.06-11.38c-4.26,4.05-8.62,6.31-14.36,5.91-4.48-.31-9.86-2.95-12.85-7.59-5.42-8.4-5.68-20.15-.82-28.87,2.85-5.11,8.24-8.24,12.71-8.85,6.53-.88,11.52,1.49,16.06,5.94l.41-5.07,10.91.1-.17,46.53c-.61,8.45-6.07,12.28-13.14,15.65l754.79.03.02,8.72H13.15s-.35-8.71-.35-8.71ZM263.07,633.22c-1.56-3.85-5.64-5.75-9.49-5.6-7.79.32-11.29,12.18-6.83,21.85,1.47,3.19,5.58,5.16,8.7,4.69,8.56-1.28,11.04-12.5,7.62-20.95Z"/>
  <path class="cls-5" d="M88.13,205.74l-13.91,1.66-3.56-16.28-14.07-3.2-9.66,11.32-8.79-4.19c-1.51-.72-3.44-3.11-3.04-4.45l4.16-13.88c-4.43-3.17-6.49-5.46-9.47-9.63l-15.23,5.26-7.14-11.75,7.71-7.54,3.85-3.52-3.15-13.27L.08,132.87l-.08-13.89,15.64-3.57,3.4-13.07-10.64-9.61c-.91-1.57.87-5.65,2-7.1l4.66-6.01,14.29,4.65,9.94-9.92-4.73-14.81,11.71-6.89,11.32,11.5,13.06-3.67,3.58-15.41,13.33-.08,3.43,15.24,13.46,4.07,10.29-11.3c3.35,1.34,8.15,3.76,11.73,6.18-.74,5.31-2.42,10.21-4.25,15.28,3.46,2.93,6.19,5.51,9.5,9.92l15.63-4.85,6.97,12.25-11.27,9.96,2.86,13.54,15.41,3.54.2,13.79-15.55,3.55-3.11,13.1,11.33,11.25-6.88,11.6-14.82-4.84-9.8,9.87,4.6,15.31-12.57,6.94-10.36-11.63-13.28,3.47-2.97,14.51ZM124.66,125.84c0-24.17-19.59-43.76-43.76-43.76s-43.76,19.59-43.76,43.76,19.59,43.76,43.76,43.76,43.76-19.59,43.76-43.76Z"/>
  <rect class="cls-3" x="12.55" y="576.98" width="1005.42" height="9.01"/>
  <path class="cls-3" d="M512.89,646.36c-3.12,10.35-11.42,17.26-22.06,17.34l-28.01.19-.17-61.37,27.82.13c9.49.05,17.34,5.34,21.18,13.92,3.32,9.5,3.98,19.56,1.22,29.79ZM500.2,622.21c-1.46-5.33-5.79-8.73-11.3-8.88l-13.66-.37.04,40.33,12.91.02c13.92.02,15.67-17.78,12.01-31.09Z"/>
  <path class="cls-3" d="M815.89,663.94l-11.91-.03.06-28.87c0-1.91-1.45-5.92-3.12-6.66-2.31-1.02-6.06-.42-7.83.96-1.63,1.27-3.69,4.69-3.7,7.15l-.09,27.24h-12s.01-44.4.01-44.4l10.8-.1.66,5.41c4.19-4.3,8.02-6.2,12.84-6.36,5.23-.16,9.52,1.94,12.91,7.17,5.48-7.48,15.6-9.79,23.39-3.96,2.9,2.17,4.71,7.28,4.72,10.93l.04,31.34-11.85.11-.1-30.17c0-1.33-1.13-3.95-2.09-4.79s-4.13-1.32-5.44-.99c-4.55,1.14-7.09,5.7-7.12,10.16l-.18,25.87Z"/>
  <path class="cls-3" d="M729.76,650.18l-24.52-.15-4.84,13.75-13.55.07,23.72-61.22,13.38-.14,24.83,61.39-13.69.05-5.33-13.76ZM725.72,639.72l-8.39-22.48-8.46,22.54,16.85-.05Z"/>
  <path class="cls-3" d="M986.8,658.94c-3.89,4.11-8.91,6.46-14.93,5.87-4.99-.49-10.53-3.88-13.39-9.16-7.52-13.85-2.79-34.26,11.71-37,6.42-1.21,11.01.23,16.55,5.06v-21.22s11.79.11,11.79.11l-.09,61.2-10.7.12-.94-4.97ZM985.13,633.15c-1.5-3.48-5.34-5.64-8.52-5.53-2.85.1-6.69,2.08-7.84,5.08-2.28,5.96-2.31,12.59.58,18.13,1.57,3.01,5.25,4.9,8.27,4.76,8-.37,11.63-12.88,7.5-22.43Z"/>
  <path class="cls-3" d="M625.77,659.85c-6.27,5.1-14.89,6.82-22.21,2.75-4.36-2.43-6.1-7.2-5.69-11.97.35-4.17,2.68-9.45,8.09-10.8l18.21-4.56c1.19-.3,1.46-4.22.67-5.18-.92-1.11-3.22-2.36-4.9-2.62-4.84-.75-8.38.96-10.2,5.68l-10.73-1.88c2.52-12.62,15.35-14.61,27.95-12.11,6.41,1.27,10.2,6.71,10.18,12.87l-.07,19.19c-.01,4.01.97,7.83,2.3,12.59h-10.94s-2.65-3.95-2.65-3.95ZM613.72,656.06c4.21,1.18,8.14-.55,9.93-3.08,2.03-2.86,2.06-7.19,1.19-10.23l-11.37,2.93c-1.64.42-3.82,3.31-3.92,4.93-.11,1.85,1.78,4.78,4.17,5.45Z"/>
  <path class="cls-3" d="M549.6,659.83c-6.02,5.18-14.84,6.8-22.01,2.8-4.97-2.77-6.65-8.35-5.87-13.45s4.56-8.75,10.46-10.17l15.87-3.81c1.31-.31,1.07-4.67.05-5.58s-3.49-2.12-4.95-2.32c-5.02-.67-8.37,1.29-10.07,5.8l-10.42-1.99c1.46-5.25,4.63-9.84,9.95-11.51,12.18-3.83,27.88-.49,27.94,11.08l.11,19.48c.03,4.66.95,9.19,2.17,13.68l-10.69.02-2.54-4.03ZM536.13,655.23c4.43,2.5,8.55.98,10.86-1.86,2.11-2.58,2.47-6.23,1.9-10.71l-12.85,3.37c-1.27.33-2.87,3.21-2.74,4.49s1.69,4.06,2.83,4.71Z"/>
  <path class="cls-3" d="M314.13,649.77l11.31,1.8c-2.91,9.79-11.28,13.52-20.34,13.35-8.37-.16-15.68-3.91-18.93-11.92-2.81-6.93-3.11-15.07-.29-22.1s9.48-11.79,16.04-12.47c7.89-.81,15.37,1.34,19.78,8.16,3.4,5.25,4.13,11.96,4.15,18.14l-29.8.18c.29,7.1,5.53,12.01,11.34,11.05,2.46-.4,4.32-2.77,6.75-6.19ZM314.11,637.46c-.14-7.68-5.18-10.45-10.26-9.92-4.75.5-8.08,5.35-7.37,10.19l17.62-.27Z"/>
  <path class="cls-3" d="M143.67,649.54l11.42,1.96c-2.34,8.49-9.98,13.56-19.02,13.38-5.85-.11-12.01-1.34-16.04-5.63-5.18-5.5-6.47-12.79-6.07-20.18.5-9.25,5.93-17.17,14.06-19.73,8.96-2.81,18.95-.4,24.06,7.74,3.33,5.31,3.75,11.6,3.82,17.66l-29.84.11c.27,4.28,2.05,8.05,5.33,9.9,4.83,2.72,10.37.94,12.28-5.22ZM144.1,637.42c-.23-7.7-4.98-10.64-10.18-9.97-4.7.6-8.3,5.12-7.42,10.18l17.6-.21Z"/>
  <path class="cls-3" d="M48.84,636.52l-.26,27.21-11.93.13-.03-44.62,10.79.2.92,5.13c5.98-6.41,14.69-8.4,22.45-4.06,3.96,2.22,6.47,6.87,6.48,11.53l.07,31.9-11.98-.09.02-27.9c0-1.79-1.04-5.43-2.37-6.68-2.17-2.05-6.79-1.81-9.39-.54-2.04.99-4.72,4.34-4.76,7.81Z"/>
  <path class="cls-3" d="M346.82,636.46l-.24,27.34-11.79.1-.13-44.44,10.91-.28.67,5.41c4.47-4.71,9.45-6.72,15.82-6.25,7.34.55,13.16,6.01,13.21,13.76l.18,31.71-11.81.09-.15-27.96c-.01-2.23-1.28-5.7-3.14-7.18s-6.58-1.12-8.68-.11-4.81,4.4-4.84,7.78Z"/>
  <polygon class="cls-3" points="920.62 653.49 920.6 663.88 877.69 663.86 877.63 603.14 889.89 603.17 889.87 653.37 920.62 653.49"/>
  <path class="cls-3" d="M594.19,663.31c-4.51,1.17-8.92,1.79-13.45,1.16s-7.88-4.63-7.94-9.32l-.34-25.9-5.4-.6.04-9.17,5.43-.38.13-8.55,11.83-7.06.25,15.74,8.36.18-.06,9.4-8.43.27.36,24.3c.03,1.9,5.4,2.04,7.65.49l1.57,9.44Z"/>
  <path class="cls-3" d="M950.92,662.95c-5.49,2.12-11.36,2.93-16.94.16-2.84-1.41-4.46-5.84-4.46-8.98l-.02-25.11-5.53-.32-.11-9.04,5.54-.57.19-8.77,11.69-6.82.58,15.68,7.92.24v9.29s-8.16.47-8.16.47l.25,24.85c2.22,1.06,4.83.84,7.96.09l1.09,8.84Z"/>
  <path class="cls-3" d="M408.6,663.38c-4.54,1.04-8.51,1.66-12.93,1.12-4.11-.51-8.09-4.37-8.14-8.78l-.29-26.55-5.32-.45-.02-9.3,5.38-.31.16-8.68,11.74-6.92.14,15.69,8.31.25v9.23s-8.47.25-8.47.25l.36,24.18c.03,2.14,5.74,2.29,7.85.56l1.23,9.69Z"/>
  <path class="cls-3" d="M110.37,663.28c-4.42,1.24-9.09,1.96-13.34,1.09-5.17-1.05-7.68-5.32-7.69-10.26l-.07-25.04-5.36-.38-.13-9.01,5.35-.64.22-8.77,11.94-6.65-.02,15.59,8.03.19.21,9.25-8.31.41.06,22.78c0,1.12,1.72,3.32,2.68,3.18l5.48-.83.95,9.09Z"/>
  <rect class="cls-3" x="188.34" y="602.48" width="11.99" height="61.5"/>
  <rect class="cls-3" x="164.79" y="602.46" width="12.07" height="61.57"/>
  <rect class="cls-3" x="12.87" y="602.5" width="12.53" height="61.5"/>
  <rect class="cls-3" x="738.27" y="635.64" width="44.64" height="12.06" transform="translate(118.755 1402.117) rotate(-89.9878)"/>
  <rect class="cls-3" x="195.46" y="635.61" width="44.69" height="12.03" transform="translate(-424.07 858.71) rotate(-89.94)"/>
  <path class="cls-3" d="M650.46,676.22c-1.23.18-3.35-3.58-2.71-4.04,3.12-2.07,5.15-4.61,5.94-7.76l-5.72-1.2v-11.59s12.33-.07,12.33-.07l-.47,14.39c-.15,4.68-4.08,9.49-9.37,10.27Z"/>
  <path class="cls-3" d="M417.52,676.55l-3.29-4.11c4-2.15,6.21-4.7,6.82-8.71l-5.79-.59.03-11.56h12.2s-.42,13.52-.42,13.52c-.17,5.39-3.86,9.89-9.55,11.44Z"/>
  <rect class="cls-3" x="754.49" y="602.45" width="12.11" height="11.01" transform="translate(-1.59 1.99)"/>
  <rect class="cls-3" x="212.32" y="601.95" width="10.96" height="11.99" transform="translate(-390.52 824.69) rotate(-89.9)"/>
</svg>