<?xml version="1.0" encoding="UTF-8"?>
<svg id="Layer_1" data-name="Layer 1" xmlns="http://www.w3.org/2000/svg" xmlns:xlink="http://www.w3.org/1999/xlink" viewBox="0 0 248.68 274.74">
  <defs>
    <style>
      .cls-1 {
        fill: #4610b0;
      }

      .cls-2 {
        fill: url(#linear-gradient);
      }
    </style>
    <linearGradient id="linear-gradient" x1="30.17" y1="108.49" x2="218.51" y2="108.49" gradientUnits="userSpaceOnUse">
      <stop offset=".25" stop-color="#4811c0"/>
      <stop offset=".95" stop-color="#de5b7b"/>
    </linearGradient>
  </defs>
  <path class="cls-2" d="M124.4,108.18l46.54-26.72-46.45-26.87-46.63,26.95.06,53.69,46.56,27-.05,54.76-94.26-54.55.03-108.1L124.46,0l94.03,54.36v53.81s-46.84,27.05-46.84,27.05l41.54,24.23c1.17,1.77,3.14,1.38,5.02,3.08l-46.51,27.02-47.19-27.33-.11-54.06Z"/>
  <path class="cls-1" d="M206.33,272.83c0,1.93-4.09,2.49-4.81,1.26l-6.04-10.33-15.48-27.14-.07,37.72-4.87.08.03-49.06c1.1-.78,2.89-.82,3.83-.2l15.85,27.97c2.07,3.91,3.9,7.27,6.73,11.62l.09-39.98,4.8.12-.07,47.93Z"/>
  <path class="cls-1" d="M159.7,230.07l-19.34-.06c-.67,0-2.09.42-2.41.94s-.57,1.9-.57,2.7l-.03,40.65-4.87.08.11-41.18c.01-4.72,4.04-8.54,8.37-8.51l17.01.1c3.16.02,7.6,3.7,7.61,7.14l.1,42.55-4.44-.07.02-41.18-1.56-3.16Z"/>
  <path class="cls-1" d="M241.63,230.09l-18.47-.12c-1.08,0-2.85,1.38-2.85,2.59l-.02,41.88-4.49.04.16-27.59c.03-5.52-.34-10.6.27-16.24.25-2.35,4.02-5.8,6.41-5.8l18.73-.04c3.3,0,7.18,4.06,7.19,7.64l.11,41.99-4.46.06.04-40.27c0-1.4-.62-4.13-2.63-4.14Z"/>
  <g>
    <path class="cls-1" d="M114.72,274.5l-22.29.04-.05-4.89,22.35.02c1.96,0,3.96-1.44,3.93-3.76l-.11-10.25c-.03-2.91-2.68-3.93-5.03-3.89-5.96.11-11.53.28-17.47-.19-3.48-.27-5.92-5.09-5.98-8.16-.08-4.09-.18-7.55.28-11.28.49-4,4.11-7.41,8.03-7.42l22.48-.05c.1,1.89.06,3.56-.15,5.36h-24.06c-.68.44-1.85,2.23-1.85,3.14v10.85c0,4.69,10.73,3.61,18.04,2.99,5.41-.46,9.99,2.74,10.34,8.39.22,3.61.27,7.6,0,11.19-.36,4.71-4.09,7.91-8.46,7.92Z"/>
    <g>
      <path class="cls-1" d="M57.33,269.64h23.13s-.03,4.88-.03,4.88l-22.79-.03c-4.5,0-7.99-3.91-7.98-8.37l.08-33.7c0-3.87,4.07-7.69,7.82-7.69l22.68-.03-.03,5.33h-23.22c-1.47,0-2.92,1.55-2.92,3.11l-.02,32.95c0,1.52,1.52,3.56,3.26,3.56Z"/>
      <polygon class="cls-1" points="80.2 247.43 80.37 251.9 59.64 251.9 59.63 247.23 69.06 247.36 80.2 247.43"/>
    </g>
  </g>
  <polygon class="cls-1" points="239.49 251.91 225 251.94 224.76 247.58 239.12 247.14 239.49 251.91"/>
  <polygon class="cls-1" points="156.25 251.94 142.41 251.98 142.16 247.36 156.17 247.21 156.25 251.94"/>
  <g>
    <path class="cls-1" d="M9.05,254.68l23.49.02c1.36,0,2.93-1.59,2.93-2.92l-.02-19.33c0-1.11-1.79-2.43-2.9-2.43H9.06s0-5.3,0-5.3l21.1-.09c3.88-.02,9.14,2.04,9.47,6.68.52,7.23.37,14.27.1,21.65-.12,3.26-3.54,6.59-7.08,6.78-7.94.43-15.61.27-23.57.18l-.03-5.23Z"/>
    <rect class="cls-1" x="0" y="226.94" width="4.89" height="47.66"/>
    <path class="cls-1" d="M40.09,270.85c-.94,1.47-2.01,2.78-3.08,3.8l-8.27-8.8c.77-1.27,2.23-2.63,3.63-3.11l7.72,8.11Z"/>
  </g>
</svg>