<?xml version="1.0" encoding="UTF-8"?>
<svg id="Layer_1" data-name="Layer 1" xmlns="http://www.w3.org/2000/svg" viewBox="0 0 1188.49 895">
  <defs>
    <style>
      .cls-1 {
        fill: #003497;
      }
    </style>
  </defs>
  <path class="cls-1" d="M634,0c-.5.31,1.68.93,2.34.94l17.4.31,10.54.7c113.8,7.51,238.87,39.07,337.95,96.79,70.21,40.9,135.03,96.78,167.39,172.58,10.65,24.95,17.35,50.55,18.4,77.6l.47,11.95-.42,14.22c-3.57,61.47-32.84,116.65-73.61,161.35l-401.84.06c-7.11-43.08-39.28-71.79-81.1-81.07-27.21-5.86-54.76-5.19-81.85,1.21-39.28,9.99-70.1,36.81-76.35,77.83l-402.38.04C32.09,490.91,4.84,437.68.92,379.07l-.92-7.07.32-19.95c7.08-113.99,89.9-196.57,184.82-251.98,49.78-29.06,102.95-50.7,158.51-66.47C407.89,15.36,473.61,4.74,540.05,1.4l20.04-1,73.9-.4ZM514.77,60.5l-7.81,5.47-7.56,4.44c-15.1,15.42-27.37,32.55-39.66,50.51l87.9.03c.58-4.21-1.48-6.45-5.51-9.19l11.49-3c1.43-8.08,8.78,1.44,17.16-8.21,1.95-2.25,5.78-3.35,8.29-4.83,4.01-2.36,7.29-4.76,12.94-3.82V15.31s-41.63,1.29-41.63,1.29c8.34,3.02,15.82.18,24.15,2.61l-15.03,6.29c-6.2,2.6-13.23,2.5-19.64,4.03,1.35.71,3.82,1.45,5,1.43,4.68-.08,8.49,2.89,7.79,7.31l-12.86-.81c3.22,3.78,6.3,4.13,11.09,5.31-7.74,6.74-16.54-6.32-24.32,2.16,4.97-.05,8.56-.42,11.84,2.84l-14.24,8.51c-2.95,1.76-4.21,5.03-9.4,4.22ZM641.03,42.76c2.85-4.23,6.82-5.94,11.04-6.6,3.54-2.82,6.57-3.78,11.61-5.07l-14.62-14.37-41.67-1.38.05,48.31,9.54-7.81,6.89-2.03c4.13-5.82,9.97-8.94,17.16-11.05ZM737.18,41.3c3.24,5.3,8.03,5.86,12.05,2.7.84-.66,3.03-1.51,3.88-.98l3.8,2.39-3.12-7.27,6.09-.65-6.86-8.6c-26.66-4.6-52.28-8.19-79.04-10.47,8.17,7.49,14.27,16.47,22.82,22.52,5.28,3.73,13.19,4.38,11.16,14.22,3.13-.2,5.79-.87,7.11-2.76l4.49-6.43,2.87,4.63c.47.77,2.56-1.6,3.15-2.24,3.16-3.38,7.68-.65,11.61-7.06ZM351.28,72.78c3.88,2.12,2.58,8.23,8.24,11,13.44-14.08,27.31-26.01,42.16-38.03,4.97-4.02,9.23-7.95,13.56-12.74-21.65,4.27-41.69,8.91-62.66,14.76l-17.28,12.52c-2.21,1.6-4.63,3.61-5.12,6.44-.3,1.74,2.87,4.57,3.97,5.97.53.67-.55,3.36.17,3.74l3.45,1.81c1.05.55,4.18.94,5.36.68,2.4-.54,4.5-8.16,8.14-6.17ZM617.64,88.34c2.27.21,6.24-3.68,8.43-3.83,3.33-.23,6.79-.56,9.94-1.38,8.96-2.33,3.86-13.85,16.32-11.25l1.29-4.33,15.28-5.01c-7.16-6.2-13.94,4.58-17.23.27-.73-.95-.94-4.53.08-5.32l8.82-6.84c2.61-2.02,6.83-4.53,7.37-7.4.23-1.26-3.4-2.99-4.47-2.5-4.03,1.81-3.27,8.74-13.44,9.4l-7.74,4.1c-7.3,3.87-1.36,9.17-3.41,11.74-2.58,3.24-8.09,2.99-10.91,5.89l-6.59,7.57c-1.98,2.27-5.31,3.08-8.23,2.32,1.79-4.91,2.72-8.6,1.97-14.27l-6.93,6.96c2.7,1.32,4.57,5.62,2.82,7.02-2.32,1.87-3.66,3.46-3.63,5.9l10.26.96ZM366.66,120.65l74.66.22c10.6-16.7,21.59-31.24,33.2-46.73l-7.21,4.49c-3.98-2.32-4.33-5.4-4.5-9.08l-4.11-1.33c-.76-.25-.45-1.68-.53-3.66l-16.24-.7c-1.89-.08-3.98-1.78-5.06-3.4-8.47-.08-17.08-.55-26.31-1.81-12.87,9.99-24.76,20.71-36.8,32.18l3.4,3.47-5.83,5.77c4.31.46,8.14-5.09,9.67-2.97l2.05,2.84,6.3,3.39c-2.51,5.35-8.36,8.29-14.39,8.54l-17.83.74c-4.17.17-7.72,4.52-9.02,8.39,6.16-2.21,11.79-.38,18.56-.36ZM276.95,84.39c4.18-4.8,9.99-7.35,14.33-11.16l10.57-9.29c-11.37,3.82-21.94,8.12-33.24,12.69-2.32.94-5.15,2.19-5.9,3.82-.8,1.72-.88,5.47-.46,7.09,5.02,2.4,10.9,1.23,14.71-3.15ZM305.87,111.06c4.93-4.18-1.33-10.59,5.46-18.06l-.44-6.2c-.11-1.6-.76-4.24-2.03-4.98-1.11-.65-3.82.05-4.72,1.09-4.31,4.99-9.24,6.12-13.85,14.54,1.86,2.17,4.01,5.93,5.82,7.13l9.76,6.49ZM315.17,182.67l-3.08,4.63-8.76,6.87c-3.35,2.63-5.17,5.1-3.65,9.27l99.57.04c8.5-23.46,19.33-44.96,32.01-66.64l-56.58-.19-10.95,6.15c-.87-.03-3.8-1.31-3.26-2.09l2.95-4.26-8.68,1.31c-5.87.88-9.92,5.29-11.33,10.69l4.1,2.51c-5.46,2.89-9.46,4.29-15.22,5.69l-3.42,9.43-6.3-2.6-1.29,7.05,3.49-.44c.76-.1.56,3.28-.08,3.86l-9.55,8.72ZM584.44,168.06l7.63,2.77-.13-34.21-17.76.32c-5.36.1-11.41,4.4-15.79,7.2l-.37,5.85-10.38,5.55-14.68.32c-3.95.09-6.54-1.7-10.07-3.83-2.32-1.22-7.42-.52-11.08-.25-3.46-7.37,1.31-10.23,1.84-15.12l-64.21.07c-12.89,20.98-23.99,42.96-33.57,66.71l68.54.06,5.27-5.86c2.89-4.98,7.49-8.21,12.88-10.03,4.72-1.6,7-4.82,9.34-8.72l7.12-11.85c5.84-1.47,10.46-3.83,13.96-8.43,4.31,1.63,9.19,2.97,13.51,2.62l25.71-2.12c4.94-.41,11.52-2.99,16.23-.12,2.9,1.77-.68,7.24-4,9.07ZM1108.34,203.39l-20.22-21.59c-17.74-16.28-35.68-31.63-55.71-45.2l-52.08.07,21.67,21.35,39.38,45.48,66.96-.11ZM669.7,156.89l-13.03-.28c-1.4-.03-3.89.92-5.73,1.64-2.24.89-6.55-2.51-7.25-4.87-.81-2.75-.08-6.31,1.7-8.58l-2.41-6.28c-7.22-1.78-7.45,3.87-8.42,3.99l-2.98.36c2.62,4.45,1.66,9.26-2.7,11.75l-3.61-5.91c-2.38-3.9-4.3-6.35-5.17-11.31l-4.63-.41c.27,4.8.17,6.31-1.3,11.22l-6.79-7.11.05,37.67c.51.4,3.96.82,4.45-.12l1.71-3.32c.77-1.5,2.81-3.85,4.28-4.46,3.88-1.59,6.57,3.5,11.17,3.68l14.65.55c4.43.17,8.43-1.3,13.38-.29,1.4-1.1,3.45-4.22,4.79-5.94,3.03-3.91,6.11-7.25,7.83-12.01ZM964.94,187.78c-.2,4.69-1.84,7.66-6.93,8.39l-4.51,7.26h68.01c-19.79-24.41-40.42-45.36-62.71-66.41l-20.02.1c.21,3.67,4.35,7.84,7.98,6.78,4.24-1.24,8.46-2.29,11.54.62l-6.85,8.89,7.67,5.2,7.58,11.96c4.18,6.6-1.56,12.13-1.77,17.2ZM150.34,187.55c-10.91-11.66-5.05-17.92-10.61-28.64l3.02-12.14c-22.55,16.86-42.72,34.58-61.65,56.62l78.18.08,2.38-2.07c.39-.33-.36-2.15-.73-2.55l-10.58-11.31ZM775.99,196.38c-5.38-6.23-11.15.23-17.2-1.89-3.27-1.14-5.6-1.39-8.43-.15-6.56,2.89-9.13-4.43-11.93-4.95-2.52-.47-6.46,5.91-13.04.27-10.06-8.62-9.37-14.73-14.24-12.91-2.23.83-3.94,4-3.2,6l6.07,16.45,6.47-5.1,1.4,7.96c5.93,1.63,9.74-1.66,12.97-7.42l5.36,8.62,41.9.22-6.13-7.11ZM672.09,203.31l-6.65-11.72-4.48-6.24c-5.3,4.62-2.64,10.35-.16,17.74l11.28.22ZM108.9,302.79c6.84-30.56,20.4-58.47,39.03-83.58l-79.65-.04c-19.51,25.29-34.37,53.09-43.47,83.65l84.1-.03ZM202.76,248.07c-3.85-2.54-5.55-3.32-5.29-8.36.28-5.38-8.82-12.07-13.09-20.42l-8.22.17,7.58,9.76c-7.28-.05-9.21-6.86-13.82-9.84-2.81-1.82-4.6,1.99-5.87,3.68-18.11,24.17-31.98,50.37-39.34,79.73l116.96.03c1.86-12.92,4.28-24.97,7.26-37.49-7.47-7.37-16.77-2.04-21.17-5.07-3.96-2.73-8.33-4.2-13.59-4.64l-11.42-7.53ZM236.49,245.47c3.66,4.61,14.51,5.76,17.62-.21,4.43-8.5,7.09-17.66,10.57-26.11l-29.58.02c-1.1,0-3.88.91-3.82,1.88l.27,4.37.66,9.09,4.27,10.97ZM293.01,285.79c-1.13-.35-2.3-3.42-1.45-3.8l11.79-3.47c1.5-.44,4.84,1.32,6.41,2.26,4.31-4.95,9.56-8.97,15.62-9.68-2.02,3.94-2.91,6.55-1.59,9.69l5.64-8.23c2.5-3.65,15.26.65,16.93.56l17.98-1.04c1.02,3.77,2.55,6.33,5.6,7.84l9.56,9.59c1.96-24.39,7.25-47.81,14.26-70.34l-93.42.02c-1.51,1.61-3.35,1.78-4.76.13l-13.67-.27c-6.1,14.26-11.39,28.27-15.71,42.88l12.78-.93c3.96-.29,6.52,3.26,6.21,6.92l-1.03,12.08c-.79,9.32,8.33,7.59,9.71,12.07-.24,1.62-4.86,3.2-6.15,2.22l-4.71-3.57-6.95-2.77c.14-4.75-1.45-6.72-4.07-9.98-2.22-2.77-4.35-5.75-9.39-3.87l-5.55,28.69,47.39-.03.05-6.29c3.52-6.24-.7-13-3.19-13.05-2.98-.06-4.26,3.6-8.28,2.37ZM500.25,286.4c-5.29,1.5-10.57-3.93-14.37-5.96-5.17-2.76-6.33-6.33-8.75-10.81l-5.34-9.88c-1.42-2.63-7.22-4.52-6.61-8.75.4-2.77-.24-4.5-2.57-6.98l6.46-8.09c-.41-6.25,1.63-10.47,5.64-16.75l-64.83.03c-7.99,24.8-13.6,49.18-14.97,74.45,4.14,2.88,7.06,5.6,10.12,9.15h154.78c-2.67-3.35-1.84-5.86.38-9.2,1.04-1.57-.9-5.14-2.22-6.53-4.74-5.01-13.89,2.23-17.82-6.84l-10.4,2.04-12.74,1.39c-5.87.64-10.7,1.02-16.76,2.73ZM795.46,240.06l-5.66-20.88-48.33-.03c-2.99,6.81-8.64,9.93-14.6,12.76l-6.32,3.01-10.11,6.23-11.76,5.51c-1.66.78-6.05.94-7.11-.39-3.64-4.57-.37-11.48-6.78-16.04-3.66-2.6-5.03-5.84-5.36-10.99h-13.09c2.09,7.49,4.28,14.66,9.77,19.68l8.33,7.61c2.92,2.66,4.86,4.33,6.81,8.23l20.76-2.6c.81-.69,2.75-2.45,3.11-1.67l1.66,3.58c-.85,8.81-4.04,16.68-8.09,24.53-1.92,3.48-4.24,6.32-6.77,9.34l-12.4,14.83,115.46.05c-.3-21.25-3.86-41.83-9.54-62.76ZM902.7,237.94l-.97,11.72c-.37,4.48-.34,6.71,3.48,9.39l5.12,6.6c3.14,2.48,8.03,5.22,8.5,9.33l1.73,15.21c-7.65-2.77-13.39-9.84-14.49-17.08-.61-4.03-1.06-6.47-4.63-8.72-8.83-5.55-3.43-16.66-5.18-22.66l-4.34-14.83c-3.55,2.72-6.23,4.43-9.13,5.37l-3.53-13.1-34.02.09c-3.71,5.12-7.76,9.71-13.62,12.3l-2.03,9.43c-.52,2.41-2.14,7.05-3.25,9.19l-4.52,8.78c-.48.94-1.43,2.76-2.29,2.7l-3.13-.22c2.36,13.76,4.06,27.42,4.34,41.37h121.9c-2.8-17.79-6.78-34.91-12.48-51.99-3.16,2.1-6.79,3.44-9.35,3.18-.48-2.63-1.07-4.49-2.06-5.24l-6.46-4.87-9.58-5.95ZM1067.49,279.77c-8.82-21.93-20.21-41.59-33.82-60.62l-98.89.08c11.67,26.77,19.32,54.66,23.11,83.57h116.98s-7.39-23.04-7.39-23.04ZM1164.39,302.76c-9.55-31.43-24.03-58.82-43.39-83.61l-68.28.09,22.04,38.08c6.86,14.89,12.47,29.69,16.11,45.53l73.52-.08ZM110.06,408.59c-7.55-31.34-8.69-60.61-4.13-90.41l-85.07.08c-6.88,30.39-6.66,60.66.15,90.48l89.06-.15ZM242.99,408.61c-5.16-31.69-5.59-60.67-3.1-90.4l-118.44.03c-4.65,30.36-2.94,60.88,4.62,90.47l116.93-.1ZM304.75,363.89l-4.33-10.33c-1.39-3.31-5.6-4.44-8.31-5.49-4.28-5.03.61-12.3,6.82-14.61l-5.61-3.7c-.96-.64-2.12-8.16,1.6-11.57l-39.71.15c-2.63,31.04-1.62,60.3,3.35,90.36l71.6-.03,1.3-11.81c.15-8.01-16.07-9.22-20.39-18.87l-6.31-14.09ZM583.29,408.64l-3.51-7.45c-1.63-6.08-2.97-13.23-6.21-18.71-1.74-2.94-3.43-4.75-2.96-8.58s.19-10.16,1.81-13.22c3.76-7.1,2.9-12.96-.23-20.05-1.16-2.64-.67-8.95-2.37-11.14l-8.74-11.29-143.36.06c.49,3.54,4.31,2.88,5.74,4.09l9.13,7.75,17.96,1.51c2.77.23,6.84,5.22,9.37,6.19l8.96,3.44c3.31,7.87.68,17.27-6.57,21.92-6.37,5.65-10.94,12.34-10.71,21.21-5.09,8.52-10.55,16.5-16.66,24.29l148.34-.05ZM657.12,391.37c1.45,14.19-8.44,11.42-9.65,17.28l153.67.03c2.55-30.25,3.63-60.28,4.32-90.44h-130.03c-5.5,3.85-4.78,9.24-3.73,15.05s2.21,10.57,5.79,15.5c1.27,1.76.59,6.72.87,9.08.87,7.08-2.27,11.31-7.35,15.2-4.85,3.72-8.12,7.5-14.79,9.43l.91,8.88ZM941.07,408.6c5.2-31.4,5.85-60.7,3.18-90.39l-123.24.03c-.5,29.91-1.66,59.46-4.32,90.47l124.38-.12ZM1032.91,344.09c4.6-.27,10.39.98,14.63,2.14-2.92,3.68-5.22,7.33-4.24,10.3l15.62,8.62c1.22.68,3.03,1.65,4,1.25s2.7-2.79,2.86-4.05l2.14-17.37c.24-1.94,1.3-3.56,3.02-5.34l4.91,11.95c.59,1.44,3.05,2.69,5.05,2.28-.05-12.15-.89-23.89-2.72-35.66l-118.47.03c2.77,30,1.83,59.53-3.16,90.24l16.78.22c-2.35-4.06-2.4-6.2-1.94-9.89l-2.48-11.75,7.87-3.25,11.79-6.17c4.49-2.35,8.28-4.76,8.72-10.47,6.46-3.02,8.52-14.7,13.74-12.49l8.94,3.79c-.38-8.55,4.27-13.87,12.96-14.38ZM1112.52,408.69l54.89-.08c7.2-29.91,7.12-60.06.92-90.34l-74.54-.06c3.15,20.57,3.62,40.71.96,61.84l5.62,4.5,6.3,7.95c3.42,4.32,4.27,10.28,5.85,16.19ZM168.17,518.82c-24.71-28.53-43.03-59.87-53.92-94.57l-89.24.05c3.58,10.96,7.52,21.09,12.02,31.72,11.22,22.71,24.54,43.56,41.17,62.85l89.97-.05ZM289.17,518.76c-21.45-29.42-35.02-60.12-43.11-94.49l-115.27.03c12.64,36.72,32.98,67.88,59.08,94.62l99.3-.16ZM316.38,475.97c.71-2.49.94-7.23,2.44-8.86,4-4.37,4.95-8.9,4.9-14.31l-.11-13.81,4.04-14.71-65.62-.05c8.87,35.2,24.42,67.92,48.85,95.83,3.83-4.5,1.78-9.96-1.73-14l7.37-2.06,1.2-11.28c.26-2.47-.26-5.69-1.54-7.91-1.75-3.05-.94-4.98.17-8.86ZM591.58,435.7c.28-4.08-.13-8.38-2.8-11.43l-178.78.05c1.03,6.77-1.26,11.27-7.16,14.34,2.88,20.46,7.63,40.44,14.4,60.09l8.74,20.11,34.89-.06c16.79-58.73,73.17-82.39,130.72-83.1ZM771.56,520.69c17.84-28.48,23.24-64.61,27.62-96.4l-155.27.02c-4.48,6.63-9.94,10.85-17.5,13.96,46.85,8.08,85.19,36.2,98.8,82.51l46.34-.08ZM888.62,520.64c24.39-28.53,40.3-60.93,48.76-96.35h-122.68c-3.93,33.08-10.5,66.05-24.41,96.47l98.32-.12ZM1050.8,431.7l-5.18-7.34-24.67-.08c-2.74,0-5.9,1.85-7.72,3.91-4.34,4.9-8.62,1.52-18.32,3.87s-16.53,1.03-16.46-2.06l.12-5.74-25.3.04c-7.69,35.28-22.29,67.61-44.47,96.39l100.15-.04,10.57-12.18c17.68-19.6,31.78-41.34,42.36-65.61l-.32-6.59c-.08-1.58-3.22-4.59-4.29-3.84l-1.83,2.7c-.23.34-1.86-1.06-1.63-1.4,1.47-2.13,4-7.43,1.68-10.34l-4.68,8.33ZM1029.8,520.59l78.08.09c24.26-28.68,44.02-60.36,55.42-96.4l-54.55-.08c-4.68,3.59-8.81,8.21-11.64,13.95-.8.91-3.06,2.39-4.17,2.63l-14.86,3.26c-6.06,15.1-12.81,28.8-21.76,42.26l-26.53,34.28ZM341.42,492.38c-1.29,4.22-2.48,6.97-6.12,7.81-.97.23-2.67,2.42-2.2,3.22l2.3,3.9c-2.88,6.29-10.03,9.34-16.55,11.51l89.61.03c-9.08-21.14-14.85-42.45-19.43-65.17-4.9,7.09-11.68,7.56-19.29,3.76l5,8.44c-4.97,11.94-17.58,6.53-22.06,9.26-1.01.61-1.29,2.95-2.04,4.64-1.91,4.27-7.8,7.87-9.24,12.6Z"/>
  <path class="cls-1" d="M332.76,688.87c-57.36-16.72-111.12-40.19-161.87-71.15l4.39-14.81,293.65-.02c7.65,23.17,21.31,43.01,40.04,58.05,38.97,30.81,91,37.5,136.71,17.48,34.58-15.58,62.42-44.03,77.64-79.57h288.41s4.81,14.53,4.81,14.53c-54.91,34.35-113.77,60.3-176.16,78.16-70.22,20.1-142.44,31.76-215.68,34.12-98.4,3.18-196.89-9.1-291.96-36.8ZM794.21,615.33h-61.41c-11.84,24.25-29.38,43.09-50.02,59.86,39.89-15.21,76.75-35.14,111.43-59.86ZM869.22,634.49l39.11-19.13-87.12-.07c-39.98,30.73-83.17,54.99-130.24,74.19,61.59-11.11,120.89-30.26,178.26-54.99ZM876.07,663.49c37.3-12.79,71.77-28.62,105.26-47.98l-38.31-.29-10.94,6.04c-67.53,37.27-140.13,62.01-213.95,79.61,54.67-6.62,106.57-19.75,157.94-37.37ZM393.94,687.63c-54.84-16.32-108.08-39.51-158.43-69.02l-30.29.21c54.83,31.34,116.47,52.18,176.9,66.82,4.07.99,6.68,2.26,11.82,1.99ZM340.37,618.62l-71.36.19c27.2,15.22,53.71,26.48,81.62,37.62,40.66,14.91,81.49,26.86,124.51,34.58-49.7-17.98-91.15-42.51-134.78-72.39ZM521.18,688.02c-28.61-15.18-50.38-39.4-63.08-69.37l-88.56.14c21.68,14.42,42.82,26.72,65.53,38.07,27.98,12.95,55.73,24.15,86.12,31.17Z"/>
  <path class="cls-1" d="M1035.7,581.44l-267.91-.08v-15.61s284.19.04,284.19.04l-.11,329.19-918.37.02-.16-130.64c12.41-1.9,24.35-4.6,34.74-11.08,13.09-8.18,18.76-23.97,11.05-37.5-4.84-8.49-13.28-13.2-22.11-16.87l-23.63-5.6-.12-127.51h273.26s.29,15.97.29,15.97H149.16s0,98.62,0,98.62c14.03,2.82,27.21,8.53,37.43,18.87,16.92,18.26,15.42,45.83-3.37,62.05-9.68,8.44-21.17,13.38-34.05,16.1v101.67s886.53-.03,886.53-.03v-297.6Z"/>
  <polygon class="cls-1" points="681.57 526.92 701.29 526.98 677.81 623.81 656.71 623.87 637.9 552.8 619.44 623.76 598.25 623.86 574.6 526.96 594.68 526.94 609.78 592.93 626.99 526.9 649.59 526.93 666.65 593.47 681.57 526.92"/>
  <path class="cls-1" d="M268.26,848.65c14.62,3.49,31.81-1.09,35-16.34,1.66-7.9,1.01-16.63-2.76-23.84l-8.27-15.82,13.16-7.83c5.86,10.56,11.92,26.94,22,25.33,2.18-.35,4.85-4.04,4.9-6.82l.38-18.41,13.59.05,1.25,14.64c.45,5.34,5.13,10.05,10.47,10.63,1.56.17,4.47-.45,5.42-1.29,4.47-3.97.7-13.81-4.9-21.34l12.1-8.74c3.45,5.26,6.46,9.65,8.32,15.38,3.06,9.4,1.84,21.86-5.87,28.68-9.48,8.4-24.21,3.99-30.73-5.82-2.35,4.25-5.37,7.81-8.85,9.08-5.3,1.94-9.88.86-14.61-2.13.47,14.84-5.51,29.65-18.94,36.87-11.42,6.14-25.58,6.61-37.72,3.03-22.94-6.77-29.13-32.04-20.54-55.43l13.41,3.09c-1.52,5.79-2.66,10.03-2.87,15.38-.39,10.18,6.11,19.27,16.05,21.64Z"/>
  <path class="cls-1" d="M542.37,586.87l-27.7.34.13,36.55-19.64.08v-96.99s46.56.31,46.56.31c11.28.07,20.46,6.26,24.65,16.54,4.14,10.54,3.08,22.12-2.76,31.9-4.95,6.5-12.35,11.16-21.23,11.27ZM535.45,570.12c8.62-.21,13.64-6.16,13.43-13.58-.18-6.43-4.99-12.59-12.59-12.8l-21.65-.6.25,27.47,20.56-.49Z"/>
  <path class="cls-1" d="M862.26,804.39l-7.8-14.87,12.66-8.11c5.56,8.03,10.24,15.94,10.84,25.56.55,8.86-4.23,17.97-13.17,19.87-6.45,1.37-13.36,1.04-19.93.59-6.18-.41-10.77-4.05-14.92-9.11-3.89,5.78-9.08,9.43-15.69,9.29l-18.21-.4c-12.4-.27-17.56-13.33-17.57-27.19l-.03-50.1,15.09-.03.15,52.18c0,3.08,2.59,8.36,5.51,8.43l13.87.35c2.11.05,5.57-3.8,5.62-6.05l.42-21.23h14.84s.43,17.26.43,17.26c.12,4.9,4.64,9.89,9.61,10l14.02.3c1.03.02,3.25-1.01,3.8-1.74.65-.87,1.11-3.78.47-5Z"/>
  <path class="cls-1" d="M684.23,825.29c-1.49-10.44.31-19.96,4.22-29.09l12.77,4.53c-1.86,6.18-3.16,11.31-3.05,17.23.17,9.54,7.45,16.32,16.8,17.14,14.37,1.25,29.12-1.77,39.34-13.36l-22.41-2.42c-7.94-.86-13.19-7.22-12.24-15.56,1.6-13.98,12.97-25.86,26.96-28.21,8.07-1.35,15.33,1.49,21.73,6.29l-7.04,11.86c-5.69-3.3-10.71-4.71-16.63-2.71-4.24,1.43-8.96,4.86-10.03,11.56,11.07,4.26,27.95-.09,31.75,9.04s-.61,19.22-8.11,25.91c-12.75,11.39-30.07,15.58-47.24,13.53-13.75-1.64-24.8-11.5-26.83-25.73Z"/>
  <path class="cls-1" d="M634.07,826.55c-6.03,1.68-12.27,1.04-18.07,1.25-7.46.27-14.01-2.06-19.07-8.08-6.04,17.44-29.18,29.91-45.92,39.12l-8.05-12.33c14.4-7.58,45.38-24.94,39.73-38.32l-7.99-18.92,13.23-7.57,10.07,19.45c1.98,3.83,6.64,9.38,11.06,9.46l18.74.32c1.49.03,3.89-3.57,3.22-4.99l-7.81-16.53,12.34-7.98c5.14,7.06,9.54,14.65,10.82,23.48s-2.92,19.03-12.3,21.65Z"/>
  <path class="cls-1" d="M486.41,802.91c4.94,5.77,9.17,8.33,15.56,8.28l17.22-.13c1.41-.01,4.34-1.14,4.95-2.3.7-1.33.49-4.89-.63-6.23l-24.93-29.64,11.45-10.33,17.45,19.99c5.14,5.89,10.1,12.64,11.74,20.16,2.63,12.06-5.07,23.35-17.28,24.49-8.6.81-17.31.86-25.91-.09-8.25-.91-14.62-7.25-18.61-13.66l8.99-10.54Z"/>
  <path class="cls-1" d="M897.32,803.14c4.36,3.84,7.78,7.68,12.71,7.72l21.8.14c.97,0,2.77-.89,3.36-1.44,3.14-2.97-2.16-10.91-7.13-16.49l-17.8-20.02,11.42-10.42,20.5,23.23c3.64,4.97,7.28,10.19,8.79,16.22,3.1,12.38-5.14,24.33-18,25.22l-24.98-.17c-8.47-.06-14.56-7.34-19.15-13.53l8.47-10.44Z"/>
  <path class="cls-1" d="M393.47,853.21l-8.53-12.63c11.88-6.3,23.25-13.03,33.34-22.26,12.09-11.04,6.68-20.43-1.41-34.28l12.87-8.4c7.76,12.31,14.97,27.02,8.26,40.35-3.92,7.77-9.42,14.62-16.7,19.3l-27.83,17.91Z"/>
  <rect class="cls-1" x="451.6" y="749.84" width="14.65" height="77.78"/>
  <rect class="cls-1" x="854.02" y="762.31" width="14.71" height="13.94" transform="translate(-2.69 3.02)"/>
  <rect class="cls-1" x="412.5" y="755.51" width="14.62" height="14.64" transform="translate(-2 1.1)"/>
  <rect class="cls-1" x="812.38" y="838.44" width="13.38" height="13.7" transform="translate(-27.0265 1663.5228) rotate(-89.9436)"/>
  <rect class="cls-1" x="324" y="762.82" width="13.09" height="13.24" transform="translate(-439.606 1098.3361) rotate(-89.877)"/>
  <rect class="cls-1" x="340.65" y="762.89" width="13.36" height="13.14" transform="translate(-4.24 1.93) rotate(-.32)"/>
  <rect class="cls-1" x="332.08" y="746.95" width="13.44" height="13.18" transform="translate(-1.48 .67)"/>
  <rect class="cls-1" x="829.8" y="838.59" width="13.43" height="13.39" transform="translate(-2.49 2.47)"/>
  <rect class="cls-1" x="617.15" y="835.9" width="13.1" height="13.04" transform="translate(-2.21 1.64)"/>
  <rect class="cls-1" x="633.82" y="835.82" width="12.89" height="13.01" transform="translate(-203.9451 1480.104) rotate(-89.8308)"/>
  <rect class="cls-1" x="625.45" y="851.18" width="13.15" height="13.13"/>
</svg>