<?xml version="1.0" encoding="UTF-8"?>
<svg id="Layer_1" xmlns="http://www.w3.org/2000/svg" viewBox="0 0 957.22 960.62">
  <path d="M957.22,485c-1.98,1.11-4.07,2.06-5.92,3.35-49.93,34.68-99.83,69.4-149.75,104.11-1.08.75-2.21,1.44-4.1,2.66v-58.79h-185.67c43.13,43.16,86.5,86.57,130.62,130.72,12.84-13.07,26.3-26.78,40.42-41.15,11.78,65.58,23.36,130.04,35.1,195.4-64.79-11.65-128.86-23.18-193.42-34.79,13.84-13.79,27.31-27.21,40.27-40.13-44.74-44.95-88.65-89.07-132.82-133.45v184.74h59.2c-38.03,54.77-75.37,108.55-113.15,162.96-37.67-54.24-74.96-107.94-112.75-162.35h58.51v-187.12c-43.34,43.69-86.59,87.27-129.93,130.95,12.73,12.76,26.42,26.48,41.11,41.22-65.98,11.87-130.5,23.47-195.76,35.21,11.71-65.19,23.25-129.45,34.93-194.46,13.98,14.14,27.3,27.62,40.77,41.25,44.4-44.92,88.22-89.24,131.49-133.02h-183.59v59.22c-54.76-38.08-108.43-75.4-162.77-113.19,54.07-37.61,107.78-74.97,162.33-112.91v58.59h184.98c-42.77-42.76-86.15-86.14-129.88-129.86-12.48,12.5-26.05,26.1-40.35,40.44-11.77-65.52-23.35-129.97-35.09-195.32,64.98,11.68,129.26,23.23,193.52,34.79-13.75,13.63-27.31,27.07-40.44,40.07,44.83,45.02,88.74,89.11,132.72,133.28v-184.34h-58.83c1.56-2.42,2.55-4.08,3.65-5.66,35.33-50.9,70.68-101.79,106-152.7,1.02-1.47,1.74-3.15,2.61-4.73.33,0,.67,0,1,0,.87,1.39,1.69,2.82,2.62,4.17,35.52,51.17,71.05,102.34,106.57,153.51.98,1.41,1.87,2.88,3.35,5.17h-58.39v186.8c43.9-44.3,87.05-87.84,130.5-131.68-13.07-13.22-26.59-26.9-40.38-40.86,64.64-11.62,129.04-23.21,194.21-34.93-11.67,65.01-23.19,129.13-34.82,193.91-13.94-13.99-27.38-27.48-41.13-41.27-44.46,45.03-88.3,89.44-131.68,133.39h184.27v-58.74c1.83,1.17,3.08,1.9,4.27,2.73,36.1,25.1,72.18,50.24,108.3,75.31,15.72,10.91,31.54,21.68,47.31,32.51v5ZM480.04,589.29c60.38-.09,109.07-48.82,108.99-109.07-.07-60.17-49.06-109.11-109.16-109.04-60.25.07-108.87,48.87-108.81,109.22.05,60.45,48.63,108.98,108.98,108.89Z"/>
  <path d="M480.04,589.29c-60.35.09-108.93-48.44-108.98-108.89-.05-60.35,48.57-109.15,108.81-109.22,60.1-.06,109.09,48.87,109.16,109.04.07,60.25-48.62,108.98-108.99,109.07ZM532,565.3c-11.39-1.5-23.01-1.52-34.25-6.65,26.02-17.32,44.75-39.3,47.04-70.75,2.19-30.08-5.54-57.56-29.04-78.71,11.85,22.88,17.99,46.82,13.43,72.61-4.61,26.1-19.2,46.02-39.68,63.29,0-2.62-.03-4.11,0-5.59,1.04-41.3,2.11-82.59,3.08-123.89.04-1.85-.07-4.36-1.2-5.47-3.39-3.33-7.31-6.11-11.14-9.19-2.55,2.33-4.8,5.23-7.76,6.88-3.87,2.15-4.39,5.04-4.28,8.94,1.1,40.63,2.08,81.26,3.09,121.89.04,1.73,0,3.45,0,6.26-20.63-17.53-35.06-37.47-39.62-63.45-4.53-25.83,1.9-49.66,13.88-72.45-18.86,15.25-26.28,36.23-29.1,59.16-4.96,40.4,14.62,68.63,46.5,90.45-.05.5-.11,1.01-.16,1.51-11.21,1.79-22.42,3.59-33.29,5.33,6.18,2.99,19.2,5.47,29.36,3.63,9.35-1.7,16.7-.96,21.18,8.41.05.11.3.13.78.31,1.34-1.71,3.03-3.35,4.11-5.33,2.35-4.3,5.32-4.99,10.19-4.06,12.42,2.36,24.79,1.13,36.87-3.13ZM524.31,406.03c42.12,41.88,50.32,87.95,19.2,139.53,21.69-9.49,38.89-44.28,36.6-73.46-2.42-30.77-25.09-57.91-55.79-66.07ZM417.7,545.93c-31.3-52.14-23.08-98.15,18.82-139.77-28.26,6.96-51.57,33.22-55.19,61.74-3.9,30.73,11.88,65.12,36.37,78.03ZM455.23,383.22c-2.3,6.7-1.15,11.62,3.85,15.44,7.55,5.76,14.82,4.2,21.52-1.55,7.73,6.15,15.36,6.62,21.46,1.48,4.9-4.13,6.23-10.01,3.9-14.22-3.97,2.84-7.75,7.43-12.16,8.14-4.29.69-9.21-2.6-14.61-4.39-9.87,8.04-13.29,7.53-23.96-4.9Z" style="fill: #fff;"/>
  <path d="M532,565.3c-12.07,4.26-24.44,5.49-36.87,3.13-4.86-.92-7.84-.24-10.19,4.06-1.08,1.98-2.76,3.62-4.11,5.33-.48-.19-.73-.2-.78-.31-4.48-9.37-11.83-10.11-21.18-8.41-10.16,1.85-23.17-.64-29.36-3.63,10.87-1.74,22.08-3.53,33.29-5.33.05-.5.11-1.01.16-1.51-31.88-21.82-51.46-50.05-46.5-90.45,2.82-22.92,10.24-43.91,29.1-59.16-11.98,22.79-18.41,46.62-13.88,72.45,4.56,25.98,18.99,45.93,39.62,63.45,0-2.81.04-4.54,0-6.26-1.01-40.63-1.98-81.26-3.09-121.89-.11-3.9.41-6.78,4.28-8.94,2.96-1.64,5.21-4.55,7.76-6.88,3.83,3.08,7.75,5.87,11.14,9.19,1.12,1.1,1.24,3.61,1.2,5.47-.98,41.3-2.04,82.59-3.08,123.89-.04,1.48,0,2.97,0,5.59,20.48-17.27,35.07-37.19,39.68-63.29,4.55-25.79-1.58-49.73-13.43-72.61,23.5,21.15,31.24,48.63,29.04,78.71-2.29,31.45-21.02,53.43-47.04,70.75,11.25,5.13,22.86,5.15,34.25,6.65Z"/>
  <path d="M524.31,406.03c30.7,8.15,53.37,35.3,55.79,66.07,2.3,29.18-14.9,63.97-36.6,73.46,31.13-51.58,22.92-97.64-19.2-139.53Z"/>
  <path d="M417.7,545.93c-24.5-12.91-40.27-47.3-36.37-78.03,3.62-28.52,26.94-54.78,55.19-61.74-41.9,41.62-50.13,87.63-18.82,139.77Z"/>
  <path d="M455.23,383.22c10.67,12.43,14.09,12.93,23.96,4.9,5.4,1.79,10.33,5.08,14.61,4.39,4.41-.71,8.19-5.3,12.16-8.14,2.32,4.21,1,10.09-3.9,14.22-6.1,5.14-13.73,4.67-21.46-1.48-6.7,5.76-13.97,7.31-21.52,1.55-5-3.81-6.15-8.74-3.85-15.44Z"/>
</svg>