<?xml version="1.0" encoding="UTF-8"?>
<svg id="Layer_1" xmlns="http://www.w3.org/2000/svg" viewBox="0 0 1200 1200">
  <path d="M270.02,1059.03c-3.49.98-6.94,2.22-10.49,2.89-30.99,5.83-57.05-20.57-51.02-51.6.12-.63.21-1.26.43-2.65-18.19,5.23-34.46,2.44-47.29-11.49-12.86-13.97-14.77-30.34-7.82-47.86-41.52-4.03-55.13-23.47-45.01-63.94-36.43-2.09-55.17-40.81-34.21-70.71-18.35-2.95-31.44-12.64-37.11-30.48-5.63-17.71-.38-33.03,12.75-45.98-39.08-11.09-45.19-60.34-11.8-80.81-32.09-15.25-35.31-60.6-.78-79.58-16.14-10.16-24.62-24.59-22.42-43.5,2.21-19.01,13.65-31.23,32.33-37.3-14.16-12.79-20.53-27.93-15.55-46.32,4.94-18.26,17.7-28.31,36.46-32.01-11.36-14.28-15.23-29.91-7.76-46.92,7.5-17.07,21.22-25.41,40.49-26.33-10.71-15.99-13.01-32.64-3.1-49.29,9.97-16.74,25.53-23.05,45.24-20.81-6.17-17.16-5.22-33.03,6.65-46.83,11.84-13.76,27.12-17.78,45.3-13.53-5.12-18.67-1.79-34.92,12.75-47.53,14.66-12.71,31.22-13.44,48.6-5.77-8.08-39.5,34.95-67.82,69.17-44.38-.97-19.81,6.22-35.35,23.96-44.12,17.86-8.82,34.59-5.24,50.03,7.99,3.11-18.43,12.38-31.87,30.23-37.59,17.96-5.76,33.4-.48,46.33,12.99,10.7-37.82,56.84-45.45,79.54-13.42,8.69-16.8,21.9-26.83,41.1-26.47,19.05.35,31.96,10.57,40.04,27.77,11.66-16.45,26.83-24.14,46.42-20.31,17.67,3.46,28.43,14.96,33.86,32.32,12.4-14.39,27.66-20.85,46.23-15.99,18.47,4.83,28.71,17.71,32.5,36.63,14.69-12.47,30.91-16.22,48.4-8.45,17.37,7.72,25.54,22.01,25.93,41.54,16.04-10.6,32.62-12.42,49.02-2.6,16.3,9.76,22.7,24.97,20.82,44.28,17.15-6.61,33.22-4.99,47.02,7.18,13.74,12.12,17.49,27.7,12.84,45.86,17.88-4.3,33.49-.8,45.65,12.92,12.17,13.73,13.94,29.6,7.27,46.7,19.49-1.87,35.06,4.39,44.95,21.15,9.46,16.02,7.93,32.13-2.68,47.98,17.57,1.2,31.21,8.57,39.07,24.38,7.92,15.93,5.69,31.27-4.62,46.09,18.34,3.7,31.09,13.72,36.13,31.53,5.01,17.69-.39,32.8-14.4,45.52,17.9,5.69,29.72,16.81,32.88,35.32,3.2,18.74-4.44,33.06-19.43,43.96,34.07,19.05,29.63,61.76,1.21,77.86,15.99,9.86,24.52,23.92,22.71,42.75-1.81,18.81-12.94,30.76-30.3,37.29,25.67,25.3,14.49,66.85-21.96,75.28,9.8,14.17,12.87,29.29,5.41,45.25-7.34,15.69-20.18,23.82-37.97,25.44,10.15,16.07,11.6,32.62,1.29,48.77-10.38,16.25-26.08,21.88-45.47,19.51,6.87,17.2,5.12,32.95-6.68,46.64-11.84,13.73-27.36,17.34-44.92,13.59,10.52,38.21-25.44,67.58-59.77,53.25,2.53,18.66-2.94,34.1-18.64,44.66-15.82,10.63-32.26,9.57-48.59.39-.99,39.21-43.95,58.2-73.78,32.97-2.21,18.92-11.42,32.74-29.55,38.86-18.17,6.13-34.06,1.24-47.53-12.89-5.61,18.16-17.26,29.91-35.96,32.68-18.49,2.74-33.2-4.49-43.99-20.43-7.26,18.6-20.39,29.81-40.37,30.31-19.84.49-33.6-9.81-42.13-28.32-11.23,14.69-25.69,21.64-43.68,18.46-17.88-3.16-29.04-14.48-34.83-32.09-12.15,13.31-27.04,18.55-44.29,14.12-17.31-4.44-27.64-16.39-32.05-34.2-14.13,11.83-29.65,15.19-46.35,8.34-16.81-6.89-25.22-20.36-27.07-38.55-5.67,3.47-11.36,6.48-17.83,7.62-27.55,4.85-51.85-15.71-51.57-43.66.01-1.47-.19-2.95-.29-4.42.17-.09.34-.19.51-.28-.1-.01-.27-.07-.3-.03-.08.11-.1.26-.14.39ZM960.83,852.82c-.35.34-.77.63-1.04,1.03-26.61,39.92-62.29,68.77-106.39,87.41-1.67.71-3.36,1.54-4.78,2.64-3.46,2.67-3.31,4.55.48,6.57,6.47,3.45,13.32,4.96,20.69,3.93,11.46-1.61,21.07-7.12,29.67-14.39,27.94-23.61,45.96-54.4,62.08-86.52.33-.5.69-1.01.04-1.49-.03-.02-.5.54-.76.83ZM185.95,637.06c-.07-.46-.14-.91-.22-1.45-.66.72-.48,1.13.3,1.38.03,1.49-.14,3.01.12,4.45,3.32,17.88,8.12,35.3,15.57,51.95,11.82,26.4,29.75,48.4,49.55,69.03,24.01,25.01,50.01,47.99,74.33,72.66,6.3,6.39,12.73,6.28,20.45,5.39,0-5.41-.43-10.61.12-15.7.58-5.38-1.61-8.32-5.91-11.26-62.22-42.65-112.31-96.25-147.14-163.58-2.25-4.36-3.84-9.12-7.18-12.88ZM418.04,603.55h344.64v-132.26h-34.32v99.3h-16.74v-54.53h-34.03v54.5h-14.1v-54.54h-34.15v54.75c-5.63.21-10.69.53-16.28-.24v-54.52h-33.87v54.59h-55.09v-110.65h87.49v-27.7h-118.7v70.42h-41.69v-112.06h-33.15v212.93ZM682.47,165.12c-6.97,43.03-38.2,77.64-69.34,76.76v-34.49h-34.18v34.89c-16.26-3.44-30.12-10.16-41.74-21.27-15.85-15.13-22.55-34.12-23.01-55.82h-29.46c1.13,21.02,6.83,40.25,18.3,57.55,18.04,27.22,43.94,42.37,75.6,48.02v40.47h-89.7v80.07h-23.18v16h57.61v-67.78h55.8v48.24h34.06v-48.3h48.99v45.49h72.14v-46.25h56.12c.76-5.17.76-91.8.07-95.86h-30.01v66.98h-25.66v-45.12h-73.22v45.8h-48.25v-39.52c26.39-4.35,48.86-15.67,66.38-35.92,17.33-20.03,25.79-43.71,28.8-69.93h-26.12ZM650.97,1034.98c-.13-11.96-.69-23.61.99-35.19,1.99-13.69,5.52-26.76,14.75-37.56,12.19-14.26,33.96-16.52,47.59-5.02,5.87,4.95,7.63,11.8,4.6,17.86-2.49,4.98-8.11,6.64-15.86,4.37-3.92-1.15-7.69-2.78-11.65-4.24-.4,1.93-.81,3.54-1.08,5.18-3.99,24.58,11.92,40.86,36.69,38.19,12.33-1.33,22.05-6.58,30.05-15.86,8.39-9.74,15.69-20.29,23.7-30.31,4.99-6.25,9.97-12.56,16.8-16.98,8.2-5.3,16-3.76,21.78,4.13,2.43,3.31,2.36,7.16,2.62,10.98.32,4.67-.68,9.49,1.25,14.12,12.77-7.93,18.89-20.73,15.74-32.47-3.11-11.58-15.34-19.81-29.71-20.21-12.28-.34-23.19,3.74-33.51,9.91-7.62,4.56-14.35,10.25-20.66,16.47-2.94,2.9-6.55,3.75-10.6,2.95-3.98-.78-2.94-4.37-3.65-6.78-6.16-20.96-19.32-29.57-40.85-26.78-14.98,1.95-29.24,6.65-43.2,11.94-22.82,8.64-46.34,9.99-70.2,8.33-14.05-.98-27.19-6.2-40.49-10.47-12.83-4.11-25.58-8.46-39.06-10.13-18.23-2.26-31.16,5.49-37.42,22.75-.79,2.18-1.72,4.4-2,6.67-.56,4.53-3.37,5.11-7.05,4.66-2.75-.33-5.03-1.46-7.05-3.39-3.01-2.87-6.05-5.75-9.3-8.34-13.3-10.62-27.76-18.52-45.46-17.72-10.09.45-18.91,4.04-25.06,12.45-9.43,12.89-3.8,31.47,12.13,40.13,1.56-5.04,1.22-10.22,1.13-15.3-.13-7.35,3.17-12.47,9.48-15.7,6.24-3.2,11.66-.6,16.67,3.1,6.64,4.91,11.64,11.41,16.68,17.84,7.3,9.31,14.2,18.9,21.81,27.98,8.56,10.21,19.24,15.44,32.46,16.23,16.17.96,29.29-6.63,33.41-19.78,2.45-7.84,1.86-15.67-.07-23.89-3.03,1.23-5.74,2.4-8.5,3.44-2.81,1.07-5.73,1.73-8.76,1.81-7.96.19-13.04-5.89-11.48-13.76.86-4.34,3.41-7.56,6.85-10.1,7.94-5.85,16.92-7.87,26.5-5.95,16.15,3.25,24.7,14.74,30.05,29.17,5.6,15.09,6.39,30.87,6.06,46.77-.06,2.74-.61,5.55.29,8.47,4.61-.99,8.95-2.2,13.38-2.78,3.47-.46,4.77-1.89,4.85-5.39.29-13.16.77-26.32,1.3-39.47.38-9.33,4.52-14.39,13.62-16.6,6.89-1.67,13.94-1.04,20.9-.72,12.46.59,18.33,6.88,18.67,19.34.34,12.66.78,25.32,1.12,37.97.06,2.13.15,3.94,2.81,4.45,5.2.98,10.38,2.1,15.97,3.25ZM554.96,928.4c16.31-17.67,26.3-37.86,27.99-61.7,2.05-28.86-7.32-54.38-23.57-77.74-17.52-25.19-41.66-42.24-68.56-55.96-32.55-16.61-67.06-28.34-101.21-41-17.77-6.59-35.79-12.76-51.72-23.38-8.27-5.52-15.29-12.06-13.95-23.69-2.2.11-4,.12-5.77.3-31.32,3.12-56.66-8-75.43-32.97-15.49-20.6-23.69-43.82-20.73-70.05,2.17-19.31,15.4-25.99,32.32-16.42,3.15,1.78,6.11,3.89,9.78,6.24-.8-4.64-1.31-8.6-2.21-12.47-.68-2.9-1.65-5.77-2.85-8.5-7.4-16.8-23.06-20.12-36.79-7.84-7.69,6.88-12.41,15.61-15.16,25.39-6.65,23.64-2.28,46.22,7.43,68.04,13.29,29.85,34.49,53.65,58.81,74.84,37.1,32.31,79.34,56.52,123.47,77.72,1.97.94,3.72.95,5.75.37,8.33-2.34,16.8-2.2,25.27-1.03,21.15,2.92,40.32,11.2,58.35,22.23,23.78,14.54,44.23,32.62,58.1,57.22,16.82,29.83,14.34,58.91-7.02,85.49-.71.89-1.67,1.66-1.51,3.32,6.21,3.75,12.58,7.59,19.21,11.6ZM884.8,644.64c1.28,9.87-3.68,15.92-10.08,21.19-4,3.29-8.44,5.92-13.02,8.33-14.46,7.63-29.79,13.21-45.09,18.81-33.41,12.24-67.03,23.94-98.86,40.12-31.02,15.77-57.9,36.18-75.45,67-16.48,28.94-22.17,59.36-11.18,91.65,4.72,13.85,12.49,25.92,22.82,36.61,6.68-4.04,13.03-7.89,19.33-11.71-.64-2.44-2.3-3.7-3.49-5.25-9.26-12.01-15.31-25.24-16.08-40.64-.93-18.6,5-35.2,15.34-50.17,23.18-33.58,55.1-55.47,93.63-67.95,14.56-4.71,29.49-6.96,44.7-2.72,1.98.55,3.57-.21,5.22-1.03,6.71-3.32,13.47-6.53,20.12-9.97,39.93-20.63,78-44.05,111-74.93,22.71-21.25,42.21-44.9,53.43-74.4,8.21-21.57,11.08-43.51,2.9-65.82-3.63-9.9-9.23-18.48-18.43-24.17-11.08-6.84-22.43-4.23-29.38,6.73-4.84,7.63-6.37,16.21-7.29,25.65,3.3-2.19,5.96-4.14,8.79-5.8,16.9-9.97,29.7-4.06,33.03,15.2.17.98.21,1.99.28,2.98,1.96,26.03-6.4,48.87-21.97,69.25-12.72,16.65-29.45,27.2-50.22,30.98-9.74,1.78-19.52,1.53-30.05.06ZM401.11,502.41h-108.22v105.25h108.22v-105.25ZM904.04,469.53h-66.78v30.31h33.13v70.7h-52.07c0,9.86.17,19.15-.08,28.44-.1,3.72.98,4.84,4.76,4.82,19.99-.11,39.97.06,59.96.12,6.95.02,13.89,0,21.09,0v-134.38ZM778.62,391.43v163.41h32.82v-163.41h-32.82ZM204.16,509.17c-2.78.45-3.52,2.53-4.61,4.04-9.96,13.69-13.31,29.19-12.02,45.82,1.57,20.27,8.63,38.87,17.9,56.71,19.34,37.19,45.74,69.03,75.4,98.28,23.9,23.57,49.45,45.1,78.9,61.63,5.95,3.34,11.86,2.15,17.85.62,1.67-.43,2.86-1.61,3.62-3.22,2.48-5.26-1.32-16.73-6.49-19.49-34.3-18.3-67.17-38.8-97.05-63.79-24.81-20.75-47.02-43.83-62.94-72.33-15.62-27.97-22.26-57.57-15.62-89.41,1.31-6.27,3.31-12.4,5.07-18.86ZM1004.61,507.61c-.71,1.29-.28,2.03,0,2.81,13.82,37.8,8.33,73.64-11.1,107.99-17.09,30.23-41.2,54.24-67.91,75.88-28.57,23.14-59.73,42.32-92.1,59.62-1.69.9-3.94,1.28-4.41,3.66-.73,3.75-1.58,7.49-2.05,11.28-.56,4.56,1.73,7.28,6.2,8.11,6.33,1.18,12.47,1.51,18.15-2.59,3.63-2.62,7.74-4.57,11.49-7.04,37.47-24.66,69.66-55.18,98.34-89.47,20.92-25.01,39.27-51.72,51.22-82.32,7.3-18.71,11.45-37.95,7.47-58.11-2.23-11.3-7.29-21.22-15.32-29.81ZM183.02,587.33c2.28,16.52,6.44,32.18,12.35,47.39,13.22,34.05,34.22,63.04,58.75,89.67,26.69,28.97,56.58,54.49,86.38,80.14,5.85,5.03,11.32,4.21,17.51,3.37,1.19-.16,2.13-.9,2.79-1.93,2.62-4.13.96-13.17-2.97-16.03-24.92-18.15-49.02-37.29-71.66-58.26-42.85-39.7-75.57-86.62-100.09-139.46-.75-1.61-1.14-3.47-3.06-4.88ZM1025.19,587.07c-1.08,2.22-2.17,4.44-3.22,6.67-22.35,47.58-51.17,90.64-88.74,127.66-25.22,24.85-52.68,46.98-81.27,67.77-4.71,3.43-6.71,10.93-4.23,16.09.41.85,1.11,1.71,1.9,2.19,4,2.39,13.16,1.48,16.8-1.63,11.02-9.41,22.13-18.72,33-28.29,28.28-24.91,55.59-50.77,78.54-80.87,24.83-32.57,42.11-68.43,47.21-109.58ZM1023.33,636.26c-1.26,1.43-1.52,1.64-1.67,1.91-1.23,2.36-2.44,4.73-3.65,7.09-20.88,40.72-46.83,77.79-79.27,110.19-22.1,22.07-46.36,41.52-71.89,59.43-1.54,1.08-3.94,1.63-3.97,4.09-.08,7.24-.03,14.48-.03,21.95,4.45,0,8.09-.07,11.74.03,1.66.05,2.79-.65,3.92-1.75,30.08-29.49,61.69-57.42,90.02-88.68,21.02-23.2,37.74-48.98,46.88-79.23,3.35-11.1,6.12-22.32,7.92-35.03ZM60.02,731.11c20.19.09,36.61-16.2,36.66-36.38.05-20.32-16.32-36.8-36.76-37.01-20.04-.2-36.56,16.2-36.65,36.4-.09,20.28,16.43,36.9,36.75,36.99ZM406.83,83.26c1.08,21.11,14.83,36.81,36.36,37.28,20.07.44,36.65-16.24,36.79-36.29.14-20.39-16.27-37.17-36.43-37.25-20.27-.08-36.56,16.01-36.71,36.26ZM369.3,147.79c19.89-.09,36.6-16.99,36.44-36.85-.16-20.26-16.93-36.97-37.01-36.86-19.95.11-36.59,16.93-36.43,36.81.17,20.29,16.91,36.98,37,36.89ZM299.62,114.1c-20.49-.07-36.66,16.07-36.8,36.74-.13,19.9,16.53,36.9,36.26,36.98,20.34.09,36.79-16.31,36.89-36.77.1-19.91-16.6-36.88-36.35-36.95ZM98.78,317.03c-.16,19.87,16.08,36.71,35.65,36.96,20.79.27,37.36-15.9,37.51-36.6.14-19.87-16.36-36.71-36.3-37.05-20.25-.35-36.69,16.02-36.86,36.7ZM63.82,387.91c-.13,20.02,16.39,36.85,36.24,36.94,20.32.09,36.95-16.31,36.87-36.75-.09-22.29-17.24-35.8-36.38-36.76-20.4-1.02-36.61,15.91-36.74,36.57ZM763.9,1084.86c-20.07-.21-36.62,15.71-36.92,35.51-.32,20.65,15.86,37.22,36.62,37.52,20.11.29,37.64-16.47,36.92-36.63-.7-19.44-14.17-36.07-36.62-36.41ZM863.78,107.17c.13-20.09-16.27-36.38-36.98-36.76-19.78-.36-36.68,16.34-36.77,36.35-.1,20.27,16.15,36.64,36.85,36.75,21.85.11,35.48-17.23,36.9-36.34ZM674.91,28.93c-20.61.04-36.98,16.29-36.88,36.61.1,20.11,16.54,36.83,36.69,36.27,23.29-.65,36.05-15.83,36.85-37.66.7-19.11-16.83-35.26-36.65-35.22ZM752.85,44.78c-20.45-.15-36.83,15.77-36.93,35.9-.1,20.51,15.87,36.88,36.47,37.03,9.86.08,18.56-3.33,25.75-10.23,7.5-7.2,10.36-17.06,11.01-26.43,1.36-19.86-15.86-36.12-36.3-36.28ZM1023.87,306.54c.09,20.51,16.7,36.59,37.63,36.43,19.72-.15,35.83-16.66,35.79-36.68-.04-20.59-16.49-36.49-37.61-36.36-19.77.13-35.9,16.61-35.82,36.61ZM1145.73,712.19c20.21.16,36.66-15.84,36.7-35.68.04-20.77-16.29-37.34-36.93-37.37-19.08-.02-36.63,15.69-36.55,35.62.08,20.85,16.03,37.27,36.78,37.43ZM1178.33,522.62c-.03-19.39-16.47-36.5-35.09-36.53-21.26-.04-40.3,17.39-39.03,37.11,1.29,19.93,14.84,35.44,37.69,35.8,20.44.33,36.46-16.01,36.43-36.38ZM651.03,1138.98c-.07,18.65,13.07,33.51,32.3,36.52,16.85,2.64,34.59-8.81,39.78-25.65,1.5-4.87,2.09-9.67-.23-14.52-1.59-3.34-1.97-7.01-2.38-10.65-.24-2.16-.77-4.15-2.05-6.04-9.05-13.26-26.19-19.12-41.92-14.22-14.84,4.62-25.44,18.99-25.5,34.56ZM115.15,769.75c.2-2.61-.3-6.22-1.36-9.75-5.74-19.09-23.46-28.96-42.54-23.79-2.55.69-5.2,1.08-7.83,1.46-1.86.26-3.48.92-5.05,1.94-14.29,9.29-20.15,27.96-13.74,43.95,6.6,16.47,23.86,26.32,40.39,23.05,17.95-3.55,30.06-17.93,30.12-36.85ZM1020.26,913.53c-2.8.34-5.68.36-8.37,1.08-15,4.01-24.65,13.54-27.69,28.84-2.95,14.85,3.65,29.69,16.33,37.38,13.67,8.3,27.56,8.06,40.83-.8,10.01-6.68,15.41-16.44,15.67-28.57.26-11.79-2.99-22-14.35-27.96-1.16-.61-2.27-1.49-3.09-2.5-5.04-6.21-11.95-7.29-19.33-7.47ZM568.1,1139.3c.11-23.5-21.66-41.08-44.61-36.04-13.74,3.02-22.26,11.8-24.91,25.46-.6,3.08-1.55,6.11-2.56,9.09-.65,1.92-1.12,3.77-.85,5.83,2.54,19.36,19.75,33.56,39.18,32.27,19.06-1.26,33.67-17.11,33.76-36.62ZM249.28,982.77c-7.91.46-17.02,2.07-22.62,11.49-1.24,2.08-3.21,3.88-5.19,5.34-3.01,2.22-4.53,5.19-5.5,8.62-1.66,5.83-2.22,11.62-1.1,17.71,3.56,19.28,20.96,32.23,40.74,30.01,18.71-2.1,32.73-19.13,31.63-38.45-1.11-19.61-16.69-34.57-37.96-34.72ZM199.76,200.24c.57,7.87,1.78,17,11.08,22.53,1.67.99,3.22,2.52,4.26,4.16,4.14,6.5,10.78,8.16,17.59,8.87,20.62,2.15,38.74-13.39,40.18-34.14,1.41-20.4-14.73-38.34-35.39-39.33-20.29-.97-37.36,15.48-37.72,37.9ZM110.17,461.48c.11-16.26-7.83-27.34-23.12-32.32-1.89-.62-3.88-1.19-5.51-2.27-4.34-2.89-8.89-2.98-13.84-2.13-19.14,3.29-32.6,20.75-30.55,39.89,2.05,19.13,19.03,34.01,37.92,33.22,19.65-.82,34.96-16.7,35.09-36.39ZM905.59,1017.61c-2.16.15-4.32.24-6.46.46-.98.1-1.95.41-2.9.69-15.15,4.5-24.7,14.48-26.93,30.09-2.19,15.34,3.59,27.94,16.96,36.11,13.65,8.34,27.61,7.7,40.8-1.22,8.34-5.63,13.52-13.76,14.87-23.84,1.3-9.68.58-18.91-7.8-25.86-1.86-1.55-3.26-3.81-4.45-5.97-1.61-2.92-3.96-4.76-6.83-6.28-5.42-2.87-11.14-4.24-17.26-4.18ZM21.67,537.83c-.23,20.19,15.98,37.07,35.78,37.24,20.89.19,38.06-15.93,37.2-36.61-1.02-24.49-15.86-35.45-38.32-36.55-18.54-.91-34.44,16.24-34.67,35.92ZM518.25,28.69c-2.93-.07-6.86.46-10.69,1.72-18.27,6.02-27.69,23.55-22.57,41.93.53,1.91.94,3.89,1.1,5.86.27,3.27,1.45,6.07,3.37,8.7,10.31,14.12,28.58,19.12,44.44,12.11,15.93-7.05,24.55-24.15,20.9-41.52-3.49-16.61-18.29-28.63-36.55-28.79ZM896.79,180.01c1,0,2.01.11,2.99-.02,9.08-1.16,17.69-2.96,22.16-12.55,1.67-3.59,4.48-6.61,7.57-9.18,1.89-1.58,2.87-3.56,3.44-5.88,5.21-21.04-8.6-41.4-30.56-44.99-20.85-3.41-40.04,12.15-42.05,34.11-1.84,20.06,15.48,38.38,36.44,38.51ZM995.32,191.56c.09-19.29-13.18-34.67-31.39-37.38-17.85-2.66-35.21,8.17-40.51,25.29-5.39,17.4,2.9,36.09,19.51,43.94,14.2,6.71,27.87,4.16,38.26-7.09,1.24-1.34,2.45-2.86,3.98-3.77,8.5-5.02,9.74-13.29,10.14-20.98ZM182.69,292.32c18.15.03,33.46-12.73,36.21-30.17,2.95-18.68-7.64-35.96-25.52-41.67-16.74-5.34-35.22,2.63-43.34,18.7-7.91,15.64-3.75,32.7,10.44,42.91,1.35.97,2.86,1.86,3.88,3.12,4.78,5.9,11.31,7.1,18.33,7.11ZM963.51,1042.14c18.7.15,32.28-9.15,37.71-23.78,5.2-13.99,2.13-25.69-9.13-35.59-2.49-2.19-4.74-4.69-6.8-7.29-1.42-1.79-3.05-2.93-5.13-3.74-14.32-5.56-29.53-2.22-40.4,8.96-9.78,10.05-12.71,25.75-6.93,38.97,6.38,14.59,17.97,21.68,30.68,22.48ZM1132.25,375.43c.26-9.09-3.5-17.58-10.31-24.72-11.06-11.58-26.8-13.93-40.78-6.33-1.89,1.03-3.85,2.02-5.89,2.65-3.17.96-5.53,2.85-7.65,5.31-10.59,12.31-11.85,29.95-3.04,43.56,8.8,13.6,25.52,19.9,40.92,15.43,16.28-4.73,26.69-18.33,26.76-35.88ZM384.42,1134.86c.9-.13,3.21-.38,5.49-.79,14.52-2.56,26.41-14.32,29.04-28.68,2.85-15.53-3.77-30.84-16.73-38.69-13.34-8.07-29.71-7.22-41.61,2.14-2.8,2.21-4.9,4.71-5.8,8.39-1.06,4.36-3.1,8.46-5.85,12.03-1.85,2.41-2.46,5.05-2.55,7.89-.6,20.17,16.32,37.59,38,37.7ZM800.74,1088.06c-.14,19.42,10.44,33.66,26,38.3,15.79,4.71,33.16-1.18,41.47-14.95,6.75-11.19,9.7-22.93.59-34.73-1.69-2.19-2.78-4.92-3.73-7.56-.96-2.65-2.58-4.61-4.75-6.22-12.33-9.14-25.67-10.78-39.4-4.04-13.22,6.49-19.82,17.69-20.18,29.2ZM645.16,1149.33c.19-29.63-29.12-45.13-51.83-34.14-10.74,5.19-19.18,12.76-18.49,26.4.11,2.12-.21,4.4-.93,6.39-2.12,5.86-.43,11.1,2.01,16.34,7.15,15.35,24.56,23.77,41.16,19.87,16.71-3.92,28.52-18.59,28.08-34.86ZM1031.98,892.2c.56,11.74,7.08,22.95,20.36,29.47,13.61,6.68,27.05,5.32,39.02-3.91,11.85-9.14,16.42-21.74,13.3-36.37-2.1-9.86-6.37-18.61-17.75-21.19-3.75-.85-7.01-3.04-10.09-5.35-1.49-1.12-2.97-1.92-4.92-2.12-21.36-2.1-39.99,14.88-39.92,39.47ZM1050.18,245.75c-.16-2.16-.13-4.35-.5-6.47-3.44-19.56-22.11-33-41.8-30.15-19.92,2.88-33.26,20.76-30.93,41.44,2.08,18.49,20.09,32.83,39.44,31.25,3.77-.31,7.98-.4,10.77-3.29,4.45-4.63,9.42-8.41,15.07-11.37,1.55-.81,2.39-2.27,3.18-3.75,2.95-5.52,4.83-11.32,4.77-17.66ZM156.76,966.29c-.24,20.05,15.27,36.47,35.33,37.4,19.35.9,36.2-14.48,37.75-34.44,1.49-19.21-13.59-37.21-33.05-39.06-7.38-.7-14.63-.35-19.82,6.52-2.09,2.77-5.2,4.87-8.46,6.07-5.47,2.01-7.84,6.31-9.67,11.28-1.47,3.96-2.1,8.04-2.07,12.24ZM313.23,1101.14c15.36.12,28.92-8.96,34.31-22.97,5.69-14.79,1.8-30.75-10.08-41.43-10.97-9.86-27.67-11.78-41.05-4.82-3.2,1.66-5.69,3.73-7.16,7.21-1.83,4.32-4.67,8.07-8.14,11.27-1.8,1.66-2.72,3.6-3.25,5.99-5.08,22.83,12.06,44.58,35.37,44.77ZM492.29,1122.68c.29-14.8-8.23-28.34-21.55-34.24-13.89-6.15-29.81-3.36-40.64,7.17-1.89,1.84-3.87,3.67-4.04,6.63-.36,6.27-2.53,11.98-5.53,17.42-.99,1.79-1.51,3.6-1.29,5.7,2.02,19.15,19.05,34.27,37.74,33.45,19.84-.87,34.92-16.29,35.31-36.14ZM1087.18,446.63c.95,15.11,7.2,26.74,21.85,32.88,14.44,6.05,27.97,4.27,39.62-5.98,11.03-9.7,14.89-22.41,10.91-36.69-4.15-14.85-14.5-23.48-29.48-26.61-4-.84-7.71-.44-11.29,2.26-4.99,3.77-10.94,5.57-17.12,6.44-2.4.33-4.52,1.09-5.94,3.15-5.08,7.36-9.07,15.11-8.55,24.56ZM109.99,803.94c-2.3-.66-4.71.57-7.12,2.33-3.79,2.77-8.02,5.13-12.63,5.71-6.92.87-10.3,5.47-13.23,10.83-3.79,6.92-5.1,14.29-4.2,22.17,2.12,18.56,19.16,33.39,37.54,32.48,20.07-1,35.63-17.14,35.44-36.77-.19-19.54-15.96-36.05-35.8-36.75ZM63.02,651.19c2.52.41,6.07.21,9.48-1.63,13.95-7.54,21.14-19.34,20.23-35.04-.89-15.21-8.98-26.11-23.16-32.16-1.66-.71-3.39-1.57-5.29-1.14-4.32.97-8.61.46-12.9-.16-3.06-.44-5.93.14-8.77,1.27-21.73,8.65-30.08,35.81-16.35,54.94,7.05,9.81,16.05,17.03,29.6,13.98,1.9-.43,3.98-.06,7.16-.06ZM562.23,65.19c.1,2.95-.57,5.87.73,8.84,7.7,17.62,28.14,26.37,46.37,19.15,20.69-8.19,26.2-26.68,21.34-45.43-4.68-18.03-23.23-28.08-41.48-24.63-18.01,3.4-29.12,18.34-27.24,36.58.19,1.82.19,3.66.28,5.49ZM1129.14,786.13c15.47-.08,28.63-8.99,34.14-23.1,5.58-14.31,1.76-29.9-9.81-40.47-2.56-2.34-5.13-3.8-8.83-3.63-5.72.26-11.23-1.3-16.37-3.73-3.24-1.54-6.33-1.73-9.62-.57-14.16,4.96-23.76,13.68-25.96,29.43-3.12,22.31,13.88,42.19,36.46,42.08ZM184.26,905.05c-.05-20.94-16.85-37.49-37.56-37.08-2.44.05-4.44.5-6.2,2.45-5.25,5.82-11.76,9.71-19.32,11.8-2.17.6-3.79,1.64-5.01,3.67-7.75,12.95-6.44,30.19,3.33,42.09,9.82,11.97,26.09,16.55,40.57,11.44,14.72-5.2,24.23-18.71,24.19-34.38ZM1139.25,820.03c.16-9.33-3.33-17.21-9.16-24.23-1.57-1.89-3.37-2.9-5.9-3.17-7.22-.79-13.92-3.17-19.82-7.5-1.91-1.4-3.97-1.65-6.15-1.29-14.3,2.36-25.34,8.98-30.18,23.47-4.94,14.79-2.09,28,9,38.98,10.52,10.41,26.81,13.2,40.27,7.1,14.26-6.46,21.37-17.83,21.94-33.36ZM1182.18,602.81c.04-18.93-9.21-32.51-22.97-37.79-1.88-.72-3.74-1.38-5.81-.77-6.34,1.86-12.75,2.21-19.25.92-1.31-.26-2.59-.16-3.91.33-12.6,4.67-23.79,22.01-22.13,35.31,1.59,12.74,7.5,23.04,18.98,29.59,3.78,2.16,7.57,3.82,12.24,2.68,3.87-.94,8.02-1.13,11.89-.09,5.6,1.5,10.06-.65,14.42-3.54,10.97-7.27,16.32-17.59,16.53-26.64ZM199.81,713.97c1.87,4.2,3.61,8.46,5.63,12.59,21.4,43.53,49.57,82.34,82.45,117.82,9.29,10.02,18.96,19.69,30.41,27.32,3.26,2.17,6.56,4.47,11.45,4.52,0-8.25-.16-16.18.08-24.11.1-3.24-1.09-5.15-3.63-6.99-27.95-20.22-52.34-44.28-75.15-70.02-17.56-19.82-33.92-40.64-51.24-61.13ZM879.11,876.43c6.42-.72,10.94-4.19,15.36-7.57,15.84-12.12,29.25-26.72,42.01-41.92,27.62-32.88,52.09-67.85,69.94-107.12.67-1.48,1.93-2.9,1.32-4.93-.57.32-.94.41-1.12.65-5.19,6.51-10.36,13.04-15.54,19.55-32.55,40.9-66.91,80.01-109.56,110.92-1.19.87-2.43,1.66-2.42,3.5.06,8.8.03,17.6.03,26.93ZM316.07,907.96c.85-6.98,1.36-13.06,2.42-19.04.54-3.05-.19-4.84-2.57-6.75-16.13-12.96-30.84-27.41-44.6-42.85-22.2-24.9-41.23-52.22-60.42-79.41-1.01-1.44-1.63-3.31-4.58-4.37,23.97,60.17,59.09,111.18,109.75,152.42ZM892.73,908c50.86-41.47,86.05-92.69,110.07-153.3-1.37.76-1.74.85-1.92,1.08-1.01,1.33-1.99,2.67-2.94,4.04-31.19,44.75-62.98,88.98-106.24,123.33-1.32,1.05-1.83,2.22-1.61,3.87.86,6.57,1.66,13.14,2.64,20.99ZM246.11,851.84c2.5,4.8,4.62,9.04,6.89,13.2,13.33,24.51,27.99,48.09,48.14,67.74,8.53,8.32,17.86,15.49,29.26,19.54,10.09,3.58,19.85,3.17,29.44-1.87,3.86-2.03,3.45-4.33.57-6.31-2.97-2.06-6.39-3.53-9.73-5-41.43-18.29-75-46.01-100.47-83.49-.89-1.31-1.36-3.08-4.11-3.81ZM800.99,833.23c-.01-8.86-4.9-12.84-12.69-10.94-3.76.92-7,2.67-9.73,5.68-9.39,10.38-18.94,20.61-28.52,30.8-4.54,4.83-6.69,10.69-7.62,17.02-.84,5.72,2.32,8.92,8.18,8.36,6.34-.61,11.8-3.39,16.27-7.91,9.25-9.36,18.25-18.99,27.72-28.12,4.62-4.46,5.9-9.79,6.39-14.91ZM407.9,833.3c.4,3.98.68,8.86,4.31,12.6,10.1,10.38,20.17,20.8,30.44,31.01,4.48,4.45,10.09,7.05,16.5,7.29,4.81.18,7.04-2.1,7.11-6.94.08-5.87-1.67-11.54-5.36-15.77-10.62-12.16-21.59-24.03-32.89-35.55-3.8-3.88-9.38-5.27-14.86-3.32-4.42,1.58-5.26,5.61-5.25,10.68ZM791.57,916.41c14.6-6.79,27.47-15.03,34.49-29.93,3.86-8.2,3.41-16.08-1.18-20.03-6.22-5.35-12.93-3.21-19.15-.14-13.78,6.8-23.4,18.21-32.73,30.11q12.17,5.59,18.58,19.98ZM435.74,896.86c-3.25-5.16-6.91-9.24-10.67-13.19-7.59-7.99-15.58-15.49-26.34-19.1-5.08-1.7-10.27-2.24-14.57,1.7-4.39,4.02-4.9,9.31-3.26,14.73,5.57,18.37,19.77,27.91,36.26,35.02.16.07.51-.3,1.09-.67,1.13-10.09,7.38-16,17.49-18.48ZM699.06,847.75c5.88-5.02,10.67-9.81,15.07-14.98,6.83-8.02,13.22-16.35,15.96-26.78,2.67-10.13-2.32-15.13-12.29-11.83-14.71,4.87-25.84,15.12-38.03,26.28,15.99,2.66,17.04,15.04,19.29,27.31ZM528.98,820.38c-11.32-10.43-21.85-19.71-35.06-25.22-4.39-1.83-9.43-4-13.59,0-4.3,4.13-2.36,9.32-.65,14.01,3.96,10.83,11.07,19.6,18.87,27.83,3.36,3.55,6.6,7.32,11.32,10.31,2.11-12.04,3.35-24.22,19.11-26.94ZM509.52,870.72c-4.48-10.51-9.12-19.26-15.36-27.12-2.81-3.54-5.92-6.77-9.8-9.15-8.08-4.94-14.79-1.84-16.41,7.45-.99,5.7-.3,11.27,1.03,16.79,2.45,10.12,6.66,19.46,12.54,28.81,6.03-11.41,12.45-20.98,27.99-16.78ZM699.21,870.62c15.66-4.08,22.17,5.66,28.18,17.04,7.74-13.82,14.4-27.1,13.73-42.77-.21-5-1.27-9.81-6.36-12.11-4.77-2.15-8.84.33-12.38,3.16-11,8.81-16.91,21.04-23.16,34.68ZM478.04,822.67c-9.69-8.24-18.58-15.17-28.45-20.77-4.06-2.31-8.23-4.37-12.85-5.33-6.5-1.35-9.66,1.85-8.13,8.26.31,1.29.69,2.58,1.23,3.79,6.55,14.84,17.79,25.83,30.4,37.45.49-12.26,6.18-19.75,17.8-23.4ZM748.46,846.03c12.67-11.32,23.48-22.28,30.15-36.59,1.71-3.67,3.92-8.07.33-11.64-3.36-3.34-7.59-1.34-11.26.09-11.79,4.58-21.61,12.31-31.34,20.12-1.6,1.29-3.78,2.14-4.51,5.03,10.68,3.27,16.23,10.84,16.62,22.99ZM629.92,502.82h33.78v-32.64h-33.78v32.64ZM710.96,470.19h-33.88v32.62h33.88v-32.62ZM663.79,869.17c.17,3.32.3,6.64.51,9.95.11,1.74.59,3.27,2.61,3.75,6.14,1.45,12.29,2.82,18.66,2.7,2.47-.05,4.03-.8,4.2-3.63.39-6.63,1.55-13.23.94-19.88-.62-6.79-1.27-13.62-5.22-19.51-3.99-5.95-9.82-6.24-14.46-.79-1.84,2.17-3.13,4.67-4.12,7.35-2.39,6.49-3.2,13.2-3.14,20.07ZM519.6,885.01c7.87,1.54,15.24-.59,22.64-2.25,1.89-.42,1.94-2.04,2.13-3.52,1.29-10.35,1-20.59-2.63-30.48-2.63-7.17-7.09-11.35-11.58-10.75-6.63.89-8.5,6.42-10.03,11.67-3.36,11.59-2.3,23.31-.54,35.32ZM778.31,182.95v32.85h31.41v-32.85h-31.41ZM578.95,194.88h32.8v-30.88h-32.8v30.88ZM731.03,183.27v32.42h31.1v-32.42h-31.1ZM762.9,457.97v-28.41h-33.63v28.41h33.63ZM652.47,430.32v27.39h34.03v-27.39h-34.03ZM418.97,811.88c-10.12-8.56-19.65-15.44-31.11-19.14-3.48-1.12-7.04-2.11-10.77-1.22-4.78,1.14-6.7,4.15-5.34,8.86.59,2.05,1.45,4.12,2.63,5.88,6.45,9.63,15.74,15.93,25.9,22.24,3-9.09,8.83-14.55,18.69-16.63ZM808.4,828.19c12.13-6.33,23.79-16.76,27.46-24.41,1.47-3.06,2.65-6.38.48-9.47-2.28-3.24-5.95-3.54-9.49-2.93-14.33,2.47-25.35,10.91-37.06,20.42,9.8,2.2,15.72,7.57,18.61,16.4ZM778.08,780.72c7.81,4.6,12.45,11.08,15.01,19.3,10.78-6.11,19.45-13.63,24.42-24.67,1.97-4.37,4.16-9.48.16-13.54-4.04-4.1-9.08-1.78-13.48.17-9.69,4.29-17.62,11.11-26.11,18.74ZM430.75,780.77c-9.27-8.22-17.85-15.82-28.86-19.84-3.63-1.32-7.63-2.38-10.78.77-3.13,3.12-2.3,7.16-.96,10.8,4.65,12.6,13.85,20.97,25.77,27.54,2.27-8.52,7.03-14.71,14.83-19.28ZM398.17,845.33c-7.96-10.4-15.47-19.63-26.58-25.01-4.13-2-8.66-3.16-12.71.18-4.07,3.35-3.75,8.13-2.56,12.48,2.6,9.52,9.25,15.93,17.46,20.9.82.5,1.71,1.04,2.74.28,6.18-4.6,13.04-7.73,21.65-8.83ZM810.75,845.38c8.41,1.01,15.13,4.04,21.17,8.59,1.1.83,2.14.54,3.19-.12,8.25-5.19,15.03-11.66,17.5-21.46,1.08-4.29,1.12-8.8-2.77-11.95-3.68-2.98-7.9-2.21-11.81-.46-11.62,5.22-19.32,14.67-27.29,25.39ZM869.61,851c-9.17,3-17.29,6.28-24.27,11.86-2.48,1.98-5.22,4.14-5.35,7.52-.28,7.44-.09,14.9-.09,22.54,3.43.64,6.23-.11,8.92-1.51,7.65-4.01,13.45-10.29,19.68-16.04.94-.87,1.1-2.01,1.1-3.2,0-6.82,0-13.63,0-21.16ZM339.2,851.01c0,7.46.01,14.4,0,21.34,0,1.21.21,2.29,1.16,3.14,6.04,5.44,11.59,11.48,18.8,15.47,2.91,1.61,5.98,2.82,9.91,1.78,0-6.08-.23-12.21.08-18.3.23-4.6-1.43-8.02-4.83-10.86-7.25-6.07-15.77-9.51-25.11-12.57ZM721.41,915.73c0-8.82.12-17.1-3.49-24.85-2.59-5.57-7.02-7.6-12.19-5.12-11.22,5.36-16.8,15.25-21.12,26.8,12.54,1.08,24.25,2.09,36.8,3.17ZM524.19,912.59c-3.98-10.96-9.41-19.94-18.89-25.78-6.38-3.93-11.68-2.22-14.63,4.57-3.31,7.62-3.54,15.72-3.33,24.32,12.35-1.05,24.22-2.05,36.86-3.12ZM608.94,1006.48c0,5.32,0,10.63,0,15.95,0,10.28-.93,9.32,9.82,9.59,4.69.12,6.08-1.7,6-6.14-.2-11.29-.07-22.59-.07-33.88,0-11.21-.19-11.31-11.45-10.56-3.14.21-4.41,1.45-4.34,4.62.14,6.81.04,13.62.04,20.43ZM599.93,1006.49c0-4.98,0-9.97,0-14.95,0-10.42,0-10.29-10.35-10.15-4.04.06-5.58,1.47-5.51,5.6.2,11.46.07,22.92.07,34.38s0,10.8,10.89,10.6c3.68-.07,5.03-1.46,4.94-5.07-.16-6.81-.05-13.62-.04-20.43ZM740.79,803.4c15.36-6.1,27.32-14.51,34.65-28.33,3.31-6.26.37-10.39-6.48-9.56-11.06,1.34-20.76,6.35-30.94,11.77,8.15,7.66,6.21,16.2,2.77,26.12ZM471,777.25c-10.4-5.23-19.78-10.2-30.5-11.67-7.27-1-10.57,2.99-7.23,9.36,7.21,13.72,19.06,22.12,34.5,28.46-2.96-9.77-5.28-18.49,3.23-26.15ZM473.08,926.1c-9.19-8.16-18.44-14.33-30.05-15.97-3.84-.54-7.92-.38-10.23,3.48-2.16,3.61-.54,7.16,1.37,10.33,4.99,8.28,12.32,14.23,20.22,20.19,4.57-7.7,10.46-13.64,18.69-18.03ZM754.39,944.17c8.64-6.74,16.96-12.96,21.42-22.7,3.02-6.6-.06-11.53-7.3-11.38-13.04.28-22.81,7.47-32.88,15.92,8.31,4.55,14.19,10.32,18.76,18.15ZM575.41,412.26h-48.24v10.36h48.24v-10.36ZM353.85,922.93c0-6.95,0-12.39,0-17.84,0-1.37-.1-2.54-1.6-3.3-8.23-4.14-16.42-8.37-24.97-12.74-.29,5.04-.48,9.34-.8,13.63-.11,1.51.42,2.5,1.66,3.31,8.16,5.35,16.29,10.73,25.69,16.93ZM824.7,931.12c4.42-3.48,8.19-7.19,11.6-11.26,2.79-3.32,5.39-6.81,6.55-11.04,1.35-4.92-1.24-7.86-6-6.44-11.45,3.42-19.69,11.42-28.18,19.95q10.65,2,16.02,8.79ZM855.02,922.86c9.25-6.1,17.25-11.4,25.28-16.66,1.2-.78,1.91-1.68,1.88-3.22-.07-4.41-.02-8.82-.02-14.28-9.37,4.8-17.57,9.03-25.8,13.19-1.32.67-1.34,1.73-1.34,2.91,0,5.59,0,11.17,0,18.05ZM400.64,922.65c-8.63-8.31-16.31-15.63-26.45-19.62-2.48-.98-5.31-1.97-7.49.32-2.34,2.46-1.06,5.37.14,7.9,3.88,8.13,10.35,14.03,17.6,20.3,2.85-7.07,8.7-8.46,16.19-8.89ZM206.79,754.45c-.09-.11-.17-.21-.26-.32-.1.1-.19.19-.29.29.13.11.26.22.39.33.05-.1.1-.2.15-.3ZM1008.47,713.9c.1-.09.27-.18.28-.29.01-.1-.14-.23-.22-.34-.1.09-.27.18-.28.29-.01.1.14.23.22.34ZM962.57,850.82c.1-.1.28-.19.28-.29,0-.1-.16-.21-.25-.32-.1.15-.2.3-.3.46.09.06.18.11.27.16Z" style="fill: #0daedc;"/>
  <path d="M418.04,603.55v-212.93h33.15v112.06h41.69v-70.42h118.7v27.7h-87.49v110.65h55.09v-54.59h33.87v54.52c5.59.77,10.65.45,16.28.24v-54.75h34.15v54.54h14.1v-54.5h34.03v54.53h16.74v-99.3h34.32v132.26h-344.64ZM492.62,570.71v-33.67h-40.94v33.67h40.94Z" style="fill: #fefefe;"/>
  <path d="M682.47,165.12h26.12c-3.01,26.21-11.47,49.9-28.8,69.93-17.52,20.25-40,31.57-66.38,35.92v39.52h48.25v-45.8h73.22v45.12h25.66v-66.98h30.01c.69,4.06.69,90.69-.07,95.86h-56.12v46.25h-72.14v-45.49h-48.99v48.3h-34.06v-48.24h-55.8v67.78h-57.61v-16h23.18v-80.07h89.7v-40.47c-31.66-5.64-57.56-20.8-75.6-48.02-11.46-17.29-17.16-36.53-18.3-57.55h29.46c.46,21.7,7.16,40.68,23.01,55.82,11.63,11.1,25.48,17.83,41.74,21.27v-34.89h34.18v34.49c31.14.88,62.36-33.73,69.34-76.76ZM688.42,285.87v24.45h23.33v-24.45h-23.33ZM688.34,339.21v22.45h24.07v-22.45h-24.07Z" style="fill: #fefefe;"/>
  <path d="M650.97,1034.98c-5.59-1.15-10.77-2.27-15.97-3.25-2.66-.5-2.75-2.31-2.81-4.45-.33-12.66-.77-25.32-1.12-37.97-.34-12.46-6.21-18.76-18.67-19.34-6.96-.33-14.01-.96-20.9.72-9.1,2.21-13.24,7.27-13.62,16.6-.53,13.15-1,26.31-1.3,39.47-.08,3.5-1.37,4.94-4.85,5.39-4.43.58-8.77,1.79-13.38,2.78-.9-2.92-.35-5.73-.29-8.47.34-15.9-.46-31.68-6.06-46.77-5.36-14.43-13.9-25.92-30.05-29.17-9.58-1.93-18.56.09-26.5,5.95-3.44,2.53-5.99,5.76-6.85,10.1-1.56,7.87,3.52,13.95,11.48,13.76,3.04-.07,5.95-.74,8.76-1.81,2.76-1.04,5.47-2.21,8.5-3.44,1.93,8.22,2.52,16.05.07,23.89-4.12,13.15-17.24,20.74-33.41,19.78-13.21-.79-23.9-6.02-32.46-16.23-7.61-9.08-14.52-18.67-21.81-27.98-5.04-6.43-10.04-12.93-16.68-17.84-5.01-3.7-10.43-6.3-16.67-3.1-6.31,3.24-9.6,8.35-9.48,15.7.09,5.08.43,10.26-1.13,15.3-15.93-8.65-21.55-27.24-12.13-40.13,6.15-8.41,14.97-11.99,25.06-12.45,17.71-.8,32.16,7.11,45.46,17.72,3.25,2.59,6.28,5.47,9.3,8.34,2.02,1.93,4.3,3.06,7.05,3.39,3.68.44,6.49-.14,7.05-4.66.28-2.27,1.21-4.49,2-6.67,6.26-17.27,19.19-25.02,37.42-22.75,13.48,1.67,26.23,6.02,39.06,10.13,13.3,4.26,26.44,9.49,40.49,10.47,23.87,1.66,47.38.31,70.2-8.33,13.96-5.28,28.23-9.99,43.2-11.94,21.53-2.8,34.69,5.82,40.85,26.78.71,2.42-.33,6,3.65,6.78,4.05.8,7.65-.05,10.6-2.95,6.31-6.22,13.04-11.91,20.66-16.47,10.31-6.17,21.23-10.24,33.51-9.91,14.37.4,26.6,8.63,29.71,20.21,3.16,11.74-2.97,24.55-15.74,32.47-1.93-4.64-.93-9.46-1.25-14.12-.26-3.81-.19-7.67-2.62-10.98-5.78-7.89-13.58-9.43-21.78-4.13-6.83,4.42-11.81,10.72-16.8,16.98-8,10.02-15.31,20.58-23.7,30.31-7.99,9.28-17.72,14.53-30.05,15.86-24.77,2.67-40.67-13.61-36.69-38.19.27-1.64.67-3.25,1.08-5.18,3.96,1.46,7.73,3.09,11.65,4.24,7.75,2.27,13.37.61,15.86-4.37,3.03-6.06,1.27-12.91-4.6-17.86-13.63-11.5-35.4-9.23-47.59,5.02-9.24,10.8-12.76,23.88-14.75,37.56-1.68,11.58-1.12,23.23-.99,35.19Z" style="fill: #fefefe;"/>
  <path d="M554.96,928.4c-6.63-4-13.01-7.85-19.21-11.6-.16-1.66.8-2.44,1.51-3.32,21.36-26.58,23.83-55.66,7.02-85.49-13.87-24.61-34.32-42.68-58.1-57.22-18.03-11.03-37.2-19.3-58.35-22.23-8.47-1.17-16.94-1.31-25.27,1.03-2.03.57-3.78.57-5.75-.37-44.13-21.2-86.37-45.4-123.47-77.72-24.33-21.19-45.52-44.98-58.81-74.84-9.71-21.82-14.08-44.39-7.43-68.04,2.75-9.78,7.47-18.51,15.16-25.39,13.74-12.28,29.4-8.96,36.79,7.84,1.2,2.73,2.17,5.6,2.85,8.5.9,3.87,1.41,7.82,2.21,12.47-3.68-2.36-6.64-4.46-9.78-6.24-16.92-9.57-30.14-2.88-32.32,16.42-2.95,26.24,5.24,49.45,20.73,70.05,18.77,24.97,44.11,36.09,75.43,32.97,1.78-.18,3.57-.19,5.77-.3-1.33,11.63,5.68,18.18,13.95,23.69,15.93,10.62,33.95,16.79,51.72,23.38,34.15,12.66,68.66,24.39,101.21,41,26.9,13.73,51.05,30.78,68.56,55.96,16.25,23.36,25.62,48.88,23.57,77.74-1.69,23.84-11.68,44.03-27.99,61.7Z" style="fill: #fefefe;"/>
  <path d="M884.8,644.64c10.54,1.47,20.31,1.71,30.05-.06,20.77-3.79,37.5-14.33,50.22-30.98,15.57-20.38,23.93-43.22,21.97-69.25-.07-1-.11-2-.28-2.98-3.33-19.26-16.13-25.16-33.03-15.2-2.83,1.67-5.5,3.62-8.79,5.8.92-9.44,2.45-18.03,7.29-25.65,6.95-10.96,18.3-13.57,29.38-6.73,9.2,5.68,14.8,14.26,18.43,24.17,8.19,22.31,5.31,44.25-2.9,65.82-11.22,29.49-30.73,53.14-53.43,74.4-32.99,30.88-71.07,54.3-111,74.93-6.65,3.43-13.41,6.64-20.12,9.97-1.65.82-3.24,1.58-5.22,1.03-15.2-4.24-30.14-1.99-44.7,2.72-38.52,12.48-70.44,34.37-93.63,67.95-10.34,14.98-16.27,31.57-15.34,50.17.77,15.4,6.81,28.63,16.08,40.64,1.2,1.55,2.85,2.81,3.49,5.25-6.3,3.82-12.66,7.67-19.33,11.71-10.33-10.69-18.1-22.76-22.82-36.61-11-32.28-5.3-62.71,11.18-91.65,17.55-30.82,44.43-51.23,75.45-67,31.82-16.18,65.44-27.88,98.86-40.12,15.3-5.6,30.63-11.18,45.09-18.81,4.57-2.41,9.01-5.03,13.02-8.33,6.41-5.28,11.36-11.32,10.08-21.19Z" style="fill: #fefefe;"/>
  <path d="M401.11,502.41v105.25h-108.22v-105.25h108.22ZM366.65,574.49v-37.73h-36.42v37.73h36.42Z" style="fill: #fefefe;"/>
  <path d="M904.04,469.53v134.38c-7.2,0-14.15.02-21.09,0-19.99-.06-39.97-.23-59.96-.12-3.77.02-4.86-1.1-4.76-4.82.25-9.28.08-18.58.08-28.44h52.07v-70.7h-33.13v-30.31h66.78Z" style="fill: #fefefe;"/>
  <path d="M778.62,391.43h32.82v163.41h-32.82v-163.41Z" style="fill: #fefefe;"/>
  <path d="M204.16,509.17c-1.76,6.46-3.76,12.59-5.07,18.86-6.63,31.84,0,61.44,15.62,89.41,15.92,28.5,38.13,51.58,62.94,72.33,29.88,25,62.75,45.5,97.05,63.79,5.17,2.76,8.97,14.23,6.49,19.49-.76,1.61-1.95,2.79-3.62,3.22-5.99,1.54-11.9,2.73-17.85-.62-29.44-16.53-55-38.06-78.9-61.63-29.66-29.25-56.06-61.09-75.4-98.28-9.27-17.84-16.33-36.44-17.9-56.71-1.29-16.63,2.06-32.12,12.02-45.82,1.1-1.51,1.83-3.6,4.61-4.04Z" style="fill: #fefefe;"/>
  <path d="M1004.61,507.61c8.04,8.59,13.09,18.51,15.32,29.81,3.98,20.17-.16,39.41-7.47,58.11-11.95,30.6-30.29,57.31-51.22,82.32-28.69,34.29-60.88,64.8-98.34,89.47-3.75,2.47-7.85,4.42-11.49,7.04-5.69,4.1-11.83,3.77-18.15,2.59-4.48-.83-6.76-3.55-6.2-8.11.46-3.79,1.32-7.53,2.05-11.28.46-2.38,2.72-2.75,4.41-3.66,32.37-17.3,63.53-36.48,92.1-59.62,26.7-21.63,50.81-45.65,67.91-75.88,19.42-34.35,24.92-70.19,11.1-107.99-.28-.78-.71-1.52,0-2.81Z" style="fill: #fefefe;"/>
  <path d="M183.02,587.33c1.91,1.41,2.31,3.27,3.06,4.88,24.52,52.83,57.25,99.76,100.09,139.46,22.63,20.97,46.74,40.11,71.66,58.26,3.93,2.86,5.59,11.91,2.97,16.03-.66,1.03-1.59,1.77-2.79,1.93-6.19.84-11.66,1.66-17.51-3.37-29.8-25.65-59.69-51.17-86.38-80.14-24.53-26.62-45.53-55.61-58.75-89.67-5.9-15.2-10.07-30.86-12.35-47.39Z" style="fill: #fefefe;"/>
  <path d="M1025.19,587.07c-5.1,41.14-22.38,77.01-47.21,109.58-22.95,30.1-50.26,55.97-78.54,80.87-10.87,9.58-21.98,18.88-33,28.29-3.64,3.11-12.8,4.02-16.8,1.63-.79-.47-1.49-1.34-1.9-2.19-2.49-5.16-.49-12.66,4.23-16.09,28.59-20.79,56.05-42.92,81.27-67.77,37.57-37.02,66.39-80.08,88.74-127.66,1.05-2.24,2.15-4.45,3.22-6.67Z" style="fill: #fefefe;"/>
  <path d="M185.95,637.06c3.34,3.76,4.93,8.52,7.18,12.88,34.83,67.33,84.92,120.93,147.14,163.58,4.29,2.94,6.48,5.88,5.91,11.26-.55,5.09-.12,10.29-.12,15.7-7.72.9-14.15,1-20.45-5.39-24.33-24.67-50.32-47.65-74.33-72.66-19.81-20.63-37.73-42.63-49.55-69.03-7.46-16.66-12.26-34.08-15.57-51.95-.27-1.44-.09-2.97-.12-4.45l-.08.07Z" style="fill: #fefefe;"/>
  <path d="M1023.33,636.26c-1.8,12.7-4.57,23.93-7.92,35.03-9.14,30.25-25.86,56.03-46.88,79.23-28.33,31.26-59.94,59.19-90.02,88.68-1.12,1.1-2.26,1.8-3.92,1.75-3.65-.1-7.29-.03-11.74-.03,0-7.47-.05-14.71.03-21.95.03-2.46,2.42-3.01,3.97-4.09,25.54-17.91,49.8-37.36,71.89-59.43,32.44-32.4,58.39-69.47,79.27-110.19,1.21-2.37,2.42-4.74,3.65-7.09.14-.27.41-.48,1.67-1.91Z" style="fill: #fefefe;"/>
  <path d="M60.02,731.11c-20.32-.09-36.84-16.72-36.75-36.99.09-20.2,16.61-36.6,36.65-36.4,20.44.21,36.81,16.69,36.76,37.01-.05,20.18-16.47,36.47-36.66,36.38ZM30.83,687.53c.51,7.9,2.13,15.14,6.13,21.67,5.27,8.61,13.61,12.5,23.4,10.51,9.27-1.88,17.2-6.61,24.57-12.54-1.37-2.12-2.37-4.01-4.42-5.16-5.2,3.64-10.31,7.35-16.36,9.49-11.72,4.14-19.17.72-23.74-10.89-1.71-4.34-2.01-9-3.05-13.44-2.21-.5-4.13-.37-6.52.38Z" style="fill: #fefefe;"/>
  <path d="M406.83,83.26c.15-20.24,16.45-36.34,36.71-36.26,20.16.08,36.57,16.86,36.43,37.25-.14,20.05-16.72,36.73-36.79,36.29-21.53-.47-35.28-16.17-36.36-37.28ZM462.16,95.7c-6.54,2.44-12.51,4.87-19.03,5.62-11.98,1.38-19.34-4.34-20.17-16.38-.31-4.58-.05-9.19-.05-13.73-2.32-.53-4.17-1.51-6.62-.61-.61,6.83-1.04,13.75.77,20.64,2.81,10.73,10.55,17.06,21.67,17.22,9.14.13,17.67-2.51,26.07-6.7-.85-1.96-1.62-3.73-2.63-6.06Z" style="fill: #fefefe;"/>
  <path d="M369.3,147.79c-20.09.09-36.82-16.6-37-36.89-.17-19.88,16.48-36.7,36.43-36.81,20.08-.11,36.85,16.59,37.01,36.86.16,19.86-16.55,36.76-36.44,36.85ZM342.54,97.1c-3.29,15.42.55,29.27,9.42,34.89,9.07,5.75,28.16,3.99,38.18-3.55-.53-1.9-1.2-3.73-2.71-5.45-6.13,2.41-12.3,4.7-18.93,5.59-10.57,1.42-17.77-3.8-19.63-14.29-.94-5.28-.59-10.52,0-16.01-2.21-.41-4.12-.77-6.33-1.19Z" style="fill: #fefefe;"/>
  <path d="M299.62,114.1c19.75.07,36.45,17.04,36.35,36.95-.1,20.46-16.56,36.86-36.89,36.77-19.72-.08-36.39-17.08-36.26-36.98.14-20.67,16.31-36.82,36.8-36.74ZM318.78,161.55c-6.11,3.08-11.85,5.61-18.11,6.86-12.23,2.44-20.17-3.09-21.74-15.54-.55-4.39-.74-8.82-1.1-13.21-2.19-.56-4.09-1.01-6.26-.04-.92,8.06-.09,15.95,3.2,23.38,3.72,8.4,10.49,12.72,19.69,12.89,9.97.18,18.76-3.63,27.59-8.34-1.08-1.98-2.01-3.7-3.26-6.01Z" style="fill: #fefefe;"/>
  <path d="M98.78,317.03c.17-20.68,16.61-37.05,36.86-36.7,19.94.34,36.44,17.19,36.3,37.05-.15,20.7-16.71,36.87-37.51,36.6-19.57-.25-35.81-17.09-35.65-36.96ZM107.63,305.55c-.96,6.51-.21,12.56,1.3,18.57,3,11.91,10.91,18.1,23.03,17.94,9.43-.12,17.7-3.86,26.09-8.26-1.36-2.1-1.82-4.27-3.68-5.79-5.67,2.83-11.41,5.45-17.66,6.7-12.1,2.41-19.87-3.03-21.82-15.07-.72-4.45-.63-8.92-.84-13.33-2.03-1.01-3.95-1.22-6.42-.76Z" style="fill: #fefefe;"/>
  <path d="M63.82,387.91c.13-20.66,16.34-37.59,36.74-36.57,19.14.96,36.29,14.47,36.38,36.76.08,20.44-16.55,36.84-36.87,36.75-19.85-.09-36.37-16.92-36.24-36.94ZM78.86,376.75c-2.16-.64-4.05-1.01-6.32-.15-.87,8.21-.08,16.26,3.42,23.81,3.86,8.35,10.72,12.48,19.93,12.5,9.79.03,18.43-3.69,27.18-8.36-1.15-2.05-2.18-3.86-3.3-5.85-6.21,2.89-12.06,5.59-18.48,6.84-11.63,2.27-19.65-3.24-21.29-15.06-.61-4.43-.75-8.92-1.14-13.74Z" style="fill: #fefefe;"/>
  <path d="M763.9,1084.86c22.45.34,35.92,16.97,36.62,36.41.73,20.16-16.81,36.91-36.92,36.63-20.76-.3-36.93-16.87-36.62-37.52.3-19.8,16.85-35.72,36.92-35.51ZM781.57,1135.75c-3.53,1.41-6.69,2.92-10.01,3.95-15.07,4.63-23.82-1.25-25.76-16.87-.63-5.1-.45-10.2-.4-15.68-2.37.13-4.41-.89-6.65.41-1.16,8.17-.39,16.22,2.01,24.09,2.63,8.62,8.09,14.69,17.2,16.13,9.72,1.54,18.55-1.63,26.97-6.42-.95-2.18-1.56-4.07-3.36-5.6Z" style="fill: #fefefe;"/>
  <path d="M863.78,107.17c-1.42,19.11-15.05,36.45-36.9,36.34-20.7-.11-36.95-16.48-36.85-36.75.1-20.01,16.99-36.71,36.77-36.35,20.71.38,37.11,16.67,36.98,36.76ZM805.65,89.09c-2.54,8.28-3.88,16.7-2.63,25.4,1.43,10.03,7.46,17.1,17.12,19.02,8.05,1.6,16.11.87,23.89-2.11.08-2.48-.73-4.38-1.82-6.35-5.82,1.44-11.48,2.71-17.37,2.16-9.35-.87-14.33-5.92-15.16-15.32-.63-7.21.76-14.19,2.55-21.49-2.22-.63-4.01-1.87-6.59-1.32Z" style="fill: #fefefe;"/>
  <path d="M674.91,28.93c19.82-.04,37.34,16.11,36.65,35.22-.79,21.83-13.56,37.01-36.85,37.66-20.15.56-36.59-16.16-36.69-36.27-.1-20.32,16.27-36.57,36.88-36.61ZM692.55,81.06c-4.6,1.87-8.93,3.51-13.58,4.28-12.12,2-19.44-3.55-21.15-15.83-.86-6.15-.26-12.24.22-18.27-2.44-.81-4.44-1.62-6.67-.74-1.61,8.55-1.55,16.97.77,25.27,2.15,7.68,6.68,13.54,14.55,15.8,10.17,2.92,19.55-.03,28.65-4.41-.47-2.5-1.3-4.25-2.8-6.1Z" style="fill: #fefefe;"/>
  <path d="M752.85,44.78c20.44.15,37.66,16.42,36.3,36.28-.64,9.37-3.51,19.23-11.01,26.43-7.19,6.9-15.9,10.3-25.75,10.23-20.6-.16-36.57-16.53-36.47-37.03.1-20.13,16.48-36.05,36.93-35.9ZM737.16,65.27c-2.36-.96-4.18-1.81-6.6-.97-1.32,6.21-2.67,12.56-2.23,19.08.65,9.54,3.16,18.32,12.83,22.6,10.08,4.46,20.03,2.42,29.99-1.16-.69-2.37-.9-4.37-2.43-5.87-4.44.84-8.8,1.88-13.21,2.46-11.27,1.49-18.18-3.97-19.92-15.15-1.1-7.06.79-13.85,1.58-21Z" style="fill: #fefefe;"/>
  <path d="M1023.87,306.54c-.09-19.99,16.05-36.48,35.82-36.61,21.12-.14,37.57,15.77,37.61,36.36.03,20.02-16.07,36.52-35.79,36.68-20.94.16-37.55-15.91-37.63-36.43ZM1075.18,325.36c-3.59.57-6.51,1.16-9.46,1.47-16.56,1.75-25.02-7.19-22.2-23.55.83-4.84,2.13-9.59,3.23-14.43-1.99-.87-3.71-1.87-6.19-1.77-2.92,8.08-5.16,16.36-4.32,25.09.84,8.83,4.71,15.9,13.42,19.38,8.89,3.54,17.82,2.63,27.03.23-.52-2.23-.96-4.12-1.49-6.43Z" style="fill: #fefefe;"/>
  <path d="M1145.73,712.19c-20.75-.16-36.7-16.58-36.78-37.43-.08-19.92,17.47-35.64,36.55-35.62,20.63.02,36.97,16.59,36.93,37.37-.04,19.84-16.49,35.84-36.7,35.68ZM1134.36,650.09c-5.04,5.59-9.03,11.28-11.75,17.78-3.53,8.4-4.67,16.85,1.38,24.58,6.94,8.88,16.92,11.36,27.5,12.83.56-2.68,1.08-4.58.25-6.92-4.47-.65-9-1.65-13.27-3.48-11.03-4.7-14.19-12.72-9.63-23.85,2.49-6.07,6.55-11.13,10.52-16.56-1.64-1.44-3.12-2.74-5-4.39Z" style="fill: #fefefe;"/>
  <path d="M1178.33,522.62c.03,20.37-15.98,36.71-36.43,36.38-22.85-.37-36.4-15.88-37.69-35.8-1.27-19.72,17.76-37.15,39.03-37.11,18.63.04,35.07,17.15,35.09,36.53ZM1130.35,503.57c-2.26-1.08-4.01-1.92-6.14-2.94-4.2,8.35-7.29,16.67-7.34,25.84-.07,10.75,4.97,18,15.03,21.7,7.35,2.71,14.91,2.61,22.95,1.53-.4-2.35-.75-4.38-1.13-6.6-4.42,0-8.59.3-12.7-.05-12.97-1.1-18.61-8.23-16.9-21.17.83-6.31,3.51-12.06,6.24-18.31Z" style="fill: #fefefe;"/>
  <path d="M651.03,1138.98c.06-15.57,10.66-29.94,25.5-34.56,15.73-4.89,32.86.97,41.92,14.22,1.29,1.88,1.81,3.88,2.05,6.04.41,3.64.79,7.32,2.38,10.65,2.31,4.85,1.73,9.64.23,14.52-5.19,16.84-22.93,28.29-39.78,25.65-19.22-3.01-32.37-17.87-32.3-36.52ZM663.31,1128.17c-1.8,15.85,5.06,32.01,15.37,36.83,9.36,4.38,25.5.58,33.41-7.91-.91-1.75-1.81-3.51-3.64-4.76-4.75,2.6-9.35,5.58-14.75,6.94-9.65,2.43-16.26-.63-20.18-9.71-1.25-2.9-2.32-5.87-2.69-9.05-.48-4.08-1.01-8.16-1.54-12.34h-5.98Z" style="fill: #fefefe;"/>
  <path d="M115.15,769.75c-.06,18.92-12.17,33.3-30.12,36.85-16.53,3.27-33.79-6.58-40.39-23.05-6.41-15.99-.56-34.66,13.74-43.95,1.57-1.02,3.19-1.68,5.05-1.94,2.63-.37,5.27-.76,7.83-1.46,19.08-5.17,36.8,4.7,42.54,23.79,1.06,3.53,1.56,7.14,1.36,9.75ZM49.41,763.14c.69,8.01,2.19,15.27,6.14,21.82,5.08,8.42,12.65,12.23,22.32,10.81,9.76-1.44,17.9-6.53,25.55-12.52-.96-2.42-2.22-4.05-4.1-5.27-3.13,2.04-6.14,4.09-9.25,6-3.27,2.01-6.8,3.44-10.53,4.4-8.45,2.18-14.64-.49-18.74-8.2-2.05-3.85-3.25-7.98-3.88-12.29-.26-1.75.06-3.7-1.73-5.19-1.67.13-3.47.27-5.78.44Z" style="fill: #fefefe;"/>
  <path d="M1020.26,913.53c7.38.18,14.29,1.26,19.33,7.47.82,1.01,1.94,1.89,3.09,2.5,11.36,5.96,14.61,16.18,14.35,27.96-.26,12.13-5.66,21.89-15.67,28.57-13.27,8.85-27.16,9.09-40.83.8-12.68-7.7-19.29-22.53-16.33-37.38,3.04-15.3,12.69-24.83,27.69-28.84,2.69-.72,5.58-.74,8.37-1.08ZM998.28,932.77c-1.91,7.66-2.84,14.74-2.03,21.92,1.15,10.09,5.14,18.5,15.75,21.49,9.27,2.61,18.31.94,27.16-2.74-.6-2.47-.87-4.61-2.65-6.13-4.24,1.21-8.33,2.56-12.67,2.97-13.48,1.28-20.39-4.86-20.88-18.44-.21-5.83.93-11.52,1.7-17.44-2.15-.55-4.04-1.03-6.38-1.63Z" style="fill: #fefefe;"/>
  <path d="M568.1,1139.3c-.09,19.51-14.7,35.36-33.76,36.62-19.42,1.28-36.64-12.92-39.18-32.27-.27-2.06.2-3.9.85-5.83,1.01-2.98,1.96-6.01,2.56-9.09,2.66-13.66,11.18-22.44,24.91-25.46,22.95-5.05,44.72,12.54,44.61,36.04ZM503.07,1129.52c-.04,7.9.92,15.28,4.18,22.18,3.09,6.54,8.06,11.16,15.36,12.26,12.29,1.84,22.53-3.39,32.55-9.63-1.07-2.28-1.91-4.07-3.84-5.61-5.49,3.2-11.15,6.33-17.47,7.93-11.4,2.87-18.4-1.01-21.96-12.07-1.59-4.92-1.61-10.08-2.15-15.11-2.26-.55-4.19-.57-6.67.05Z" style="fill: #fefefe;"/>
  <path d="M249.28,982.77c21.27.15,36.85,15.12,37.96,34.72,1.09,19.31-12.92,36.35-31.63,38.45-19.78,2.22-37.18-10.73-40.74-30.01-1.12-6.09-.55-11.88,1.1-17.71.98-3.43,2.5-6.4,5.5-8.62,1.98-1.46,3.95-3.26,5.19-5.34,5.6-9.42,14.71-11.03,22.62-11.49ZM223.9,1005.68c-1.37,13.2-2.34,26.12,9.42,34.23,12.94,8.92,26,2.82,38.82-2.07-.77-2.49-1.38-4.36-3.02-6.18-6.88,2.52-13.78,5.46-21.39,5.54-9.45.1-14.83-4.31-16.9-13.54-1.25-5.59-.59-11.17-.2-17.15-2.18-.27-4.1-.5-6.73-.83Z" style="fill: #fefefe;"/>
  <path d="M199.76,200.24c.36-22.43,17.43-38.87,37.72-37.9,20.66.99,36.8,18.93,35.39,39.33-1.43,20.74-19.55,36.29-40.18,34.14-6.81-.71-13.45-2.37-17.59-8.87-1.04-1.64-2.59-3.17-4.26-4.16-9.3-5.53-10.51-14.66-11.08-22.53ZM208.84,187.47c-1.08,6.28-.77,11.3,1.06,18.59,3.03,12.09,11.04,18.26,23.5,17.96,9.24-.22,17.36-3.9,25.41-8.11-.97-2.31-1.71-4.3-3.46-5.9-5.81,2.91-11.71,5.59-18.14,6.77-11.84,2.17-19.42-3.3-21.33-15.15-.72-4.45-.64-8.92-.84-13.55-2.03-.64-3.92-1.11-6.2-.61Z" style="fill: #fefefe;"/>
  <path d="M110.17,461.48c-.13,19.69-15.44,35.57-35.09,36.39-18.89.79-35.88-14.09-37.92-33.22-2.05-19.15,11.41-36.6,30.55-39.89,4.95-.85,9.5-.76,13.84,2.13,1.62,1.08,3.62,1.66,5.51,2.27,15.28,4.99,23.22,16.06,23.12,32.32ZM93.83,470.45c-5.56,2.86-10.51,5.97-16.15,7.54-14.22,3.96-22.67-1.51-24.75-16.08-.51-3.56-.84-7.14-1.28-10.93-2.23.27-4.19-.49-6.46.63-.06,8.46,1.04,16.74,5.44,24.29,2.99,5.15,7.45,8.76,13.27,9.77,12.63,2.2,23.17-3.09,33.54-9.73-1.33-2.02-2.32-3.52-3.61-5.48Z" style="fill: #fefefe;"/>
  <path d="M905.59,1017.61c6.12-.06,11.84,1.32,17.26,4.18,2.87,1.52,5.22,3.36,6.83,6.28,1.19,2.16,2.59,4.42,4.45,5.97,8.38,6.95,9.1,16.18,7.8,25.86-1.35,10.08-6.53,18.21-14.87,23.84-13.2,8.92-27.16,9.56-40.8,1.22-13.37-8.17-19.15-20.77-16.96-36.11,2.23-15.61,11.78-25.59,26.93-30.09.95-.28,1.92-.59,2.9-.69,2.15-.22,4.31-.32,6.46-.46ZM883.37,1037.11c-2.22,14.22-5.69,28.52,7.14,39.62,7.27,6.29,24.61,6.04,33.56.28-.54-1.85-.73-3.86-2.53-5.41-4.93,1.21-9.86,2.75-15.05,2.82-10.83.15-16.24-4.62-17.91-15.29-1.1-7.05.75-13.84,1.46-20.63-1.98-1.3-3.86-1.7-6.67-1.38Z" style="fill: #fefefe;"/>
  <path d="M21.67,537.83c.22-19.68,16.12-36.83,34.67-35.92,22.46,1.1,37.3,12.07,38.32,36.55.86,20.68-16.32,36.8-37.2,36.61-19.8-.18-36.01-17.05-35.78-37.24ZM78.33,547.66c-6.07,3.42-11.69,6.64-18.03,8.17-11.89,2.87-19.16-1.63-22.34-13.5-1.21-4.51-.71-9.2-1.65-13.69-2.16-.59-4.07-.76-6.26.03-.72,7.57.45,14.83,3.57,21.74,4.23,9.38,12.76,14.22,22.95,13.08,9.28-1.04,17.36-5.07,25.36-10.12-1.21-1.92-2.25-3.58-3.59-5.72Z" style="fill: #fefefe;"/>
  <path d="M518.25,28.69c18.26.16,33.06,12.18,36.55,28.79,3.65,17.37-4.97,34.47-20.9,41.52-15.86,7.02-34.12,2.01-44.44-12.11-1.92-2.63-3.1-5.43-3.37-8.7-.16-1.97-.57-3.95-1.1-5.86-5.12-18.38,4.29-35.91,22.57-41.93,3.83-1.26,7.76-1.79,10.69-1.72ZM493.55,50.33c-2.34,5.97-2.61,14.75-.76,22.19,2.47,9.9,8.9,15.96,18.96,17.15,9.64,1.14,18.69-1.4,27.61-5.08-.47-2.35-1.02-4.21-2.51-6.03-3.47,1.01-6.91,2.15-10.42,3-3.54.86-7.13,1.55-10.83,1.48-9.93-.19-15.75-5.56-16.76-15.42-.54-5.29.13-10.54.61-16.04-2.16-.45-4.04-.85-5.9-1.24Z" style="fill: #fefefe;"/>
  <path d="M896.79,180.01c-20.96-.14-38.28-18.45-36.44-38.51,2.01-21.96,21.2-37.52,42.05-34.11,21.95,3.59,35.77,23.96,30.56,44.99-.58,2.32-1.55,4.3-3.44,5.88-3.09,2.58-5.9,5.59-7.57,9.18-4.46,9.59-13.08,11.39-22.16,12.55-.98.13-1.99.02-2.99.02ZM875.56,125.75c-2.41,8.14-3.28,15.89-2.36,23.71,1.13,9.62,5.61,17.16,15.37,20.18,9.13,2.82,17.97.87,26.69-2.19-.12-2.66-.8-4.59-2.17-6.46-5.25,1.63-10.38,3.07-15.76,3.02-10.63-.09-16.72-5.92-17.36-16.49-.41-6.68.46-13.24,2.04-19.95-2.19-.62-4.06-1.14-6.45-1.81Z" style="fill: #fefefe;"/>
  <path d="M995.32,191.56c-.4,7.7-1.64,15.96-10.14,20.98-1.54.91-2.74,2.42-3.98,3.77-10.39,11.26-24.06,13.81-38.26,7.09-16.61-7.85-24.9-26.54-19.51-43.94,5.3-17.11,22.66-27.95,40.51-25.29,18.21,2.72,31.47,18.09,31.39,37.38ZM971.8,210.31c-4.2.23-8.34.75-12.45.61-13.14-.44-19.01-7-18.33-20.06.34-6.51,3-12.46,4.94-18.98-2.41-.36-3.96-2.28-6.42-1.68-2.91,6.3-4.68,12.87-5.37,19.67-1.44,14.09,5,23.99,17.41,26.93,7.04,1.67,14.14,1.56,21.21-.21.47-2.34.2-4.37-.99-6.27Z" style="fill: #fefefe;"/>
  <path d="M182.69,292.32c-7.02-.02-13.55-1.21-18.33-7.11-1.02-1.26-2.53-2.15-3.88-3.12-14.19-10.22-18.34-27.27-10.44-42.91,8.12-16.07,26.59-24.04,43.34-18.7,17.89,5.71,28.47,22.99,25.52,41.67-2.75,17.44-18.06,30.19-36.21,30.17ZM155.03,244.07c-.28,12.86-.63,25.85,11.69,33.21,13.56,8.1,26.09,1.02,38.47-4.72-.62-2.54-1.54-4.24-2.92-5.66-1.88-.16-3.19,1.03-4.67,1.7-4.86,2.19-9.83,3.94-15.12,4.85-11.53,1.98-19.26-4.8-20.46-18-.34-3.74.45-7.56-.63-11.39h-6.36Z" style="fill: #fefefe;"/>
  <path d="M963.51,1042.14c-12.72-.8-24.31-7.89-30.68-22.48-5.78-13.22-2.85-28.92,6.93-38.97,10.87-11.17,26.08-14.52,40.4-8.96,2.08.81,3.71,1.95,5.13,3.74,2.06,2.6,4.32,5.1,6.8,7.29,11.26,9.9,14.33,21.61,9.13,35.59-5.43,14.63-19.01,23.93-37.71,23.78ZM948.64,983.9c-1.48,3.85-2.95,7.19-4.03,10.65-1.03,3.32-1.94,6.73-2.4,10.17-1.8,13.35,3.63,22.76,15.41,26.76,7.25,2.47,14.68,1.87,22.11,1.31.37-2.6.46-4.69-1.02-6.78-4.41.15-8.89.58-13.37.1-11.61-1.24-16.93-7.32-16.4-18.86.25-5.4,2.06-10.39,3.93-15.38.61-1.62,2.02-3.1,1.24-5.28-1.53-.75-3.14-1.55-5.46-2.69Z" style="fill: #fefefe;"/>
  <path d="M1132.25,375.43c-.07,17.56-10.48,31.16-26.76,35.88-15.4,4.47-32.12-1.83-40.92-15.43-8.8-13.61-7.55-31.25,3.04-43.56,2.11-2.45,4.48-4.34,7.65-5.31,2.04-.62,4-1.62,5.89-2.65,13.98-7.6,29.72-5.25,40.78,6.33,6.82,7.14,10.58,15.63,10.31,24.72ZM1110.76,394.57c-3.38.58-6.79,1.15-10.2,1.74-14.01,2.44-22.2-4.39-22.53-18.46-.15-6.31,1.61-12.27,2.98-18.34-2.43-.76-4.26-2.17-6.96-1.04-2.92,13.72-7.29,28.18,5.23,39.42,9.27,8.32,19.74,7.86,33.57,2.34-.61-1.86-.67-3.91-2.09-5.65Z" style="fill: #fefefe;"/>
  <path d="M384.42,1134.86c-21.68-.12-38.6-17.53-38-37.7.08-2.84.69-5.48,2.55-7.89,2.74-3.58,4.78-7.67,5.85-12.03.9-3.67,2.99-6.18,5.8-8.39,11.9-9.36,28.26-10.21,41.61-2.14,12.96,7.84,19.59,23.15,16.73,38.69-2.64,14.35-14.52,26.11-29.04,28.68-2.28.4-4.59.66-5.49.79ZM401.73,1109.88c-6.29,2.87-12.43,4.79-18.87,5.75-11,1.64-18.39-4-20.05-14.96-.78-5.14,0-10.23.06-15.4-2.31-.29-4.25-1.49-6.39-.72-2.96,16.58,1.15,29.41,10.39,35.12,9.4,5.81,29.06,2.02,37.35-4.28-.73-1.61-1.47-3.26-2.49-5.52Z" style="fill: #fefefe;"/>
  <path d="M800.74,1088.06c.36-11.51,6.96-22.7,20.18-29.2,13.72-6.74,27.07-5.1,39.4,4.04,2.17,1.61,3.8,3.57,4.75,6.22.95,2.63,2.05,5.37,3.73,7.56,9.1,11.8,6.16,23.54-.59,34.73-8.31,13.77-25.68,19.66-41.47,14.95-15.56-4.64-26.14-18.88-26-38.3ZM812.24,1077.15c-.8,8.77-.47,17.17,2.36,25.32,2.83,8.13,8.25,13.85,16.93,15.22,9.76,1.55,18.58-1.68,26.94-6.59-.75-2.4-1.49-4.34-3.29-5.77-1.88.88-3.67,1.77-5.5,2.56-18.9,8.11-30.15.86-30.75-19.78,0-.33.02-.67-.02-1-.38-3.24.58-6.58-.51-9.95h-6.16Z" style="fill: #fefefe;"/>
  <path d="M645.16,1149.33c.44,16.26-11.37,30.94-28.08,34.86-16.61,3.9-34.01-4.52-41.16-19.87-2.44-5.24-4.13-10.48-2.01-16.34.72-1.99,1.03-4.27.93-6.39-.68-13.64,7.76-21.21,18.49-26.4,22.72-10.99,52.03,4.52,51.83,34.14ZM580.32,1138.56c-.13,8,.88,15.5,4.23,22.52,4.24,8.89,12.67,13.62,22.42,12.51,9.28-1.06,17.5-4.9,25.24-9.98-.73-2.37-1.79-4.17-3.64-5.68-5.78,3.33-11.58,6.59-18.15,8.05-11.43,2.54-18.14-1.49-21.52-12.76-1.43-4.77-1.15-9.81-2.14-14.52-2.12-.67-3.92-.56-6.43-.14Z" style="fill: #fefefe;"/>
  <path d="M1031.98,892.2c-.07-24.59,18.56-41.57,39.92-39.47,1.95.19,3.43,1,4.92,2.12,3.08,2.31,6.35,4.5,10.09,5.35,11.38,2.58,15.65,11.32,17.75,21.19,3.11,14.64-1.45,27.23-13.3,36.37-11.96,9.23-25.4,10.59-39.02,3.91-13.28-6.51-19.81-17.73-20.36-29.47ZM1052.1,874.2c-2.46-.16-4.28-1.36-6.57-.62-1.68,9.02-2.02,18.09.76,26.99,2.45,7.84,7.59,13.46,15.78,15.07,9.37,1.84,18.34-.13,26.97-4.57-.92-2.23-1.43-4.28-2.94-5.88-5.04,1.76-9.81,3.64-15.02,4.06-11.3.9-17.46-4.13-19.29-15.28-1.07-6.5,0-12.89.3-19.79Z" style="fill: #fefefe;"/>
  <path d="M1050.18,245.75c.06,6.35-1.82,12.15-4.77,17.66-.79,1.48-1.63,2.94-3.18,3.75-5.65,2.96-10.62,6.75-15.07,11.37-2.79,2.89-7,2.98-10.77,3.29-19.36,1.58-37.36-12.77-39.44-31.25-2.33-20.69,11.01-38.56,30.93-41.44,19.69-2.85,38.36,10.59,41.8,30.15.37,2.12.34,4.31.5,6.47ZM1028.35,263.98c-4.95.74-9.6,2.07-14.41,1.95-12.04-.3-17.84-6.33-18.05-18.35-.11-6.56,1.82-12.72,3.23-19.01-1.92-1.53-3.98-1.82-6.22-2.26-2.92,8.29-4.65,16.55-3.78,25.1.88,8.62,4.66,15.57,13.13,19.05,9.21,3.78,18.37,2.48,27.86-.08-.65-2.35-1.17-4.22-1.76-6.39Z" style="fill: #fefefe;"/>
  <path d="M156.77,966.29c-.04-4.2.59-8.28,2.06-12.24,1.84-4.97,4.2-9.26,9.67-11.28,3.26-1.2,6.36-3.3,8.46-6.07,5.19-6.87,12.44-7.22,19.82-6.52,19.46,1.85,34.54,19.84,33.05,39.06-1.55,19.97-18.4,35.34-37.75,34.44-20.05-.93-35.57-17.36-35.32-37.4ZM165.12,956.55c-.62,8.1.38,15.61,3.73,22.64,4.01,8.41,10.7,12.91,20.2,12.78,10.17-.14,18.8-4.54,27.35-9.55-.69-2.5-1.75-4.24-3.49-5.75-5.79,2.88-11.22,6.08-17.45,7.52-12.24,2.82-19.61-1.7-22.53-13.85-1.05-4.39-.73-8.88-1.31-13.21-2.06-1.14-4.01-.89-6.5-.57Z" style="fill: #fefefe;"/>
  <path d="M313.23,1101.14c-23.31-.19-40.45-21.94-35.37-44.77.53-2.39,1.45-4.33,3.25-5.99,3.47-3.19,6.31-6.94,8.14-11.27,1.47-3.48,3.96-5.55,7.16-7.21,13.39-6.96,30.09-5.03,41.05,4.82,11.88,10.68,15.77,26.64,10.08,41.43-5.39,14.01-18.95,23.1-34.31,22.97ZM332.2,1076.42c-5.51,2.32-10.63,4.19-15.99,5.25-14.5,2.87-22.87-3.78-23.27-18.57-.1-3.76-.02-7.53-.02-11.28-2.1-.9-3.99-1.16-6.4-.47-.68,6.01-1.07,12.07.22,18.17,2.86,13.49,10.8,19.84,24.61,19.55,8.3-.18,15.88-2.95,23.61-6.46-.89-1.97-1.67-3.73-2.77-6.18Z" style="fill: #fefefe;"/>
  <path d="M492.29,1122.68c-.39,19.84-15.46,35.27-35.31,36.14-18.69.82-35.72-14.31-37.74-33.45-.22-2.11.3-3.91,1.29-5.7,2.99-5.44,5.16-11.15,5.53-17.42.17-2.96,2.15-4.79,4.04-6.63,10.83-10.53,26.74-13.32,40.64-7.17,13.32,5.89,21.84,19.43,21.55,34.24ZM475.56,1131.66c-5.66,2.83-11.17,6.2-17.54,7.73-11.61,2.78-18.58-1.08-22.07-12.49-1.46-4.76-1.32-9.76-2.11-14.55q-3.58-.39-6.37.43c-.82,15.48,4.84,27.99,14.71,32.5,9.6,4.38,27.8.09,37.06-8.88-1.17-1.48-1.59-3.53-3.68-4.74Z" style="fill: #fefefe;"/>
  <path d="M1087.18,446.63c-.52-9.44,3.47-17.19,8.55-24.56,1.42-2.05,3.54-2.81,5.94-3.15,6.18-.86,12.13-2.67,17.12-6.44,3.57-2.7,7.28-3.09,11.29-2.26,14.97,3.13,25.33,11.75,29.48,26.61,3.98,14.28.12,26.99-10.91,36.69-11.65,10.25-25.18,12.03-39.62,5.98-14.65-6.14-20.9-17.76-21.85-32.88ZM1108.72,422.89c-4.82,7.43-8.26,15.13-9.52,23.61-1.16,7.8.48,15.06,6.76,20.36,8.24,6.96,18.18,7.96,28.42,7.71.62-2.44.6-4.36-.17-6.49-3.57-.36-7.18-.63-10.76-1.12-14.92-2.04-20.62-11.22-15.98-25.5,1.69-5.22,4.42-9.95,6.78-14.8-1.4-1.82-3.25-2.58-5.52-3.77Z" style="fill: #fefefe;"/>
  <path d="M109.99,803.94c19.85.7,35.61,17.21,35.8,36.75.19,19.63-15.36,35.77-35.44,36.77-18.38.91-35.42-13.92-37.54-32.48-.9-7.88.41-15.25,4.2-22.17,2.94-5.37,6.31-9.97,13.23-10.83,4.62-.58,8.84-2.94,12.63-5.71,2.4-1.76,4.81-2.98,7.12-2.33ZM79.96,833.76c.44,8.36,2.32,16.31,7.21,23.31,4.3,6.14,10.2,9.3,17.86,9.12,11.49-.26,20.22-6.39,29.1-12.73-1.48-2.21-2.45-4.13-4.47-5.24-5.66,3.95-11.2,7.93-17.85,9.95-10.43,3.18-17.48-.07-21.75-10.08-2.03-4.76-2.65-9.86-3.56-14.84-2.25-.4-4.19-.45-6.53.5Z" style="fill: #fefefe;"/>
  <path d="M63.02,651.19c-3.18,0-5.26-.37-7.16.06-13.54,3.04-22.55-4.17-29.6-13.98-13.74-19.13-5.38-46.29,16.35-54.94,2.84-1.13,5.7-1.71,8.77-1.27,4.29.62,8.58,1.13,12.9.16,1.9-.43,3.63.43,5.29,1.14,14.18,6.05,22.27,16.96,23.16,32.16.92,15.69-6.28,27.5-20.23,35.04-3.41,1.84-6.96,2.04-9.48,1.63ZM28.06,606.82c-.59,7.74.56,15.16,3.88,22.18,4.35,9.21,13.13,14.04,23.21,12.65,9.05-1.24,17.08-5.09,24.7-10.05-1.01-2.12-1.93-4.03-3.76-5.58-5.64,3.16-11.23,6.44-17.61,7.94-12.18,2.86-19.47-1.7-22.52-13.87-1.09-4.35-.8-8.83-1.4-13.1-2.31-.82-4.22-.86-6.49-.17Z" style="fill: #fefefe;"/>
  <path d="M562.23,65.19c-.09-1.83-.09-3.67-.28-5.49-1.88-18.25,9.23-33.18,27.24-36.58,18.25-3.44,36.81,6.6,41.48,24.63,4.86,18.75-.65,37.24-21.34,45.43-18.23,7.22-38.67-1.53-46.37-19.15-1.3-2.97-.63-5.89-.73-8.84ZM573.2,39.85c-2.61,6.61-4.3,12.97-4.24,19.72.12,11.71,6.03,19.66,17.36,22.49,8.83,2.21,17.71,1.42,26.52-.49.17-2.56-.39-4.56-1.57-6.58-6.79,1.14-13.54,1.93-20.37,1.03-10.02-1.33-14.89-7.02-15.02-17.12-.08-5.75,2.11-10.99,3.33-16.36-1.69-1.65-3.61-2.11-6.01-2.69Z" style="fill: #fefefe;"/>
  <path d="M1129.14,786.13c-22.58.11-39.58-19.77-36.46-42.08,2.2-15.75,11.81-24.48,25.96-29.43,3.29-1.15,6.38-.96,9.62.57,5.14,2.44,10.65,3.99,16.37,3.73,3.7-.17,6.28,1.29,8.83,3.63,11.56,10.57,15.39,26.16,9.81,40.47-5.51,14.12-18.67,23.03-34.14,23.1ZM1138.65,771.24c-5.38-.24-10.84-.44-16.08-2.2-8.51-2.85-12.09-7.95-11.7-16.82.22-4.93,2.01-9.4,4.07-13.77,1.39-2.94,2.89-5.83,4.33-8.71-1.92-1.5-3.48-2.71-5.62-3.29-2.79,3.75-4.79,7.94-6.5,12.24-2.67,6.72-4.46,13.67-2.74,20.95,2.95,12.49,20.16,21.22,34.75,17.71.16-1.95.43-3.92-.51-6.1Z" style="fill: #fefefe;"/>
  <path d="M184.26,905.05c.04,15.66-9.47,29.18-24.19,34.38-14.48,5.12-30.75.53-40.57-11.44-9.77-11.9-11.08-29.14-3.33-42.09,1.22-2.03,2.83-3.07,5.01-3.67,7.56-2.09,14.07-5.98,19.32-11.8,1.76-1.95,3.76-2.4,6.2-2.45,20.71-.41,37.51,16.14,37.56,37.08ZM168.5,912.36c-5.02,3.23-9.78,6.88-15.42,9.05-12.74,4.91-20.82,1.28-25.18-11.72-1.35-4.03-1.98-8.3-2.93-12.46-2.15-.22-4.11-.48-6.28.89.53,8.28,2.33,16.26,7.31,23.23,4.48,6.27,10.61,9.31,18.41,8.94,11.06-.52,19.61-6.4,28.13-12.51-.85-2.47-2.21-4.06-4.04-5.43Z" style="fill: #fefefe;"/>
  <path d="M1139.25,820.03c-.57,15.53-7.69,26.9-21.94,33.36-13.45,6.1-29.75,3.31-40.27-7.1-11.09-10.97-13.94-24.18-9-38.98,4.84-14.49,15.88-21.11,30.18-23.47,2.19-.36,4.24-.11,6.15,1.29,5.9,4.32,12.6,6.71,19.82,7.5,2.52.28,4.32,1.28,5.9,3.17,5.83,7.02,9.32,14.89,9.16,24.23ZM1119.27,844.9c-.29-2.6-.55-4.56-2.09-6.27-5.01.85-10.05,2-15.24,1.72-11.1-.62-16.52-6.3-16.88-17.41-.22-6.72,1.76-13.08,3.09-19.58-1.97-1.44-3.99-1.85-6.3-2.21-2.53,7.85-4.22,15.59-3.7,23.65.73,11.28,6.57,18.94,16.83,21.5,8.05,2.01,16.09,1.16,24.3-1.39Z" style="fill: #fefefe;"/>
  <path d="M1182.18,602.81c-.21,9.04-5.56,19.37-16.53,26.64-4.36,2.89-8.82,5.05-14.42,3.54-3.87-1.04-8.02-.85-11.89.09-4.67,1.13-8.45-.52-12.24-2.68-11.48-6.55-17.39-16.85-18.98-29.59-1.66-13.3,9.53-30.64,22.13-35.31,1.32-.49,2.6-.59,3.91-.33,6.5,1.28,12.91.94,19.25-.92,2.07-.61,3.93.05,5.81.77,13.76,5.28,23.01,18.86,22.97,37.79ZM1157.24,619.78c-3.08,0-5.89.12-8.68-.02-18.13-.93-24.71-10.35-19.2-27.63,1.34-4.22,3.22-8.27,4.88-12.5-1.97-1.24-3.68-2.47-6.01-2.66-4.24,7.85-7.18,15.92-7.59,24.67-.38,8.09,2.12,15.22,9.24,19.78,8.52,5.45,17.99,6.08,27.71,4.86.66-2.3.39-4.22-.35-6.5Z" style="fill: #fefefe;"/>
  <path d="M199.81,713.97c17.33,20.49,33.68,41.31,51.24,61.13,22.81,25.74,47.2,49.81,75.15,70.02,2.54,1.84,3.73,3.75,3.63,6.99-.24,7.93-.08,15.87-.08,24.11-4.89-.05-8.19-2.35-11.45-4.52-11.45-7.63-21.13-17.3-30.41-27.32-32.89-35.48-61.05-74.29-82.45-117.82-2.03-4.12-3.76-8.39-5.63-12.59Z" style="fill: #fefefe;"/>
  <path d="M879.11,876.43c0-9.33.03-18.13-.03-26.93-.01-1.84,1.22-2.63,2.42-3.5,42.66-30.91,77.01-70.02,109.56-110.92,5.18-6.51,10.35-13.04,15.54-19.55.19-.23.55-.33,1.12-.65.61,2.03-.65,3.45-1.32,4.93-17.85,39.27-42.32,74.24-69.94,107.12-12.76,15.19-26.17,29.8-42.01,41.92-4.42,3.38-8.93,6.85-15.36,7.57Z" style="fill: #fefefe;"/>
  <path d="M316.07,907.96c-50.66-41.24-85.78-92.26-109.75-152.42,2.94,1.06,3.56,2.94,4.58,4.37,19.19,27.19,38.22,54.51,60.42,79.41,13.76,15.43,28.47,29.89,44.6,42.85,2.39,1.92,3.12,3.7,2.57,6.75-1.07,5.98-1.57,12.06-2.42,19.04Z" style="fill: #fefefe;"/>
  <path d="M892.73,908c-.98-7.85-1.78-14.42-2.64-20.99-.22-1.65.29-2.82,1.61-3.87,43.25-34.35,75.05-78.58,106.24-123.33.95-1.37,1.93-2.71,2.94-4.04.18-.23.55-.32,1.92-1.08-24.02,60.61-59.21,111.83-110.07,153.3Z" style="fill: #fefefe;"/>
  <path d="M961.56,853.48c-16.13,32.12-34.15,62.91-62.09,86.52-8.6,7.27-18.21,12.79-29.67,14.39-7.37,1.03-14.22-.48-20.69-3.93-3.79-2.02-3.95-3.91-.48-6.57,1.43-1.1,3.11-1.93,4.78-2.64,44.09-18.64,79.78-47.49,106.39-87.41.27-.4.69-.69,1.04-1.03.23.24.47.46.73.66Z" style="fill: #fefefe;"/>
  <path d="M246.11,851.84c2.75.73,3.22,2.5,4.11,3.81,25.47,37.49,59.04,65.21,100.47,83.49,3.34,1.47,6.75,2.95,9.73,5,2.88,1.99,3.29,4.28-.57,6.31-9.59,5.04-19.36,5.45-29.44,1.87-11.4-4.05-20.73-11.22-29.26-19.54-20.15-19.66-34.81-43.23-48.14-67.74-2.26-4.16-4.39-8.41-6.89-13.2Z" style="fill: #fefefe;"/>
  <path d="M800.99,833.23c-.5,5.11-1.77,10.45-6.39,14.91-9.47,9.13-18.46,18.76-27.72,28.12-4.47,4.52-9.94,7.3-16.27,7.91-5.87.56-9.03-2.64-8.18-8.36.93-6.33,3.08-12.19,7.62-17.02,9.58-10.2,19.14-20.43,28.52-30.8,2.72-3.01,5.97-4.76,9.73-5.68,7.79-1.9,12.68,2.07,12.69,10.94Z" style="fill: #fefefe;"/>
  <path d="M407.9,833.3c0-5.07.83-9.11,5.25-10.68,5.47-1.95,11.06-.56,14.86,3.32,11.3,11.53,22.27,23.39,32.89,35.55,3.7,4.23,5.44,9.9,5.36,15.77-.07,4.85-2.3,7.13-7.11,6.94-6.41-.24-12.02-2.84-16.5-7.29-10.27-10.21-20.34-20.63-30.44-31.01-3.64-3.73-3.92-8.62-4.31-12.6Z" style="fill: #fefefe;"/>
  <path d="M791.57,916.41q-6.41-14.39-18.58-19.98c9.33-11.9,18.95-23.31,32.73-30.11,6.22-3.07,12.93-5.21,19.15.14,4.59,3.95,5.04,11.83,1.18,20.03-7.02,14.9-19.89,23.14-34.49,29.93Z" style="fill: #fefefe;"/>
  <path d="M435.74,896.86c-10.11,2.48-16.37,8.39-17.49,18.48-.58.37-.93.74-1.09.67-16.49-7.11-30.69-16.64-36.26-35.02-1.64-5.42-1.13-10.71,3.26-14.73,4.3-3.94,9.49-3.4,14.57-1.7,10.76,3.61,18.75,11.12,26.34,19.1,3.76,3.96,7.42,8.03,10.67,13.19Z" style="fill: #fefefe;"/>
  <path d="M699.06,847.75c-2.25-12.27-3.29-24.65-19.29-27.31,12.18-11.16,23.32-21.41,38.03-26.28,9.97-3.3,14.96,1.7,12.29,11.83-2.75,10.43-9.13,18.76-15.96,26.78-4.4,5.17-9.19,9.97-15.07,14.98Z" style="fill: #fefefe;"/>
  <path d="M528.98,820.38c-15.77,2.72-17.01,14.9-19.11,26.94-4.72-2.99-7.95-6.76-11.32-10.31-7.8-8.24-14.91-17.01-18.87-27.83-1.71-4.69-3.65-9.88.65-14.01,4.16-4,9.2-1.84,13.59,0,13.21,5.51,23.75,14.79,35.06,25.22Z" style="fill: #fefefe;"/>
  <path d="M509.52,870.72c-15.54-4.2-21.96,5.37-27.99,16.78-5.89-9.35-10.09-18.68-12.54-28.81-1.34-5.52-2.03-11.09-1.03-16.79,1.62-9.3,8.33-12.4,16.41-7.45,3.88,2.37,6.99,5.61,9.8,9.15,6.24,7.85,10.87,16.6,15.36,27.12Z" style="fill: #fefefe;"/>
  <path d="M699.21,870.62c6.26-13.64,12.16-25.87,23.16-34.68,3.54-2.84,7.61-5.32,12.38-3.16,5.1,2.3,6.15,7.11,6.36,12.11.67,15.66-5.98,28.95-13.73,42.77-6.02-11.37-12.52-21.11-28.18-17.04Z" style="fill: #fefefe;"/>
  <path d="M478.04,822.67c-11.62,3.65-17.31,11.14-17.8,23.4-12.61-11.62-23.85-22.61-30.4-37.45-.53-1.21-.92-2.5-1.23-3.79-1.53-6.41,1.63-9.61,8.13-8.26,4.62.96,8.79,3.02,12.85,5.33,9.87,5.6,18.76,12.53,28.45,20.77Z" style="fill: #fefefe;"/>
  <path d="M748.46,846.03c-.39-12.15-5.95-19.72-16.62-22.99.73-2.89,2.91-3.74,4.51-5.03,9.73-7.82,19.55-15.54,31.34-20.12,3.67-1.43,7.91-3.43,11.26-.09,3.58,3.57,1.38,7.97-.33,11.64-6.67,14.31-17.49,25.27-30.15,36.59Z" style="fill: #fefefe;"/>
  <path d="M629.92,502.82v-32.64h33.78v32.64h-33.78Z" style="fill: #fefefe;"/>
  <path d="M710.96,470.19v32.62h-33.88v-32.62h33.88Z" style="fill: #fefefe;"/>
  <path d="M663.79,869.17c-.06-6.87.75-13.59,3.14-20.07.98-2.68,2.27-5.18,4.12-7.35,4.64-5.45,10.47-5.16,14.46.79,3.94,5.88,4.6,12.72,5.22,19.51.61,6.66-.55,13.26-.94,19.88-.17,2.83-1.73,3.58-4.2,3.63-6.37.12-12.52-1.24-18.66-2.7-2.02-.48-2.5-2.01-2.61-3.75-.21-3.31-.34-6.63-.51-9.95Z" style="fill: #fefefe;"/>
  <path d="M519.6,885.01c-1.76-12-2.83-23.73.54-35.32,1.53-5.26,3.4-10.78,10.03-11.67,4.49-.61,8.95,3.58,11.58,10.75,3.62,9.89,3.91,20.13,2.63,30.48-.18,1.48-.24,3.1-2.13,3.52-7.4,1.66-14.77,3.79-22.64,2.25Z" style="fill: #fefefe;"/>
  <path d="M778.31,182.95h31.41v32.85h-31.41v-32.85Z" style="fill: #fefefe;"/>
  <path d="M578.95,194.88v-30.88h32.8v30.88h-32.8Z" style="fill: #fefefe;"/>
  <path d="M731.03,183.27h31.1v32.42h-31.1v-32.42Z" style="fill: #fefefe;"/>
  <path d="M762.9,457.97h-33.63v-28.41h33.63v28.41Z" style="fill: #fefefe;"/>
  <path d="M652.47,430.32h34.03v27.39h-34.03v-27.39Z" style="fill: #fefefe;"/>
  <path d="M418.97,811.88c-9.86,2.07-15.68,7.54-18.69,16.63-10.17-6.31-19.45-12.62-25.9-22.24-1.18-1.76-2.04-3.83-2.63-5.88-1.36-4.7.56-7.72,5.34-8.86,3.74-.89,7.29.09,10.77,1.22,11.46,3.7,20.99,10.58,31.11,19.14Z" style="fill: #fefefe;"/>
  <path d="M808.4,828.19c-2.89-8.84-8.81-14.2-18.61-16.4,11.71-9.51,22.74-17.95,37.06-20.42,3.54-.61,7.21-.31,9.49,2.93,2.18,3.09,1,6.41-.48,9.47-3.68,7.65-15.33,18.09-27.46,24.41Z" style="fill: #fefefe;"/>
  <path d="M778.08,780.72c8.49-7.63,16.42-14.45,26.11-18.74,4.4-1.95,9.44-4.27,13.48-.17,4,4.06,1.81,9.17-.16,13.54-4.97,11.04-13.64,18.56-24.42,24.67-2.56-8.22-7.2-14.7-15.01-19.3Z" style="fill: #fefefe;"/>
  <path d="M430.75,780.77c-7.8,4.57-12.56,10.76-14.83,19.28-11.92-6.57-21.12-14.94-25.77-27.54-1.34-3.64-2.17-7.68.96-10.8,3.15-3.15,7.15-2.09,10.78-.77,11.01,4.02,19.6,11.62,28.86,19.84Z" style="fill: #fefefe;"/>
  <path d="M398.17,845.33c-8.6,1.1-15.46,4.23-21.65,8.83-1.03.76-1.92.22-2.74-.28-8.21-4.97-14.86-11.38-17.46-20.9-1.19-4.35-1.51-9.13,2.56-12.48,4.05-3.33,8.58-2.17,12.71-.18,11.11,5.38,18.62,14.61,26.58,25.01Z" style="fill: #fefefe;"/>
  <path d="M810.75,845.38c7.97-10.72,15.67-20.17,27.29-25.39,3.91-1.76,8.13-2.52,11.81.46,3.89,3.15,3.85,7.67,2.77,11.95-2.47,9.8-9.26,16.27-17.5,21.46-1.05.66-2.09.95-3.19.12-6.04-4.55-12.77-7.58-21.17-8.59Z" style="fill: #fefefe;"/>
  <path d="M869.61,851c0,7.52,0,14.34,0,21.16,0,1.19-.16,2.33-1.1,3.2-6.23,5.75-12.03,12.03-19.68,16.04-2.69,1.41-5.5,2.15-8.92,1.51,0-7.63-.19-15.09.09-22.54.13-3.37,2.87-5.54,5.35-7.52,6.98-5.58,15.1-8.86,24.27-11.86Z" style="fill: #fefefe;"/>
  <path d="M339.2,851.01c9.34,3.06,17.86,6.5,25.11,12.57,3.4,2.84,5.06,6.26,4.83,10.86-.31,6.1-.08,12.22-.08,18.3-3.93,1.04-6.99-.17-9.91-1.78-7.21-3.99-12.76-10.04-18.8-15.47-.95-.86-1.17-1.93-1.16-3.14.02-6.94,0-13.88,0-21.34Z" style="fill: #fefefe;"/>
  <path d="M721.41,915.73c-12.55-1.08-24.26-2.09-36.8-3.17,4.32-11.55,9.9-21.43,21.12-26.8,5.17-2.47,9.6-.45,12.19,5.12,3.61,7.74,3.48,16.02,3.49,24.85Z" style="fill: #fefefe;"/>
  <path d="M524.19,912.59c-12.64,1.07-24.51,2.07-36.86,3.12-.21-8.6.02-16.7,3.33-24.32,2.95-6.79,8.25-8.51,14.63-4.57,9.48,5.84,14.91,14.81,18.89,25.78Z" style="fill: #fefefe;"/>
  <path d="M608.94,1006.48c0-6.81.1-13.62-.04-20.43-.06-3.17,1.2-4.41,4.34-4.62,11.26-.76,11.45-.65,11.45,10.56,0,11.3-.13,22.59.07,33.88.08,4.44-1.32,6.26-6,6.14-10.74-.27-9.82.7-9.82-9.59,0-5.32,0-10.63,0-15.95Z" style="fill: #fefefe;"/>
  <path d="M599.93,1006.49c0,6.81-.11,13.62.04,20.43.08,3.6-1.27,5-4.94,5.07-10.89.2-10.89.32-10.89-10.6,0-11.46.13-22.92-.07-34.38-.07-4.13,1.47-5.55,5.51-5.6,10.35-.14,10.35-.27,10.35,10.15,0,4.98,0,9.97,0,14.95Z" style="fill: #fefefe;"/>
  <path d="M740.79,803.4c3.44-9.91,5.38-18.45-2.77-26.12,10.18-5.42,19.88-10.43,30.94-11.77,6.85-.83,9.79,3.3,6.48,9.56-7.32,13.83-19.29,22.24-34.65,28.33Z" style="fill: #fefefe;"/>
  <path d="M471,777.25c-8.51,7.66-6.19,16.38-3.23,26.15-15.44-6.34-27.29-14.74-34.5-28.46-3.35-6.37-.04-10.36,7.23-9.36,10.72,1.47,20.09,6.45,30.5,11.67Z" style="fill: #fefefe;"/>
  <path d="M473.08,926.1c-8.23,4.39-14.12,10.33-18.69,18.03-7.89-5.96-15.23-11.91-20.22-20.19-1.91-3.17-3.53-6.71-1.37-10.33,2.31-3.86,6.39-4.02,10.23-3.48,11.61,1.64,20.85,7.81,30.05,15.97Z" style="fill: #fefefe;"/>
  <path d="M754.39,944.17c-4.57-7.84-10.45-13.6-18.76-18.15,10.07-8.45,19.84-15.65,32.88-15.92,7.24-.15,10.32,4.78,7.3,11.38-4.46,9.75-12.78,15.96-21.42,22.7Z" style="fill: #fefefe;"/>
  <path d="M575.41,412.26v10.36h-48.24v-10.36h48.24Z" style="fill: #fefefe;"/>
  <path d="M353.85,922.93c-9.41-6.2-17.54-11.59-25.69-16.93-1.24-.81-1.77-1.79-1.66-3.31.31-4.29.51-8.59.8-13.63,8.54,4.37,16.74,8.6,24.97,12.74,1.5.75,1.6,1.93,1.6,3.3-.01,5.44,0,10.89,0,17.84Z" style="fill: #fefefe;"/>
  <path d="M824.7,931.12q-5.37-6.79-16.02-8.79c8.49-8.53,16.73-16.53,28.18-19.95,4.76-1.42,7.35,1.52,6,6.44-1.16,4.23-3.76,7.72-6.55,11.04-3.42,4.06-7.18,7.77-11.6,11.26Z" style="fill: #fefefe;"/>
  <path d="M855.02,922.86c0-6.88,0-12.47,0-18.05,0-1.18.02-2.24,1.34-2.91,8.23-4.16,16.43-8.39,25.8-13.19,0,5.45-.04,9.87.02,14.28.02,1.54-.68,2.43-1.88,3.22-8.03,5.26-16.03,10.56-25.28,16.66Z" style="fill: #fefefe;"/>
  <path d="M400.64,922.65c-7.49.43-13.34,1.82-16.19,8.89-7.25-6.27-13.72-12.17-17.6-20.3-1.21-2.53-2.49-5.44-.14-7.9,2.18-2.28,5.01-1.29,7.49-.32,10.13,4,17.82,11.31,26.45,19.62Z" style="fill: #fefefe;"/>
  <path d="M186.03,636.99c-.78-.25-.96-.66-.3-1.38.08.54.15.99.22,1.45,0,0,.08-.07.08-.07Z" style="fill: #fefefe;"/>
  <path d="M206.79,754.45c-.05.1-.1.2-.15.3l-.39-.33c.1-.1.19-.19.29-.29.09.11.17.21.26.32Z" style="fill: #fefefe;"/>
  <path d="M960.83,852.82c.26-.29.73-.85.76-.83.66.49.29.99-.04,1.49-.26-.2-.5-.42-.73-.66Z" style="fill: #fefefe;"/>
  <path d="M270.02,1059.03c.04-.13.06-.28.14-.39.03-.04.2.02.3.03-.17.09-.34.19-.51.28,0,0,.07.08.07.08Z" style="fill: #fefefe;"/>
  <path d="M1008.47,713.9c-.08-.11-.23-.24-.22-.34.01-.1.18-.19.28-.29.08.11.23.24.22.34-.01.1-.18.19-.28.29Z" style="fill: #fefefe;"/>
  <path d="M962.57,850.82c-.09-.05-.18-.11-.27-.16.1-.15.2-.3.3-.46.09.11.25.22.25.32,0,.1-.18.19-.28.3Z" style="fill: #fefefe;"/>
  <path d="M492.62,570.71h-40.94v-33.67h40.94v33.67Z" style="fill: #0daedc;"/>
  <path d="M688.42,285.87h23.33v24.45h-23.33v-24.45Z" style="fill: #0daedc;"/>
  <path d="M688.34,339.21h24.07v22.45h-24.07v-22.45Z" style="fill: #0daedc;"/>
  <path d="M366.65,574.49h-36.42v-37.73h36.42v37.73Z" style="fill: #0daedc;"/>
  <path d="M30.83,687.53c2.39-.75,4.32-.88,6.52-.38,1.04,4.44,1.35,9.1,3.05,13.44,4.57,11.62,12.02,15.03,23.74,10.89,6.04-2.13,11.16-5.84,16.36-9.49,2.06,1.15,3.06,3.04,4.42,5.16-7.37,5.93-15.3,10.66-24.57,12.54-9.79,1.99-18.13-1.9-23.4-10.51-4-6.53-5.62-13.76-6.13-21.67Z" style="fill: #0daedc;"/>
  <path d="M462.16,95.7c1.01,2.33,1.78,4.1,2.63,6.06-8.4,4.19-16.93,6.83-26.07,6.7-11.12-.16-18.85-6.49-21.67-17.22-1.81-6.88-1.38-13.81-.77-20.64,2.46-.89,4.3.08,6.62.61,0,4.54-.26,9.15.05,13.73.83,12.04,8.19,17.77,20.17,16.38,6.52-.75,12.49-3.18,19.03-5.62Z" style="fill: #0daedc;"/>
  <path d="M342.54,97.1c2.21.41,4.13.77,6.33,1.19-.6,5.48-.95,10.73,0,16.01,1.86,10.49,9.06,15.71,19.63,14.29,6.62-.89,12.8-3.18,18.93-5.59,1.51,1.72,2.18,3.55,2.71,5.45-10.02,7.54-29.11,9.3-38.18,3.55-8.87-5.62-12.71-19.47-9.42-34.89Z" style="fill: #0daedc;"/>
  <path d="M318.78,161.55c1.25,2.31,2.19,4.03,3.26,6.01-8.82,4.71-17.62,8.52-27.59,8.34-9.19-.17-15.97-4.49-19.69-12.89-3.29-7.43-4.12-15.32-3.2-23.38,2.18-.97,4.07-.52,6.26.04.35,4.39.54,8.83,1.1,13.21,1.57,12.45,9.51,17.98,21.74,15.54,6.26-1.25,12-3.78,18.11-6.86Z" style="fill: #0daedc;"/>
  <path d="M107.63,305.55c2.47-.46,4.39-.25,6.42.76.21,4.41.12,8.89.84,13.33,1.95,12.04,9.72,17.48,21.82,15.07,6.25-1.24,11.99-3.87,17.66-6.7,1.87,1.51,2.32,3.68,3.68,5.79-8.38,4.4-16.65,8.13-26.09,8.26-12.13.16-20.04-6.04-23.03-17.94-1.51-6-2.26-12.06-1.3-18.57Z" style="fill: #0daedc;"/>
  <path d="M78.86,376.75c.39,4.82.53,9.31,1.14,13.74,1.64,11.83,9.66,17.34,21.29,15.06,6.42-1.25,12.27-3.95,18.48-6.84,1.12,1.99,2.15,3.8,3.3,5.85-8.75,4.67-17.4,8.39-27.18,8.36-9.2-.03-16.07-4.16-19.93-12.5-3.49-7.54-4.29-15.6-3.42-23.81,2.26-.87,4.16-.49,6.32.15Z" style="fill: #0daedc;"/>
  <path d="M781.57,1135.75c1.8,1.53,2.41,3.42,3.36,5.6-8.42,4.79-17.25,7.96-26.97,6.42-9.11-1.45-14.57-7.51-17.2-16.13-2.4-7.88-3.17-15.92-2.01-24.09,2.24-1.3,4.28-.28,6.65-.41-.05,5.48-.24,10.58.4,15.68,1.94,15.62,10.69,21.5,25.76,16.87,3.32-1.02,6.48-2.54,10.01-3.95Z" style="fill: #0daedc;"/>
  <path d="M805.65,89.09c2.58-.55,4.37.68,6.59,1.32-1.79,7.29-3.18,14.27-2.55,21.49.83,9.4,5.81,14.46,15.16,15.32,5.88.55,11.54-.72,17.37-2.16,1.09,1.96,1.9,3.86,1.82,6.35-7.78,2.98-15.84,3.71-23.89,2.11-9.66-1.92-15.69-8.99-17.12-19.02-1.24-8.7.09-17.13,2.63-25.4Z" style="fill: #0daedc;"/>
  <path d="M692.55,81.06c1.5,1.85,2.33,3.6,2.8,6.1-9.1,4.39-18.48,7.33-28.65,4.41-7.87-2.26-12.4-8.12-14.55-15.8-2.32-8.3-2.38-16.72-.77-25.27,2.22-.88,4.22-.07,6.67.74-.48,6.03-1.08,12.12-.22,18.27,1.71,12.28,9.04,17.83,21.15,15.83,4.65-.77,8.97-2.41,13.58-4.28Z" style="fill: #0daedc;"/>
  <path d="M737.16,65.27c-.79,7.15-2.68,13.94-1.58,21,1.74,11.18,8.65,16.65,19.92,15.15,4.41-.58,8.77-1.62,13.21-2.46,1.53,1.49,1.74,3.49,2.43,5.87-9.96,3.57-19.91,5.62-29.99,1.16-9.67-4.28-12.18-13.06-12.83-22.6-.44-6.52.91-12.87,2.23-19.08,2.42-.84,4.24.01,6.6.97Z" style="fill: #0daedc;"/>
  <path d="M1075.18,325.36c.54,2.31.98,4.2,1.49,6.43-9.21,2.4-18.14,3.31-27.03-.23-8.71-3.47-12.58-10.55-13.42-19.38-.84-8.73,1.41-17.02,4.32-25.09,2.48-.1,4.21.9,6.19,1.77-1.09,4.83-2.39,9.59-3.23,14.43-2.82,16.37,5.65,25.3,22.2,23.55,2.95-.31,5.87-.91,9.46-1.47Z" style="fill: #0daedc;"/>
  <path d="M1134.36,650.09c1.88,1.65,3.36,2.95,5,4.39-3.97,5.43-8.03,10.49-10.52,16.56-4.56,11.13-1.4,19.15,9.63,23.85,4.28,1.82,8.81,2.83,13.27,3.48.83,2.34.31,4.24-.25,6.92-10.58-1.48-20.56-3.96-27.5-12.83-6.05-7.73-4.91-16.18-1.38-24.58,2.73-6.5,6.71-12.19,11.75-17.78Z" style="fill: #0daedc;"/>
  <path d="M1130.35,503.57c-2.73,6.25-5.41,12-6.24,18.31-1.71,12.93,3.93,20.06,16.9,21.17,4.11.35,8.28.05,12.7.05.38,2.22.73,4.25,1.13,6.6-8.04,1.08-15.6,1.18-22.95-1.53-10.07-3.71-15.1-10.96-15.03-21.7.06-9.17,3.14-17.49,7.34-25.84,2.13,1.02,3.88,1.86,6.14,2.94Z" style="fill: #0daedc;"/>
  <path d="M663.31,1128.17h5.98c.52,4.18,1.05,8.26,1.54,12.34.38,3.18,1.44,6.15,2.69,9.05,3.93,9.08,10.54,12.14,20.18,9.71,5.41-1.36,10-4.34,14.75-6.94,1.83,1.25,2.73,3.02,3.64,4.76-7.92,8.49-24.05,12.29-33.41,7.91-10.31-4.82-17.17-20.98-15.37-36.83Z" style="fill: #0daedc;"/>
  <path d="M49.41,763.14c2.32-.18,4.11-.32,5.78-.44,1.8,1.49,1.48,3.45,1.73,5.19.63,4.31,1.83,8.44,3.88,12.29,4.1,7.71,10.29,10.37,18.74,8.2,3.73-.96,7.26-2.39,10.53-4.4,3.1-1.91,6.12-3.96,9.25-6,1.87,1.22,3.13,2.85,4.1,5.27-7.66,5.99-15.79,11.08-25.55,12.52-9.67,1.42-17.24-2.38-22.32-10.81-3.95-6.55-5.45-13.81-6.14-21.82Z" style="fill: #0daedc;"/>
  <path d="M998.28,932.77c2.34.6,4.23,1.08,6.38,1.63-.77,5.92-1.91,11.61-1.7,17.44.49,13.58,7.41,19.71,20.88,18.44,4.34-.41,8.44-1.76,12.67-2.97,1.77,1.52,2.05,3.65,2.65,6.13-8.85,3.68-17.89,5.35-27.16,2.74-10.61-2.99-14.6-11.39-15.75-21.49-.82-7.17.12-14.25,2.03-21.92Z" style="fill: #0daedc;"/>
  <path d="M503.07,1129.52c2.48-.62,4.4-.6,6.67-.05.54,5.03.56,10.19,2.15,15.11,3.56,11.06,10.56,14.94,21.96,12.07,6.32-1.59,11.98-4.72,17.47-7.93,1.93,1.54,2.77,3.32,3.84,5.61-10.01,6.23-20.26,11.47-32.55,9.63-7.31-1.1-12.27-5.72-15.36-12.26-3.26-6.9-4.22-14.28-4.18-22.18Z" style="fill: #0daedc;"/>
  <path d="M223.9,1005.68c2.63.32,4.55.56,6.73.83-.39,5.99-1.04,11.57.2,17.15,2.06,9.23,7.45,13.64,16.9,13.54,7.61-.08,14.51-3.03,21.39-5.54,1.64,1.82,2.25,3.68,3.02,6.18-12.82,4.89-25.88,10.99-38.82,2.07-11.77-8.11-10.8-21.03-9.42-34.23Z" style="fill: #0daedc;"/>
  <path d="M208.84,187.47c2.28-.49,4.17-.03,6.2.61.2,4.63.12,9.11.84,13.55,1.91,11.85,9.49,17.33,21.33,15.15,6.43-1.18,12.33-3.87,18.14-6.77,1.75,1.6,2.49,3.6,3.46,5.9-8.05,4.21-16.17,7.89-25.41,8.11-12.46.3-20.47-5.88-23.5-17.96-1.83-7.3-2.14-12.31-1.06-18.59Z" style="fill: #0daedc;"/>
  <path d="M93.83,470.45c1.29,1.96,2.28,3.47,3.61,5.48-10.38,6.64-20.91,11.93-33.54,9.73-5.82-1.02-10.28-4.63-13.27-9.77-4.39-7.55-5.49-15.82-5.44-24.29,2.27-1.12,4.24-.36,6.46-.63.44,3.79.77,7.37,1.28,10.93,2.07,14.58,10.53,20.04,24.75,16.08,5.65-1.57,10.59-4.67,16.15-7.54Z" style="fill: #0daedc;"/>
  <path d="M883.37,1037.11c2.81-.32,4.69.08,6.67,1.38-.7,6.8-2.56,13.58-1.46,20.63,1.67,10.67,7.08,15.44,17.91,15.29,5.2-.07,10.12-1.61,15.05-2.82,1.8,1.55,1.99,3.57,2.53,5.41-8.95,5.76-26.29,6.02-33.56-.28-12.83-11.1-9.36-25.41-7.14-39.62Z" style="fill: #0daedc;"/>
  <path d="M78.33,547.66c1.34,2.13,2.38,3.79,3.59,5.72-7.99,5.05-16.08,9.08-25.36,10.12-10.19,1.14-18.72-3.7-22.95-13.08-3.11-6.9-4.29-14.17-3.57-21.74,2.19-.79,4.1-.62,6.26-.03.94,4.49.44,9.17,1.65,13.69,3.17,11.86,10.44,16.37,22.34,13.5,6.34-1.53,11.96-4.75,18.03-8.17Z" style="fill: #0daedc;"/>
  <path d="M493.55,50.33c1.85.39,3.74.79,5.9,1.24-.49,5.5-1.15,10.75-.61,16.04,1.01,9.86,6.83,15.24,16.76,15.42,3.7.07,7.29-.62,10.83-1.48,3.51-.85,6.95-1.98,10.42-3,1.5,1.83,2.05,3.68,2.51,6.03-8.92,3.68-17.97,6.22-27.61,5.08-10.06-1.19-16.49-7.25-18.96-17.15-1.85-7.45-1.58-16.22.76-22.19Z" style="fill: #0daedc;"/>
  <path d="M875.56,125.75c2.39.67,4.27,1.2,6.45,1.81-1.58,6.72-2.45,13.27-2.04,19.95.65,10.57,6.73,16.4,17.36,16.49,5.39.05,10.51-1.39,15.76-3.02,1.37,1.87,2.05,3.8,2.17,6.46-8.73,3.06-17.57,5.01-26.69,2.19-9.76-3.02-14.24-10.55-15.37-20.18-.92-7.82-.05-15.57,2.36-23.71Z" style="fill: #0daedc;"/>
  <path d="M971.8,210.31c1.18,1.9,1.46,3.93.99,6.27-7.08,1.77-14.17,1.87-21.21.21-12.41-2.94-18.84-12.84-17.41-26.93.69-6.79,2.47-13.37,5.37-19.67,2.47-.59,4.01,1.33,6.42,1.68-1.94,6.53-4.6,12.47-4.94,18.98-.68,13.06,5.19,19.62,18.33,20.06,4.11.14,8.25-.39,12.45-.61Z" style="fill: #0daedc;"/>
  <path d="M155.03,244.07h6.36c1.08,3.83.29,7.65.63,11.39,1.2,13.2,8.93,19.98,20.46,18,5.29-.91,10.26-2.66,15.12-4.85,1.48-.67,2.79-1.86,4.67-1.7,1.38,1.42,2.3,3.12,2.92,5.66-12.38,5.74-24.91,12.81-38.47,4.72-12.32-7.36-11.98-20.35-11.69-33.21Z" style="fill: #0daedc;"/>
  <path d="M948.64,983.9c2.32,1.14,3.93,1.94,5.46,2.69.79,2.18-.63,3.66-1.24,5.28-1.87,4.99-3.68,9.98-3.93,15.38-.53,11.54,4.79,17.61,16.4,18.86,4.48.48,8.95.05,13.37-.1,1.48,2.09,1.39,4.18,1.02,6.78-7.43.56-14.86,1.16-22.11-1.31-11.77-4.01-17.21-13.41-15.41-26.76.46-3.44,1.37-6.85,2.4-10.17,1.08-3.46,2.55-6.8,4.03-10.65Z" style="fill: #0daedc;"/>
  <path d="M1110.76,394.57c1.42,1.73,1.48,3.79,2.09,5.65-13.83,5.52-24.3,5.98-33.57-2.34-12.52-11.24-8.15-25.69-5.23-39.42,2.7-1.13,4.52.29,6.96,1.04-1.37,6.07-3.13,12.03-2.98,18.34.33,14.07,8.52,20.91,22.53,18.46,3.41-.59,6.82-1.16,10.2-1.74Z" style="fill: #0daedc;"/>
  <path d="M401.73,1109.88c1.02,2.26,1.77,3.91,2.49,5.52-8.29,6.3-27.95,10.09-37.35,4.28-9.24-5.71-13.36-18.54-10.39-35.12,2.14-.78,4.08.43,6.39.72-.05,5.17-.83,10.26-.06,15.4,1.65,10.95,9.05,16.59,20.05,14.96,6.44-.96,12.58-2.88,18.87-5.75Z" style="fill: #0daedc;"/>
  <path d="M812.24,1077.15h6.16c1.09,3.37.13,6.71.51,9.95.04.33.01.67.02,1,.6,20.65,11.85,27.89,30.75,19.78,1.83-.79,3.61-1.68,5.5-2.56,1.8,1.43,2.54,3.37,3.29,5.77-8.36,4.92-17.18,8.14-26.94,6.59-8.68-1.38-14.1-7.1-16.93-15.22-2.83-8.14-3.16-16.55-2.36-25.32Z" style="fill: #0daedc;"/>
  <path d="M580.32,1138.56c2.51-.42,4.31-.52,6.43.14.99,4.72.71,9.75,2.14,14.52,3.38,11.27,10.09,15.3,21.52,12.76,6.57-1.46,12.36-4.72,18.15-8.05,1.85,1.51,2.91,3.31,3.64,5.68-7.75,5.08-15.97,8.93-25.24,9.98-9.75,1.11-18.18-3.62-22.42-12.51-3.35-7.02-4.36-14.52-4.23-22.52Z" style="fill: #0daedc;"/>
  <path d="M1052.1,874.2c-.29,6.9-1.37,13.28-.3,19.79,1.83,11.15,7.99,16.18,19.29,15.28,5.21-.42,9.98-2.31,15.02-4.06,1.51,1.61,2.02,3.65,2.94,5.88-8.63,4.44-17.6,6.4-26.97,4.57-8.2-1.61-13.34-7.23-15.78-15.07-2.78-8.91-2.44-17.97-.76-26.99,2.29-.75,4.11.46,6.57.62Z" style="fill: #0daedc;"/>
  <path d="M1028.35,263.98c.6,2.17,1.11,4.04,1.76,6.39-9.48,2.56-18.65,3.87-27.86.08-8.47-3.48-12.25-10.42-13.13-19.05-.87-8.55.85-16.81,3.78-25.1,2.24.44,4.3.73,6.22,2.26-1.41,6.29-3.34,12.45-3.23,19.01.2,12.02,6,18.04,18.05,18.35,4.81.12,9.46-1.21,14.41-1.95Z" style="fill: #0daedc;"/>
  <path d="M165.12,956.55c2.49-.31,4.44-.56,6.5.57.58,4.33.26,8.82,1.31,13.21,2.92,12.14,10.29,16.67,22.53,13.85,6.23-1.44,11.66-4.64,17.45-7.52,1.74,1.51,2.8,3.25,3.49,5.75-8.55,5.02-17.17,9.41-27.35,9.55-9.5.13-16.19-4.36-20.2-12.78-3.35-7.03-4.34-14.54-3.73-22.64Z" style="fill: #0daedc;"/>
  <path d="M332.2,1076.42c1.1,2.45,1.89,4.21,2.77,6.18-7.73,3.51-15.31,6.29-23.61,6.46-13.81.29-21.76-6.06-24.61-19.55-1.29-6.1-.9-12.16-.22-18.17,2.41-.69,4.3-.43,6.4.47,0,3.74-.09,7.51.02,11.28.4,14.79,8.76,21.45,23.27,18.57,5.36-1.06,10.48-2.93,15.99-5.25Z" style="fill: #0daedc;"/>
  <path d="M475.56,1131.66c2.09,1.21,2.51,3.26,3.68,4.74-9.25,8.97-27.46,13.27-37.06,8.88-9.87-4.51-15.53-17.02-14.71-32.5q2.79-.82,6.37-.43c.79,4.78.66,9.79,2.11,14.55,3.49,11.41,10.46,15.27,22.07,12.49,6.37-1.53,11.88-4.9,17.54-7.73Z" style="fill: #0daedc;"/>
  <path d="M1108.72,422.89c2.28,1.19,4.12,1.95,5.52,3.77-2.35,4.84-5.08,9.58-6.78,14.8-4.64,14.28,1.06,23.47,15.98,25.5,3.58.49,7.2.75,10.76,1.12.77,2.13.79,4.06.17,6.49-10.24.25-20.18-.75-28.42-7.71-6.28-5.3-7.91-12.56-6.76-20.36,1.26-8.48,4.7-16.18,9.52-23.61Z" style="fill: #0daedc;"/>
  <path d="M79.96,833.76c2.35-.94,4.29-.9,6.53-.5.91,4.98,1.53,10.09,3.56,14.84,4.27,10.01,11.32,13.25,21.75,10.08,6.65-2.03,12.19-6.01,17.85-9.95,2.02,1.11,2.99,3.03,4.47,5.24-8.88,6.34-17.61,12.46-29.1,12.73-7.66.18-13.56-2.98-17.86-9.12-4.9-7-6.77-14.95-7.21-23.31Z" style="fill: #0daedc;"/>
  <path d="M28.06,606.82c2.27-.69,4.18-.65,6.49.17.61,4.26.32,8.75,1.4,13.1,3.05,12.17,10.34,16.73,22.52,13.87,6.38-1.5,11.97-4.77,17.61-7.94,1.83,1.55,2.75,3.46,3.76,5.58-7.62,4.96-15.65,8.81-24.7,10.05-10.08,1.39-18.87-3.44-23.21-12.65-3.32-7.02-4.46-14.45-3.88-22.18Z" style="fill: #0daedc;"/>
  <path d="M573.2,39.85c2.4.57,4.32,1.03,6.01,2.69-1.22,5.37-3.41,10.61-3.33,16.36.13,10.1,5,15.79,15.02,17.12,6.83.91,13.58.11,20.37-1.03,1.18,2.02,1.74,4.01,1.57,6.58-8.81,1.91-17.69,2.69-26.52.49-11.33-2.83-17.24-10.78-17.36-22.49-.07-6.75,1.62-13.11,4.24-19.72Z" style="fill: #0daedc;"/>
  <path d="M1138.65,771.24c.94,2.18.67,4.15.51,6.1-14.59,3.5-31.8-5.22-34.75-17.71-1.72-7.28.07-14.22,2.74-20.95,1.7-4.3,3.7-8.49,6.5-12.24,2.14.58,3.7,1.79,5.62,3.29-1.44,2.88-2.94,5.77-4.33,8.71-2.06,4.38-3.85,8.84-4.07,13.77-.39,8.87,3.2,13.97,11.7,16.82,5.25,1.76,10.71,1.95,16.08,2.2Z" style="fill: #0daedc;"/>
  <path d="M168.5,912.36c1.83,1.37,3.19,2.96,4.04,5.43-8.51,6.1-17.07,11.98-28.13,12.51-7.8.37-13.93-2.67-18.41-8.94-4.99-6.97-6.78-14.96-7.31-23.23,2.16-1.37,4.13-1.11,6.28-.89.96,4.16,1.58,8.43,2.93,12.46,4.36,13,12.44,16.63,25.18,11.72,5.64-2.18,10.4-5.82,15.42-9.05Z" style="fill: #0daedc;"/>
  <path d="M1119.27,844.9c-8.21,2.55-16.26,3.41-24.3,1.39-10.25-2.57-16.09-10.23-16.83-21.5-.52-8.06,1.17-15.8,3.7-23.65,2.31.36,4.33.77,6.3,2.21-1.33,6.5-3.3,12.86-3.09,19.58.36,11.11,5.78,16.8,16.88,17.41,5.19.29,10.23-.87,15.24-1.72,1.54,1.71,1.8,3.68,2.09,6.27Z" style="fill: #0daedc;"/>
  <path d="M1157.24,619.78c.74,2.29,1.01,4.2.35,6.5-9.72,1.21-19.19.59-27.71-4.86-7.13-4.56-9.62-11.69-9.24-19.78.41-8.75,3.35-16.82,7.59-24.67,2.34.19,4.04,1.42,6.01,2.66-1.67,4.23-3.54,8.28-4.88,12.5-5.51,17.28,1.08,26.7,19.2,27.63,2.79.14,5.6.02,8.68.02Z" style="fill: #0daedc;"/>
</svg>