<?xml version="1.0" encoding="UTF-8"?>
<svg id="Layer_1" xmlns="http://www.w3.org/2000/svg" viewBox="0 0 239.53 263.32">
  <path d="M119.52,247.57c-9.63,12.93-22.82,15.96-37.75,15.74-24.99-.36-49.98-.03-74.97,0-6.52,0-6.79-.25-6.79-6.7C0,180.99,0,105.36,0,29.74c0-6.01.49-6.57,6.58-6.49,24.32.3,48.63.41,72.96,0,17.03-.29,31.03-5.54,38.85-21.96.21-.43.6-.79.94-1.15.09-.1.31-.08.56-.13,1.58.48,1.97,2.11,2.6,3.34,7.02,13.68,19.08,19.09,33.53,19.78,25.47,1.21,50.97.64,76.46.34,6.68-.08,7.04.21,7.04,6.93,0,75.3-.02,150.6-.03,225.9q0,7.01-6.83,7.03c-24.16,0-48.32,0-72.48,0-21.68,0-24.83-1.2-40.67-15.74ZM119.91,22.78c-8.67,5.94-17.89,10.42-27.63,13.82-4.12,1.44-8.44,2.01-12.78,2-18.99-.02-37.99-.07-56.98-.21-7.57-.06-7.78.04-7.79,7.71-.01,65.49,0,130.98-.11,196.47,0,4.12,1.32,5.65,5.45,5.61,17.82-.14,35.64-.05,53.46-.1,6.16-.02,12.36.23,18.46-.44,10.25-1.12,18.26-8.71,20.5-18.55,2.07-9.09-2.72-21.45-10.19-26.63-3.64-2.52-7.62-3.26-11.88-2.71-12.2,1.57-18.65,13.26-12.57,22.45,1.8,2.72,4.74,3.38,7.4,4.89-5.81,3.56-10.4,5.04-15.25,5-28.88-.22-47.13-30.27-33.77-55.81,1.65-3.16,1.93-5.65.1-8.77-12.34-21.05-1.47-44,17.66-51.95,4.24-1.76,6.23-4.42,6.75-8.86,1.38-11.68,7.27-20.51,17.42-26.48,12.66-7.45,23.29-17.15,31.99-28.98,3.12-4.24,6.3-8.43,9.77-13.07,2.07,2.84,3.82,5.23,5.54,7.63,9.68,13.54,20.79,25.61,35.4,34,10.72,6.16,16.9,15.32,18.37,27.56.46,3.87,2.06,6.29,5.79,7.85,20.74,8.66,30.72,32.11,18.23,52.94-1.65,2.75-1.36,5.03.17,7.86,11.73,21.59.77,47.61-22.8,54.49-10.51,3.07-19.2,1.87-25.67-3.54,8.74-3.68,12.09-12.31,7.44-19.14-6.92-10.16-21.02-11.1-28.73-1.56-6.59,8.15-9.33,17.53-4.74,27.5,4.54,9.86,12.83,14.41,23.73,14.38,21.83-.07,43.66-.02,65.49-.02q6.93,0,6.94-6.88c0-64.66,0-129.31,0-193.97,0-1.33-.09-2.67.01-4,.26-3.5-1.43-4.72-4.77-4.69-15.99.14-32.02-.53-47.96.42-19.67,1.16-36.54-5.19-52.47-16.22ZM64.92,172.29c-1.46.46-2.4.78-3.36,1.05-9.3,2.61-13.95,9.21-15.39,18.34-1.33,8.44,2.63,14.86,8.62,20.19,3.63,3.24,5.57,2.56,6.44-1.83,2.7-13.71,12.4-20.47,24.75-23.89,12.33-3.41,22.6,1.12,30.78,10.41,2.61,2.96,3.8,2.98,6.42,0,8.21-9.33,18.66-13.66,30.88-10.25,12.3,3.43,22.11,10.34,24.58,24.05.75,4.16,2.61,4.17,5.45,2.48,6.65-3.97,10.84-14.02,9.45-21.74-1.9-10.55-8.27-16.57-19.02-18.64,16.54-7.78,22.57-17.65,18.58-29.82-4.14-12.63-15.07-17.07-33.01-13.26.32-.69.56-1.25.83-1.8,8.02-16.08,4.4-28.68-11.23-37.39-10.09-5.62-18.16-13.39-25.55-22.06-1.34-1.57-2.21-3.78-5.19-4.32-9.13,12.79-21.41,22.18-34.94,30.34-6.26,3.78-8.81,10.53-9.24,17.98-.36,6.2,1.82,11.6,5.14,17.1-17.78-3.77-28.79.57-33.03,12.6-4.3,12.19,1.62,22.37,18.02,30.47Z"/>
  <path d="M119.91,22.78c15.93,11.03,32.8,17.39,52.47,16.22,15.94-.94,31.97-.28,47.96-.42,3.34-.03,5.04,1.2,4.77,4.69-.1,1.33-.01,2.66-.01,4,0,64.66,0,129.31,0,193.97q0,6.87-6.94,6.88c-21.83,0-43.66-.05-65.49.02-10.9.03-19.19-4.52-23.73-14.38-4.59-9.97-1.85-19.35,4.74-27.5,7.71-9.54,21.81-8.6,28.73,1.56,4.65,6.83,1.3,15.46-7.44,19.14,6.47,5.41,15.16,6.61,25.67,3.54,23.57-6.88,34.52-32.91,22.8-54.49-1.53-2.83-1.83-5.1-.17-7.86,12.5-20.83,2.52-44.28-18.23-52.94-3.73-1.56-5.33-3.98-5.79-7.85-1.47-12.24-7.65-21.4-18.37-27.56-14.61-8.39-25.72-20.46-35.4-34-1.72-2.41-3.48-4.79-5.54-7.63-3.47,4.63-6.65,8.83-9.77,13.07-8.7,11.83-19.32,21.53-31.99,28.98-10.16,5.97-16.05,14.79-17.42,26.48-.52,4.43-2.51,7.09-6.75,8.86-19.13,7.95-30.01,30.9-17.66,51.95,1.83,3.13,1.55,5.61-.1,8.77-13.35,25.54,4.9,55.59,33.77,55.81,4.85.04,9.44-1.44,15.25-5-2.66-1.51-5.6-2.17-7.4-4.89-6.08-9.18.38-20.88,12.57-22.45,4.26-.55,8.24.19,11.88,2.71,7.47,5.18,12.26,17.55,10.19,26.63-2.24,9.84-10.25,17.43-20.5,18.55-6.1.67-12.3.42-18.46.44-17.82.05-35.64-.04-53.46.1-4.13.03-5.46-1.5-5.45-5.61.11-65.49.09-130.98.11-196.47,0-7.68.22-7.77,7.79-7.71,18.99.14,37.99.19,56.98.21,4.34,0,8.66-.57,12.78-2,9.74-3.4,18.96-7.88,27.63-13.82Z" style="fill: #fff;"/>
  <path d="M64.92,172.29c-16.4-8.1-22.31-18.28-18.02-30.47,4.24-12.03,15.26-16.38,33.03-12.6-3.32-5.5-5.5-10.9-5.14-17.1.43-7.45,2.98-14.2,9.24-17.98,13.53-8.16,25.81-17.55,34.94-30.34,2.98.55,3.85,2.76,5.19,4.32,7.39,8.67,15.45,16.43,25.55,22.06,15.63,8.71,19.25,21.31,11.23,37.39-.27.55-.52,1.11-.83,1.8,17.94-3.8,28.87.64,33.01,13.26,3.99,12.17-2.04,22.04-18.58,29.82,10.75,2.07,17.12,8.09,19.02,18.64,1.39,7.72-2.8,17.76-9.45,21.74-2.84,1.69-4.7,1.68-5.45-2.48-2.48-13.71-12.28-20.62-24.58-24.05-12.22-3.41-22.67.92-30.88,10.25-2.62,2.98-3.82,2.97-6.42,0-8.18-9.29-18.45-13.82-30.78-10.41-12.35,3.42-22.05,10.18-24.75,23.89-.87,4.39-2.81,5.07-6.44,1.83-5.99-5.33-9.94-11.75-8.62-20.19,1.44-9.13,6.09-15.72,15.39-18.34.96-.27,1.9-.59,3.36-1.05Z" style="fill: #fff;"/>
</svg>